<svg xmlns="http://www.w3.org/2000/svg" xmlns:xlink="http://www.w3.org/1999/xlink" width="904" zoomAndPan="magnify" viewBox="0 0 678 197.249993" height="263" preserveAspectRatio="xMidYMid meet" version="1.0"><defs><g/><clipPath id="id1"><path d="M 1.285156 0 L 676.714844 0 L 676.714844 196.503906 L 1.285156 196.503906 Z M 1.285156 0 " clip-rule="nonzero"/></clipPath><clipPath id="id2"><path d="M 525.351562 42.8125 L 583 42.8125 L 583 154.140625 L 525.351562 154.140625 Z M 525.351562 42.8125 " clip-rule="nonzero"/></clipPath><clipPath id="id3"><path d="M 582 42.8125 L 639.664062 42.8125 L 639.664062 154.140625 L 582 154.140625 Z M 582 42.8125 " clip-rule="nonzero"/></clipPath><clipPath id="id4"><path d="M 260.328125 132.5625 L 273.777344 132.5625 L 273.777344 149 L 260.328125 149 Z M 260.328125 132.5625 " clip-rule="nonzero"/></clipPath><clipPath id="id5"><path d="M 1.285156 17 L 676.714844 17 L 676.714844 20 L 1.285156 20 Z M 1.285156 17 " clip-rule="nonzero"/></clipPath><clipPath id="id6"><path d="M 1.285156 176 L 672 176 L 672 179 L 1.285156 179 Z M 1.285156 176 " clip-rule="nonzero"/></clipPath></defs><g clip-path="url(#id1)"><path fill="rgb(100%, 100%, 100%)" d="M 1.285156 0 L 676.714844 0 L 676.714844 203.972656 L 1.285156 203.972656 Z M 1.285156 0 " fill-opacity="1" fill-rule="nonzero"/><path fill="rgb(12.548828%, 14.898682%, 21.179199%)" d="M 1.285156 0 L 676.714844 0 L 676.714844 196.503906 L 1.285156 196.503906 Z M 1.285156 0 " fill-opacity="1" fill-rule="nonzero"/><path fill="rgb(100%, 100%, 100%)" d="M 1.285156 0 L 676.714844 0 L 676.714844 196.503906 L 1.285156 196.503906 Z M 1.285156 0 " fill-opacity="1" fill-rule="nonzero"/><path fill="rgb(12.548828%, 14.898682%, 21.179199%)" d="M 1.285156 0 L 676.714844 0 L 676.714844 196.503906 L 1.285156 196.503906 Z M 1.285156 0 " fill-opacity="1" fill-rule="nonzero"/></g><path fill="rgb(94.119263%, 94.509888%, 94.509888%)" d="M 601.191406 125.859375 L 582.507812 93.539062 L 582.507812 74.796875 L 615.742188 132.289062 L 582.507812 139.507812 L 601.191406 125.859375 " fill-opacity="1" fill-rule="nonzero"/><path fill="rgb(32.939148%, 73.329163%, 50.19989%)" d="M 582.507812 74.796875 L 582.507812 93.539062 L 563.824219 125.859375 L 582.507812 129.917969 L 549.273438 132.289062 L 582.507812 74.796875 " fill-opacity="1" fill-rule="nonzero"/><g clip-path="url(#id2)"><path fill="rgb(32.939148%, 73.329163%, 50.19989%)" d="M 582.507812 42.84375 L 582.507812 61.585938 L 539.902344 135.285156 L 582.507812 144.535156 L 582.507812 154.125 L 525.351562 141.714844 L 582.507812 42.84375 " fill-opacity="1" fill-rule="nonzero"/></g><g clip-path="url(#id3)"><path fill="rgb(94.119263%, 94.509888%, 94.509888%)" d="M 582.507812 144.535156 L 625.109375 135.285156 L 582.507812 61.585938 L 582.507812 42.84375 L 639.660156 141.714844 L 582.507812 154.125 L 582.507812 144.535156 " fill-opacity="1" fill-rule="nonzero"/></g><g fill="rgb(32.939148%, 73.329163%, 50.19989%)" fill-opacity="1"><g transform="translate(175.114204, 148.285413)"><g><path d="M 11.5 -0.46875 L 11.5 0 L 0.671875 0 L 0.671875 -0.46875 L 10.46875 -14.4375 L 1.359375 -14.4375 L 1.359375 -14.921875 L 11.046875 -14.921875 L 11.046875 -14.4375 L 1.265625 -0.46875 Z M 11.5 -0.46875 "/></g></g></g><g fill="rgb(32.939148%, 73.329163%, 50.19989%)" fill-opacity="1"><g transform="translate(187.202078, 148.285413)"><g><path d="M 11.78125 -0.46875 L 11.78125 0 L 2.21875 0 L 2.21875 -14.921875 L 11.5625 -14.921875 L 11.5625 -14.4375 L 2.71875 -14.4375 L 2.71875 -7.921875 L 10.6875 -7.921875 L 10.6875 -7.453125 L 2.71875 -7.453125 L 2.71875 -0.46875 Z M 11.78125 -0.46875 "/></g></g></g><g fill="rgb(32.939148%, 73.329163%, 50.19989%)" fill-opacity="1"><g transform="translate(200.003803, 148.285413)"><g><path d="M 11.78125 -0.46875 L 11.78125 0 L 2.21875 0 L 2.21875 -14.921875 L 11.5625 -14.921875 L 11.5625 -14.4375 L 2.71875 -14.4375 L 2.71875 -7.921875 L 10.6875 -7.921875 L 10.6875 -7.453125 L 2.71875 -7.453125 L 2.71875 -0.46875 Z M 11.78125 -0.46875 "/></g></g></g><g fill="rgb(32.939148%, 73.329163%, 50.19989%)" fill-opacity="1"><g transform="translate(212.805528, 148.285413)"><g><path d="M 13.796875 -14.921875 L 13.796875 0 L 13.09375 0 L 2.71875 -14.34375 L 2.71875 0 L 2.21875 0 L 2.21875 -14.921875 L 2.921875 -14.921875 L 13.296875 -0.578125 L 13.296875 -14.921875 Z M 13.796875 -14.921875 "/></g></g></g><g fill="rgb(32.939148%, 73.329163%, 50.19989%)" fill-opacity="1"><g transform="translate(228.819582, 148.285413)"><g><path d="M 12.734375 -5.65625 L 12.734375 -14.921875 L 13.234375 -14.921875 L 13.234375 -5.65625 C 13.234375 -3.632812 12.78125 -2.160156 11.875 -1.234375 C 10.96875 -0.316406 9.53125 0.140625 7.5625 0.140625 C 5.675781 0.140625 4.289062 -0.320312 3.40625 -1.25 C 2.53125 -2.175781 2.09375 -3.644531 2.09375 -5.65625 L 2.09375 -14.921875 L 2.59375 -14.921875 L 2.59375 -5.65625 C 2.59375 -3.738281 2.976562 -2.367188 3.75 -1.546875 C 4.53125 -0.734375 5.800781 -0.328125 7.5625 -0.328125 C 9.382812 -0.328125 10.703125 -0.738281 11.515625 -1.5625 C 12.328125 -2.394531 12.734375 -3.757812 12.734375 -5.65625 Z M 12.734375 -5.65625 "/></g></g></g><g fill="rgb(32.939148%, 73.329163%, 50.19989%)" fill-opacity="1"><g transform="translate(244.143585, 148.285413)"><g><path d="M 6.546875 -7.703125 L 12.28125 0 L 11.65625 0 L 6.234375 -7.328125 L 1.140625 0 L 0.546875 0 L 5.953125 -7.6875 L 0.71875 -14.921875 L 1.3125 -14.921875 L 6.234375 -8.0625 L 11.1875 -14.921875 L 11.78125 -14.921875 Z M 6.546875 -7.703125 "/></g></g></g><g fill="rgb(32.939148%, 73.329163%, 50.19989%)" fill-opacity="1"><g transform="translate(256.826055, 148.285413)"><g/></g></g><g clip-path="url(#id4)"><path fill="rgb(94.119263%, 94.509888%, 94.509888%)" d="M 273.773438 134.960938 L 273.773438 132.90625 C 273.773438 132.714844 273.625 132.5625 273.4375 132.5625 L 260.664062 132.5625 C 260.480469 132.5625 260.328125 132.714844 260.328125 132.90625 L 260.328125 134.960938 C 260.328125 135.148438 260.480469 135.300781 260.664062 135.300781 L 263.023438 135.300781 C 261.339844 136.582031 260.328125 138.585938 260.328125 140.78125 C 260.328125 142.972656 261.339844 144.980469 263.023438 146.261719 L 260.664062 146.261719 C 260.480469 146.261719 260.328125 146.414062 260.328125 146.601562 L 260.328125 148.65625 C 260.328125 148.847656 260.480469 149 260.664062 149 L 273.4375 149 C 273.625 149 273.773438 148.847656 273.773438 148.65625 L 273.773438 146.601562 C 273.773438 146.414062 273.625 146.261719 273.4375 146.261719 L 271.078125 146.261719 C 272.765625 144.980469 273.773438 142.972656 273.773438 140.78125 C 273.773438 138.585938 272.765625 136.582031 271.078125 135.300781 L 273.4375 135.300781 C 273.625 135.300781 273.773438 135.148438 273.773438 134.960938 Z M 271.757812 140.78125 C 271.757812 143.425781 269.648438 145.574219 267.050781 145.574219 C 264.457031 145.574219 262.347656 143.425781 262.347656 140.78125 C 262.347656 138.136719 264.457031 135.988281 267.050781 135.988281 C 269.648438 135.988281 271.757812 138.136719 271.757812 140.78125 Z M 271.757812 140.78125 " fill-opacity="1" fill-rule="nonzero"/></g><g clip-path="url(#id5)"><path stroke-linecap="butt" transform="matrix(2.241477, 0.000000000000000186, -0.000000000000000169, 2.039638, 1.284103, 18.201856)" fill="none" stroke-linejoin="miter" d="M 0.000469938 0.000622359 L 301.332876 0.000622359 " stroke="rgb(28.239441%, 81.568909%, 42.749023%)" stroke-width="1" stroke-opacity="1" stroke-miterlimit="4"/></g><g clip-path="url(#id6)"><path stroke-linecap="butt" transform="matrix(2.241477, 0.000000000000000186, -0.000000000000000169, 2.039638, -5.245981, 177.872357)" fill="none" stroke-linejoin="miter" d="M -0.0000503088 -0.000619191 L 301.334098 -0.000619191 " stroke="rgb(28.239441%, 81.568909%, 42.749023%)" stroke-width="1" stroke-opacity="1" stroke-miterlimit="4"/></g><g fill="rgb(28.239441%, 81.568909%, 42.749023%)" fill-opacity="1"><g transform="translate(38.554063, 93.459938)"><g><path d="M 20.75 -7.359375 L 20.75 -3.671875 L 1.65625 -11.921875 L 1.65625 -16.046875 L 20.75 -24.296875 L 20.75 -20.703125 L 4.390625 -14.03125 Z M 20.75 -7.359375 "/></g></g></g><g fill="rgb(28.239441%, 81.568909%, 42.749023%)" fill-opacity="1"><g transform="translate(60.957159, 93.459938)"><g/></g></g><g fill="rgb(28.239441%, 81.568909%, 42.749023%)" fill-opacity="1"><g transform="translate(68.623007, 93.459938)"><g/></g></g><g fill="rgb(28.239441%, 81.568909%, 42.749023%)" fill-opacity="1"><g transform="translate(76.285594, 93.459938)"><g><path d="M 4.390625 0 L 0.359375 0 L 11.46875 -28.109375 L 15.421875 -28.109375 L 26.40625 0 L 22.375 0 L 19.8125 -6.765625 L 6.953125 -6.765625 Z M 13.359375 -24.609375 C 13.054688 -23.566406 12.703125 -22.460938 12.296875 -21.296875 C 11.898438 -20.128906 11.492188 -18.960938 11.078125 -17.796875 L 8.203125 -10.125 L 18.5625 -10.125 L 15.6875 -17.796875 C 15.09375 -19.441406 14.625 -20.769531 14.28125 -21.78125 C 13.9375 -22.800781 13.628906 -23.742188 13.359375 -24.609375 Z M 13.359375 -24.609375 "/></g></g></g><g fill="rgb(28.239441%, 81.568909%, 42.749023%)" fill-opacity="1"><g transform="translate(103.093629, 93.459938)"><g><path d="M 23.40625 -8.0625 C 23.40625 -5.195312 22.625 -3.132812 21.0625 -1.875 C 19.507812 -0.625 17.015625 0 13.578125 0 L 3.234375 0 L 3.234375 -28.109375 L 13.53125 -28.109375 C 16.644531 -28.109375 18.859375 -27.582031 20.171875 -26.53125 C 21.484375 -25.488281 22.140625 -23.695312 22.140625 -21.15625 C 22.140625 -19.332031 21.816406 -17.925781 21.171875 -16.9375 C 20.535156 -15.957031 19.457031 -15.285156 17.9375 -14.921875 C 19.757812 -14.679688 21.125 -13.992188 22.03125 -12.859375 C 22.945312 -11.722656 23.40625 -10.125 23.40625 -8.0625 Z M 18.609375 -20.625 C 18.609375 -22.175781 18.234375 -23.257812 17.484375 -23.875 C 16.734375 -24.488281 15.429688 -24.796875 13.578125 -24.796875 L 7.03125 -24.796875 L 7.03125 -16 L 13.578125 -16 C 15.367188 -16 16.65625 -16.359375 17.4375 -17.078125 C 18.21875 -17.796875 18.609375 -18.976562 18.609375 -20.625 Z M 19.71875 -8.296875 C 19.71875 -9.960938 19.253906 -11.125 18.328125 -11.78125 C 17.398438 -12.445312 15.816406 -12.78125 13.578125 -12.78125 L 7.03125 -12.78125 L 7.03125 -3.40625 L 13.578125 -3.40625 C 15.816406 -3.40625 17.398438 -3.765625 18.328125 -4.484375 C 19.253906 -5.203125 19.71875 -6.472656 19.71875 -8.296875 Z M 19.71875 -8.296875 "/></g></g></g><g fill="rgb(28.239441%, 81.568909%, 42.749023%)" fill-opacity="1"><g transform="translate(128.198155, 93.459938)"><g><path d="M 7.03125 0 L 3.234375 0 L 3.234375 -28.109375 L 7.03125 -28.109375 L 7.03125 -16 L 21.734375 -16 L 21.734375 -28.109375 L 25.546875 -28.109375 L 25.546875 0 L 21.734375 0 L 21.734375 -12.5 L 7.03125 -12.5 Z M 7.03125 0 "/></g></g></g><g fill="rgb(28.239441%, 81.568909%, 42.749023%)" fill-opacity="1"><g transform="translate(156.978689, 93.459938)"><g><path d="M 7.03125 -28.109375 L 7.03125 0 L 3.234375 0 L 3.234375 -28.109375 Z M 7.03125 -28.109375 "/></g></g></g><g fill="rgb(28.239441%, 81.568909%, 42.749023%)" fill-opacity="1"><g transform="translate(167.240536, 93.459938)"><g/></g></g><g fill="rgb(28.239441%, 81.568909%, 42.749023%)" fill-opacity="1"><g transform="translate(174.906383, 93.459938)"><g/></g></g><g fill="rgb(28.239441%, 81.568909%, 42.749023%)" fill-opacity="1"><g transform="translate(182.568966, 93.459938)"><g><path d="M 10.890625 0 L 0.359375 -28.109375 L 4.578125 -28.109375 L 11.03125 -10.3125 C 11.269531 -9.5625 11.566406 -8.609375 11.921875 -7.453125 C 12.285156 -6.304688 12.71875 -4.820312 13.21875 -3 C 13.613281 -4.4375 13.992188 -5.796875 14.359375 -7.078125 C 14.734375 -8.367188 15.070312 -9.445312 15.375 -10.3125 L 21.78125 -28.109375 L 25.90625 -28.109375 L 15.375 0 Z M 10.890625 0 "/></g></g></g><g fill="rgb(28.239441%, 81.568909%, 42.749023%)" fill-opacity="1"><g transform="translate(208.839058, 93.459938)"><g><path d="M 7.03125 -28.109375 L 7.03125 0 L 3.234375 0 L 3.234375 -28.109375 Z M 7.03125 -28.109375 "/></g></g></g><g fill="rgb(28.239441%, 81.568909%, 42.749023%)" fill-opacity="1"><g transform="translate(219.105016, 93.459938)"><g><path d="M 7.03125 -10.09375 L 7.03125 0 L 3.234375 0 L 3.234375 -28.109375 L 12.78125 -28.109375 C 16.75 -28.109375 19.59375 -27.425781 21.3125 -26.0625 C 23.03125 -24.707031 23.890625 -22.460938 23.890625 -19.328125 C 23.890625 -16.867188 23.34375 -14.914062 22.25 -13.46875 C 21.164062 -12.019531 19.515625 -11.039062 17.296875 -10.53125 L 24.65625 0 L 20.078125 0 L 13.265625 -10.09375 Z M 20.03125 -19.328125 C 20.03125 -21.234375 19.476562 -22.597656 18.375 -23.421875 C 17.269531 -24.242188 15.40625 -24.65625 12.78125 -24.65625 L 7.03125 -24.65625 L 7.03125 -13.453125 L 12.78125 -13.453125 C 15.34375 -13.453125 17.191406 -13.914062 18.328125 -14.84375 C 19.460938 -15.769531 20.03125 -17.265625 20.03125 -19.328125 Z M 20.03125 -19.328125 "/></g></g></g><g fill="rgb(28.239441%, 81.568909%, 42.749023%)" fill-opacity="1"><g transform="translate(245.06129, 93.459938)"><g><path d="M 20.4375 -3.59375 L 20.4375 0 L 3.234375 0 L 3.234375 -28.109375 L 7.03125 -28.109375 L 7.03125 -3.59375 Z M 20.4375 -3.59375 "/></g></g></g><g fill="rgb(28.239441%, 81.568909%, 42.749023%)" fill-opacity="1"><g transform="translate(266.220817, 93.459938)"><g><path d="M 7.03125 -28.109375 L 7.03125 0 L 3.234375 0 L 3.234375 -28.109375 Z M 7.03125 -28.109375 "/></g></g></g><g fill="rgb(28.239441%, 81.568909%, 42.749023%)" fill-opacity="1"><g transform="translate(276.477517, 93.459938)"><g/></g></g><g fill="rgb(28.239441%, 81.568909%, 42.749023%)" fill-opacity="1"><g transform="translate(284.143365, 93.459938)"><g/></g></g><g fill="rgb(28.239441%, 81.568909%, 42.749023%)" fill-opacity="1"><g transform="translate(291.805956, 93.459938)"><g><path d="M 13.046875 -31.6875 L 3.90625 3.59375 L 0.8125 3.59375 L 10 -31.6875 Z M 13.046875 -31.6875 "/></g></g></g><g fill="rgb(28.239441%, 81.568909%, 42.749023%)" fill-opacity="1"><g transform="translate(305.658268, 93.459938)"><g><path d="M 20.75 -11.921875 L 1.65625 -3.671875 L 1.65625 -7.359375 L 18.015625 -14.03125 L 1.65625 -20.703125 L 1.65625 -24.296875 L 20.75 -16.046875 Z M 20.75 -11.921875 "/></g></g></g><g fill="rgb(100%, 100%, 100%)" fill-opacity="1"><g transform="translate(375.286932, 77.729421)"><g><path d="M 1.71875 0 L 0.125 -5.765625 L 0.96875 -5.765625 L 1.921875 -2.109375 C 1.941406 -2.015625 1.96875 -1.898438 2 -1.765625 C 2.03125 -1.640625 2.09375 -1.300781 2.1875 -0.75 C 2.300781 -1.3125 2.367188 -1.65625 2.390625 -1.78125 C 2.421875 -1.90625 2.453125 -2.015625 2.484375 -2.109375 L 3.53125 -5.765625 L 4.34375 -5.765625 L 5.40625 -2.109375 C 5.425781 -2.015625 5.453125 -1.90625 5.484375 -1.78125 C 5.515625 -1.664062 5.585938 -1.328125 5.703125 -0.765625 C 5.765625 -1.140625 5.816406 -1.4375 5.859375 -1.65625 C 5.910156 -1.882812 5.945312 -2.035156 5.96875 -2.109375 L 6.90625 -5.765625 L 7.734375 -5.765625 L 6.125 0 L 5.25 0 L 4.3125 -3.09375 C 4.25 -3.3125 4.1875 -3.550781 4.125 -3.8125 C 4.0625 -4.070312 3.992188 -4.378906 3.921875 -4.734375 C 3.847656 -4.378906 3.78125 -4.070312 3.71875 -3.8125 C 3.65625 -3.550781 3.59375 -3.3125 3.53125 -3.09375 L 2.609375 0 Z M 1.71875 0 "/></g></g></g><g fill="rgb(100%, 100%, 100%)" fill-opacity="1"><g transform="translate(383.12623, 77.729421)"><g><path d="M 1.359375 0 L 0.609375 0 L 0.609375 -6.109375 L 1.359375 -6.109375 L 1.359375 -4.171875 C 1.628906 -4.328125 1.898438 -4.441406 2.171875 -4.515625 C 2.453125 -4.585938 2.726562 -4.625 3 -4.625 C 3.5 -4.625 3.875 -4.5 4.125 -4.25 C 4.382812 -4 4.515625 -3.628906 4.515625 -3.140625 L 4.515625 0 L 3.75 0 L 3.75 -3.046875 C 3.75 -3.359375 3.664062 -3.585938 3.5 -3.734375 C 3.34375 -3.878906 3.09375 -3.953125 2.75 -3.953125 C 2.53125 -3.953125 2.296875 -3.921875 2.046875 -3.859375 C 1.804688 -3.796875 1.578125 -3.707031 1.359375 -3.59375 Z M 1.359375 0 "/></g></g></g><g fill="rgb(100%, 100%, 100%)" fill-opacity="1"><g transform="translate(388.2025, 77.729421)"><g><path d="M 1.390625 -5.328125 L 0.578125 -5.328125 L 0.578125 -6.109375 L 1.390625 -6.109375 Z M 1.359375 0 L 0.609375 0 L 0.609375 -4.53125 L 1.359375 -4.53125 Z M 1.359375 0 "/></g></g></g><g fill="rgb(100%, 100%, 100%)" fill-opacity="1"><g transform="translate(390.166911, 77.729421)"><g><path d="M 1.359375 -6.109375 L 1.359375 0 L 0.609375 0 L 0.609375 -6.109375 Z M 1.359375 -6.109375 "/></g></g></g><g fill="rgb(100%, 100%, 100%)" fill-opacity="1"><g transform="translate(392.131322, 77.729421)"><g><path d="M 4.015625 -0.875 L 4.015625 -0.25 C 3.859375 -0.164062 3.625 -0.0859375 3.3125 -0.015625 C 3 0.046875 2.6875 0.078125 2.375 0.078125 C 1.65625 0.078125 1.144531 -0.101562 0.84375 -0.46875 C 0.539062 -0.84375 0.390625 -1.453125 0.390625 -2.296875 C 0.390625 -3.109375 0.546875 -3.695312 0.859375 -4.0625 C 1.179688 -4.4375 1.691406 -4.625 2.390625 -4.625 C 3.035156 -4.625 3.5 -4.476562 3.78125 -4.1875 C 4.0625 -3.894531 4.203125 -3.410156 4.203125 -2.734375 C 4.203125 -2.609375 4.195312 -2.492188 4.1875 -2.390625 C 4.1875 -2.285156 4.175781 -2.160156 4.15625 -2.015625 L 1.140625 -2.015625 C 1.148438 -1.515625 1.253906 -1.15625 1.453125 -0.9375 C 1.648438 -0.726562 1.992188 -0.625 2.484375 -0.625 C 2.753906 -0.625 3.03125 -0.644531 3.3125 -0.6875 C 3.601562 -0.738281 3.835938 -0.800781 4.015625 -0.875 Z M 3.515625 -2.84375 C 3.515625 -3.238281 3.425781 -3.519531 3.25 -3.6875 C 3.082031 -3.863281 2.796875 -3.953125 2.390625 -3.953125 C 1.929688 -3.953125 1.609375 -3.851562 1.421875 -3.65625 C 1.234375 -3.46875 1.140625 -3.128906 1.140625 -2.640625 L 3.515625 -2.640625 C 3.515625 -2.660156 3.515625 -2.691406 3.515625 -2.734375 C 3.515625 -2.773438 3.515625 -2.8125 3.515625 -2.84375 Z M 3.515625 -2.84375 "/></g></g></g><g fill="rgb(100%, 100%, 100%)" fill-opacity="1"><g transform="translate(396.702714, 77.729421)"><g/></g></g><g fill="rgb(100%, 100%, 100%)" fill-opacity="1"><g transform="translate(398.272408, 77.729421)"><g><path d="M 1.078125 -2.875 C 1.078125 -2.195312 1.132812 -1.554688 1.25 -0.953125 C 1.363281 -0.359375 1.523438 0.144531 1.734375 0.5625 L 1.21875 0.734375 C 0.957031 0.253906 0.753906 -0.289062 0.609375 -0.90625 C 0.472656 -1.53125 0.40625 -2.1875 0.40625 -2.875 C 0.40625 -3.59375 0.472656 -4.257812 0.609375 -4.875 C 0.742188 -5.488281 0.945312 -6.03125 1.21875 -6.5 L 1.734375 -6.328125 C 1.515625 -5.910156 1.347656 -5.398438 1.234375 -4.796875 C 1.128906 -4.203125 1.078125 -3.5625 1.078125 -2.875 Z M 1.078125 -2.875 "/></g></g></g><g fill="rgb(100%, 100%, 100%)" fill-opacity="1"><g transform="translate(400.2919, 77.729421)"><g><path d="M 3.265625 -0.703125 L 3.265625 -0.078125 C 3.171875 -0.0351562 3.039062 0 2.875 0.03125 C 2.707031 0.0625 2.546875 0.078125 2.390625 0.078125 C 1.835938 0.078125 1.441406 -0.0390625 1.203125 -0.28125 C 0.972656 -0.53125 0.859375 -0.957031 0.859375 -1.5625 L 0.859375 -3.890625 L 0.171875 -3.890625 L 0.171875 -4.53125 L 0.859375 -4.53125 L 0.984375 -5.640625 L 1.609375 -5.640625 L 1.609375 -4.53125 L 3.21875 -4.53125 L 3.21875 -3.890625 L 1.609375 -3.890625 L 1.609375 -1.59375 C 1.609375 -1.21875 1.675781 -0.960938 1.8125 -0.828125 C 1.945312 -0.691406 2.191406 -0.625 2.546875 -0.625 C 2.648438 -0.625 2.773438 -0.632812 2.921875 -0.65625 C 3.066406 -0.675781 3.179688 -0.691406 3.265625 -0.703125 Z M 3.265625 -0.703125 "/></g></g></g><g fill="rgb(100%, 100%, 100%)" fill-opacity="1"><g transform="translate(403.697498, 77.729421)"><g><path d="M 1.359375 0 L 0.609375 0 L 0.609375 -4.53125 L 1.296875 -4.53125 L 1.328125 -4.15625 L 1.375 -4.15625 C 1.613281 -4.289062 1.847656 -4.394531 2.078125 -4.46875 C 2.316406 -4.539062 2.554688 -4.578125 2.796875 -4.578125 C 2.890625 -4.578125 2.953125 -4.578125 2.984375 -4.578125 C 3.023438 -4.578125 3.050781 -4.570312 3.0625 -4.5625 L 3.0625 -3.84375 C 3.019531 -3.851562 2.96875 -3.859375 2.90625 -3.859375 C 2.84375 -3.867188 2.742188 -3.875 2.609375 -3.875 C 2.390625 -3.875 2.171875 -3.847656 1.953125 -3.796875 C 1.742188 -3.742188 1.546875 -3.664062 1.359375 -3.5625 Z M 1.359375 0 "/></g></g></g><g fill="rgb(100%, 100%, 100%)" fill-opacity="1"><g transform="translate(406.937864, 77.729421)"><g><path d="M 2.078125 0.078125 C 1.578125 0.078125 1.195312 -0.046875 0.9375 -0.296875 C 0.6875 -0.554688 0.5625 -0.9375 0.5625 -1.4375 L 0.5625 -4.53125 L 1.328125 -4.53125 L 1.328125 -1.53125 C 1.328125 -1.21875 1.40625 -0.988281 1.5625 -0.84375 C 1.71875 -0.707031 1.96875 -0.640625 2.3125 -0.640625 C 2.519531 -0.640625 2.726562 -0.664062 2.9375 -0.71875 C 3.15625 -0.769531 3.367188 -0.847656 3.578125 -0.953125 L 3.578125 -4.53125 L 4.34375 -4.53125 L 4.34375 0 L 3.640625 0 L 3.609375 -0.375 L 3.59375 -0.375 C 3.269531 -0.207031 2.992188 -0.0859375 2.765625 -0.015625 C 2.535156 0.046875 2.304688 0.078125 2.078125 0.078125 Z M 2.078125 0.078125 "/></g></g></g><g fill="rgb(100%, 100%, 100%)" fill-opacity="1"><g transform="translate(411.876443, 77.729421)"><g><path d="M 4.015625 -0.875 L 4.015625 -0.25 C 3.859375 -0.164062 3.625 -0.0859375 3.3125 -0.015625 C 3 0.046875 2.6875 0.078125 2.375 0.078125 C 1.65625 0.078125 1.144531 -0.101562 0.84375 -0.46875 C 0.539062 -0.84375 0.390625 -1.453125 0.390625 -2.296875 C 0.390625 -3.109375 0.546875 -3.695312 0.859375 -4.0625 C 1.179688 -4.4375 1.691406 -4.625 2.390625 -4.625 C 3.035156 -4.625 3.5 -4.476562 3.78125 -4.1875 C 4.0625 -3.894531 4.203125 -3.410156 4.203125 -2.734375 C 4.203125 -2.609375 4.195312 -2.492188 4.1875 -2.390625 C 4.1875 -2.285156 4.175781 -2.160156 4.15625 -2.015625 L 1.140625 -2.015625 C 1.148438 -1.515625 1.253906 -1.15625 1.453125 -0.9375 C 1.648438 -0.726562 1.992188 -0.625 2.484375 -0.625 C 2.753906 -0.625 3.03125 -0.644531 3.3125 -0.6875 C 3.601562 -0.738281 3.835938 -0.800781 4.015625 -0.875 Z M 3.515625 -2.84375 C 3.515625 -3.238281 3.425781 -3.519531 3.25 -3.6875 C 3.082031 -3.863281 2.796875 -3.953125 2.390625 -3.953125 C 1.929688 -3.953125 1.609375 -3.851562 1.421875 -3.65625 C 1.234375 -3.46875 1.140625 -3.128906 1.140625 -2.640625 L 3.515625 -2.640625 C 3.515625 -2.660156 3.515625 -2.691406 3.515625 -2.734375 C 3.515625 -2.773438 3.515625 -2.8125 3.515625 -2.84375 Z M 3.515625 -2.84375 "/></g></g></g><g fill="rgb(100%, 100%, 100%)" fill-opacity="1"><g transform="translate(416.447834, 77.729421)"><g><path d="M 0.953125 -2.875 C 0.953125 -3.5625 0.894531 -4.203125 0.78125 -4.796875 C 0.664062 -5.398438 0.503906 -5.910156 0.296875 -6.328125 L 0.796875 -6.5 C 1.066406 -6.03125 1.269531 -5.488281 1.40625 -4.875 C 1.539062 -4.257812 1.609375 -3.59375 1.609375 -2.875 C 1.609375 -2.1875 1.535156 -1.53125 1.390625 -0.90625 C 1.253906 -0.289062 1.054688 0.253906 0.796875 0.734375 L 0.28125 0.5625 C 0.5 0.144531 0.664062 -0.359375 0.78125 -0.953125 C 0.894531 -1.554688 0.953125 -2.195312 0.953125 -2.875 Z M 0.953125 -2.875 "/></g></g></g><g fill="rgb(100%, 100%, 100%)" fill-opacity="1"><g transform="translate(418.467326, 77.729421)"><g/></g></g><g fill="rgb(100%, 100%, 100%)" fill-opacity="1"><g transform="translate(420.03702, 77.729421)"><g><path d="M 0.859375 -2.921875 L 0.859375 -2.890625 C 1.097656 -2.847656 1.285156 -2.695312 1.421875 -2.4375 C 1.566406 -2.175781 1.640625 -1.84375 1.640625 -1.4375 L 1.640625 -0.453125 C 1.640625 -0.191406 1.703125 -0.00390625 1.828125 0.109375 C 1.960938 0.222656 2.179688 0.28125 2.484375 0.28125 L 2.484375 0.84375 C 2.003906 0.84375 1.640625 0.734375 1.390625 0.515625 C 1.140625 0.296875 1.015625 -0.0234375 1.015625 -0.453125 L 1.015625 -1.4375 C 1.015625 -1.8125 0.9375 -2.101562 0.78125 -2.3125 C 0.632812 -2.53125 0.453125 -2.640625 0.234375 -2.640625 L 0.109375 -2.640625 L 0.109375 -3.15625 L 0.234375 -3.15625 C 0.453125 -3.15625 0.632812 -3.257812 0.78125 -3.46875 C 0.9375 -3.6875 1.015625 -3.976562 1.015625 -4.34375 L 1.015625 -5.296875 C 1.015625 -5.722656 1.140625 -6.046875 1.390625 -6.265625 C 1.640625 -6.484375 2.003906 -6.59375 2.484375 -6.59375 L 2.484375 -6.03125 C 2.179688 -6.03125 1.960938 -5.972656 1.828125 -5.859375 C 1.703125 -5.753906 1.640625 -5.566406 1.640625 -5.296875 L 1.640625 -4.34375 C 1.640625 -3.9375 1.566406 -3.609375 1.421875 -3.359375 C 1.285156 -3.109375 1.097656 -2.960938 0.859375 -2.921875 Z M 0.859375 -2.921875 "/></g></g></g><g fill="rgb(100%, 100%, 100%)" fill-opacity="1"><g transform="translate(375.286932, 92.091884)"><g/></g></g><g fill="rgb(100%, 100%, 100%)" fill-opacity="1"><g transform="translate(376.856627, 92.091884)"><g/></g></g><g fill="rgb(100%, 100%, 100%)" fill-opacity="1"><g transform="translate(378.426321, 92.091884)"><g/></g></g><g fill="rgb(100%, 100%, 100%)" fill-opacity="1"><g transform="translate(379.996015, 92.091884)"><g/></g></g><g fill="rgb(100%, 100%, 100%)" fill-opacity="1"><g transform="translate(381.565709, 92.091884)"><g/></g></g><g fill="rgb(100%, 100%, 100%)" fill-opacity="1"><g transform="translate(383.135404, 92.091884)"><g/></g></g><g fill="rgb(100%, 100%, 100%)" fill-opacity="1"><g transform="translate(384.705098, 92.091884)"><g/></g></g><g fill="rgb(100%, 100%, 100%)" fill-opacity="1"><g transform="translate(386.274792, 92.091884)"><g/></g></g><g fill="rgb(100%, 100%, 100%)" fill-opacity="1"><g transform="translate(387.844486, 92.091884)"><g/></g></g><g fill="rgb(100%, 100%, 100%)" fill-opacity="1"><g transform="translate(389.41418, 92.091884)"><g/></g></g><g fill="rgb(100%, 100%, 100%)" fill-opacity="1"><g transform="translate(390.983875, 92.091884)"><g/></g></g><g fill="rgb(100%, 100%, 100%)" fill-opacity="1"><g transform="translate(392.553569, 92.091884)"><g/></g></g><g fill="rgb(100%, 100%, 100%)" fill-opacity="1"><g transform="translate(394.123263, 92.091884)"><g/></g></g><g fill="rgb(100%, 100%, 100%)" fill-opacity="1"><g transform="translate(395.692957, 92.091884)"><g/></g></g><g fill="rgb(100%, 100%, 100%)" fill-opacity="1"><g transform="translate(397.262652, 92.091884)"><g/></g></g><g fill="rgb(100%, 100%, 100%)" fill-opacity="1"><g transform="translate(398.832346, 92.091884)"><g/></g></g><g fill="rgb(100%, 100%, 100%)" fill-opacity="1"><g transform="translate(400.40204, 92.091884)"><g/></g></g><g fill="rgb(100%, 100%, 100%)" fill-opacity="1"><g transform="translate(401.971734, 92.091884)"><g/></g></g><g fill="rgb(100%, 100%, 100%)" fill-opacity="1"><g transform="translate(403.541429, 92.091884)"><g/></g></g><g fill="rgb(100%, 100%, 100%)" fill-opacity="1"><g transform="translate(405.111123, 92.091884)"><g/></g></g><g fill="rgb(100%, 100%, 100%)" fill-opacity="1"><g transform="translate(406.672761, 92.091884)"><g><path d="M 1.390625 -5.328125 L 0.578125 -5.328125 L 0.578125 -6.109375 L 1.390625 -6.109375 Z M 1.359375 0 L 0.609375 0 L 0.609375 -4.53125 L 1.359375 -4.53125 Z M 1.359375 0 "/></g></g></g><g fill="rgb(100%, 100%, 100%)" fill-opacity="1"><g transform="translate(408.637172, 92.091884)"><g><path d="M 0.875 -3.890625 L 0.1875 -3.890625 L 0.1875 -4.53125 L 0.875 -4.53125 L 0.875 -4.65625 C 0.875 -5.175781 1 -5.5625 1.25 -5.8125 C 1.507812 -6.070312 1.90625 -6.203125 2.4375 -6.203125 C 2.570312 -6.203125 2.707031 -6.195312 2.84375 -6.1875 C 2.976562 -6.175781 3.101562 -6.15625 3.21875 -6.125 L 3.21875 -5.484375 C 3.144531 -5.503906 3.046875 -5.519531 2.921875 -5.53125 C 2.796875 -5.539062 2.671875 -5.546875 2.546875 -5.546875 C 2.203125 -5.546875 1.960938 -5.476562 1.828125 -5.34375 C 1.691406 -5.21875 1.625 -4.992188 1.625 -4.671875 L 1.625 -4.53125 L 3.09375 -4.53125 L 3.09375 -3.890625 L 1.625 -3.890625 L 1.625 0 L 0.875 0 Z M 0.875 -3.890625 "/></g></g></g><g fill="rgb(100%, 100%, 100%)" fill-opacity="1"><g transform="translate(411.859182, 92.091884)"><g/></g></g><g fill="rgb(100%, 100%, 100%)" fill-opacity="1"><g transform="translate(413.428876, 92.091884)"><g><path d="M 1.078125 -2.875 C 1.078125 -2.195312 1.132812 -1.554688 1.25 -0.953125 C 1.363281 -0.359375 1.523438 0.144531 1.734375 0.5625 L 1.21875 0.734375 C 0.957031 0.253906 0.753906 -0.289062 0.609375 -0.90625 C 0.472656 -1.53125 0.40625 -2.1875 0.40625 -2.875 C 0.40625 -3.59375 0.472656 -4.257812 0.609375 -4.875 C 0.742188 -5.488281 0.945312 -6.03125 1.21875 -6.5 L 1.734375 -6.328125 C 1.515625 -5.910156 1.347656 -5.398438 1.234375 -4.796875 C 1.128906 -4.203125 1.078125 -3.5625 1.078125 -2.875 Z M 1.078125 -2.875 "/></g></g></g><g fill="rgb(100%, 100%, 100%)" fill-opacity="1"><g transform="translate(415.448368, 92.091884)"><g><path d="M 3.78125 -0.90625 L 3.78125 -0.265625 C 3.625 -0.171875 3.394531 -0.0859375 3.09375 -0.015625 C 2.789062 0.046875 2.472656 0.078125 2.140625 0.078125 C 1.492188 0.078125 1.039062 -0.09375 0.78125 -0.4375 C 0.519531 -0.789062 0.390625 -1.40625 0.390625 -2.28125 C 0.390625 -3.132812 0.554688 -3.738281 0.890625 -4.09375 C 1.234375 -4.445312 1.8125 -4.625 2.625 -4.625 C 2.800781 -4.625 2.957031 -4.617188 3.09375 -4.609375 C 3.238281 -4.609375 3.425781 -4.59375 3.65625 -4.5625 L 3.65625 -3.890625 C 3.425781 -3.921875 3.238281 -3.9375 3.09375 -3.9375 C 2.957031 -3.945312 2.800781 -3.953125 2.625 -3.953125 C 2.039062 -3.953125 1.644531 -3.832031 1.4375 -3.59375 C 1.238281 -3.363281 1.140625 -2.925781 1.140625 -2.28125 C 1.140625 -1.632812 1.21875 -1.195312 1.375 -0.96875 C 1.539062 -0.738281 1.851562 -0.625 2.3125 -0.625 C 2.5625 -0.625 2.816406 -0.648438 3.078125 -0.703125 C 3.347656 -0.753906 3.582031 -0.820312 3.78125 -0.90625 Z M 3.78125 -0.90625 "/></g></g></g><g fill="rgb(100%, 100%, 100%)" fill-opacity="1"><g transform="translate(419.478178, 92.091884)"><g><path d="M 4.59375 -2.28125 C 4.59375 -1.425781 4.429688 -0.816406 4.109375 -0.453125 C 3.796875 -0.0976562 3.257812 0.078125 2.5 0.078125 C 1.707031 0.078125 1.15625 -0.09375 0.84375 -0.4375 C 0.539062 -0.78125 0.390625 -1.394531 0.390625 -2.28125 C 0.390625 -3.144531 0.546875 -3.75 0.859375 -4.09375 C 1.179688 -4.445312 1.726562 -4.625 2.5 -4.625 C 3.289062 -4.625 3.835938 -4.453125 4.140625 -4.109375 C 4.441406 -3.765625 4.59375 -3.15625 4.59375 -2.28125 Z M 1.140625 -2.28125 C 1.140625 -1.613281 1.226562 -1.171875 1.40625 -0.953125 C 1.59375 -0.734375 1.957031 -0.625 2.5 -0.625 C 3.03125 -0.625 3.382812 -0.738281 3.5625 -0.96875 C 3.75 -1.195312 3.84375 -1.632812 3.84375 -2.28125 C 3.84375 -2.957031 3.753906 -3.40625 3.578125 -3.625 C 3.398438 -3.84375 3.039062 -3.953125 2.5 -3.953125 C 1.96875 -3.953125 1.609375 -3.835938 1.421875 -3.609375 C 1.234375 -3.378906 1.140625 -2.9375 1.140625 -2.28125 Z M 1.140625 -2.28125 "/></g></g></g><g fill="rgb(100%, 100%, 100%)" fill-opacity="1"><g transform="translate(424.462654, 92.091884)"><g><path d="M 0.875 -3.890625 L 0.1875 -3.890625 L 0.1875 -4.53125 L 0.875 -4.53125 L 0.875 -4.65625 C 0.875 -5.175781 1 -5.5625 1.25 -5.8125 C 1.507812 -6.070312 1.90625 -6.203125 2.4375 -6.203125 C 2.570312 -6.203125 2.707031 -6.195312 2.84375 -6.1875 C 2.976562 -6.175781 3.101562 -6.15625 3.21875 -6.125 L 3.21875 -5.484375 C 3.144531 -5.503906 3.046875 -5.519531 2.921875 -5.53125 C 2.796875 -5.539062 2.671875 -5.546875 2.546875 -5.546875 C 2.203125 -5.546875 1.960938 -5.476562 1.828125 -5.34375 C 1.691406 -5.21875 1.625 -4.992188 1.625 -4.671875 L 1.625 -4.53125 L 3.09375 -4.53125 L 3.09375 -3.890625 L 1.625 -3.890625 L 1.625 0 L 0.875 0 Z M 0.875 -3.890625 "/></g></g></g><g fill="rgb(100%, 100%, 100%)" fill-opacity="1"><g transform="translate(427.684663, 92.091884)"><g><path d="M 0.875 -3.890625 L 0.1875 -3.890625 L 0.1875 -4.53125 L 0.875 -4.53125 L 0.875 -4.65625 C 0.875 -5.175781 1 -5.5625 1.25 -5.8125 C 1.507812 -6.070312 1.90625 -6.203125 2.4375 -6.203125 C 2.570312 -6.203125 2.707031 -6.195312 2.84375 -6.1875 C 2.976562 -6.175781 3.101562 -6.15625 3.21875 -6.125 L 3.21875 -5.484375 C 3.144531 -5.503906 3.046875 -5.519531 2.921875 -5.53125 C 2.796875 -5.539062 2.671875 -5.546875 2.546875 -5.546875 C 2.203125 -5.546875 1.960938 -5.476562 1.828125 -5.34375 C 1.691406 -5.21875 1.625 -4.992188 1.625 -4.671875 L 1.625 -4.53125 L 3.09375 -4.53125 L 3.09375 -3.890625 L 1.625 -3.890625 L 1.625 0 L 0.875 0 Z M 0.875 -3.890625 "/></g></g></g><g fill="rgb(100%, 100%, 100%)" fill-opacity="1"><g transform="translate(430.906673, 92.091884)"><g><path d="M 4.015625 -0.875 L 4.015625 -0.25 C 3.859375 -0.164062 3.625 -0.0859375 3.3125 -0.015625 C 3 0.046875 2.6875 0.078125 2.375 0.078125 C 1.65625 0.078125 1.144531 -0.101562 0.84375 -0.46875 C 0.539062 -0.84375 0.390625 -1.453125 0.390625 -2.296875 C 0.390625 -3.109375 0.546875 -3.695312 0.859375 -4.0625 C 1.179688 -4.4375 1.691406 -4.625 2.390625 -4.625 C 3.035156 -4.625 3.5 -4.476562 3.78125 -4.1875 C 4.0625 -3.894531 4.203125 -3.410156 4.203125 -2.734375 C 4.203125 -2.609375 4.195312 -2.492188 4.1875 -2.390625 C 4.1875 -2.285156 4.175781 -2.160156 4.15625 -2.015625 L 1.140625 -2.015625 C 1.148438 -1.515625 1.253906 -1.15625 1.453125 -0.9375 C 1.648438 -0.726562 1.992188 -0.625 2.484375 -0.625 C 2.753906 -0.625 3.03125 -0.644531 3.3125 -0.6875 C 3.601562 -0.738281 3.835938 -0.800781 4.015625 -0.875 Z M 3.515625 -2.84375 C 3.515625 -3.238281 3.425781 -3.519531 3.25 -3.6875 C 3.082031 -3.863281 2.796875 -3.953125 2.390625 -3.953125 C 1.929688 -3.953125 1.609375 -3.851562 1.421875 -3.65625 C 1.234375 -3.46875 1.140625 -3.128906 1.140625 -2.640625 L 3.515625 -2.640625 C 3.515625 -2.660156 3.515625 -2.691406 3.515625 -2.734375 C 3.515625 -2.773438 3.515625 -2.8125 3.515625 -2.84375 Z M 3.515625 -2.84375 "/></g></g></g><g fill="rgb(100%, 100%, 100%)" fill-opacity="1"><g transform="translate(435.478064, 92.091884)"><g><path d="M 4.015625 -0.875 L 4.015625 -0.25 C 3.859375 -0.164062 3.625 -0.0859375 3.3125 -0.015625 C 3 0.046875 2.6875 0.078125 2.375 0.078125 C 1.65625 0.078125 1.144531 -0.101562 0.84375 -0.46875 C 0.539062 -0.84375 0.390625 -1.453125 0.390625 -2.296875 C 0.390625 -3.109375 0.546875 -3.695312 0.859375 -4.0625 C 1.179688 -4.4375 1.691406 -4.625 2.390625 -4.625 C 3.035156 -4.625 3.5 -4.476562 3.78125 -4.1875 C 4.0625 -3.894531 4.203125 -3.410156 4.203125 -2.734375 C 4.203125 -2.609375 4.195312 -2.492188 4.1875 -2.390625 C 4.1875 -2.285156 4.175781 -2.160156 4.15625 -2.015625 L 1.140625 -2.015625 C 1.148438 -1.515625 1.253906 -1.15625 1.453125 -0.9375 C 1.648438 -0.726562 1.992188 -0.625 2.484375 -0.625 C 2.753906 -0.625 3.03125 -0.644531 3.3125 -0.6875 C 3.601562 -0.738281 3.835938 -0.800781 4.015625 -0.875 Z M 3.515625 -2.84375 C 3.515625 -3.238281 3.425781 -3.519531 3.25 -3.6875 C 3.082031 -3.863281 2.796875 -3.953125 2.390625 -3.953125 C 1.929688 -3.953125 1.609375 -3.851562 1.421875 -3.65625 C 1.234375 -3.46875 1.140625 -3.128906 1.140625 -2.640625 L 3.515625 -2.640625 C 3.515625 -2.660156 3.515625 -2.691406 3.515625 -2.734375 C 3.515625 -2.773438 3.515625 -2.8125 3.515625 -2.84375 Z M 3.515625 -2.84375 "/></g></g></g><g fill="rgb(100%, 100%, 100%)" fill-opacity="1"><g transform="translate(440.049456, 92.091884)"><g/></g></g><g fill="rgb(100%, 100%, 100%)" fill-opacity="1"><g transform="translate(441.61915, 92.091884)"><g><path d="M 4.25 -2.4375 L 0.34375 -0.75 L 0.34375 -1.5 L 3.6875 -2.875 L 0.34375 -4.25 L 0.34375 -4.984375 L 4.25 -3.296875 Z M 4.25 -2.4375 "/></g></g></g><g fill="rgb(100%, 100%, 100%)" fill-opacity="1"><g transform="translate(446.208909, 92.091884)"><g/></g></g><g fill="rgb(100%, 100%, 100%)" fill-opacity="1"><g transform="translate(447.778603, 92.091884)"><g><path d="M 4.796875 -2.890625 C 4.796875 -1.796875 4.632812 -1.023438 4.3125 -0.578125 C 4 -0.140625 3.4375 0.078125 2.625 0.078125 C 2.101562 0.078125 1.703125 0.015625 1.421875 -0.109375 C 1.140625 -0.242188 0.921875 -0.457031 0.765625 -0.75 C 0.660156 -0.96875 0.582031 -1.25 0.53125 -1.59375 C 0.476562 -1.9375 0.453125 -2.367188 0.453125 -2.890625 C 0.453125 -3.984375 0.609375 -4.75 0.921875 -5.1875 C 1.242188 -5.632812 1.8125 -5.859375 2.625 -5.859375 C 3.144531 -5.859375 3.546875 -5.789062 3.828125 -5.65625 C 4.117188 -5.53125 4.335938 -5.320312 4.484375 -5.03125 C 4.585938 -4.800781 4.664062 -4.515625 4.71875 -4.171875 C 4.769531 -3.835938 4.796875 -3.410156 4.796875 -2.890625 Z M 3.84375 -4.421875 C 3.769531 -4.691406 3.640625 -4.878906 3.453125 -4.984375 C 3.265625 -5.085938 2.988281 -5.140625 2.625 -5.140625 C 2.082031 -5.140625 1.710938 -4.984375 1.515625 -4.671875 C 1.328125 -4.359375 1.234375 -3.765625 1.234375 -2.890625 C 1.234375 -1.992188 1.320312 -1.394531 1.5 -1.09375 C 1.6875 -0.800781 2.0625 -0.65625 2.625 -0.65625 C 3.164062 -0.65625 3.53125 -0.8125 3.71875 -1.125 C 3.90625 -1.4375 4 -2.023438 4 -2.890625 C 4 -3.265625 3.988281 -3.570312 3.96875 -3.8125 C 3.945312 -4.0625 3.90625 -4.265625 3.84375 -4.421875 Z M 3.84375 -4.421875 "/></g></g></g><g fill="rgb(100%, 100%, 100%)" fill-opacity="1"><g transform="translate(453.020104, 92.091884)"><g><path d="M 0.953125 -2.875 C 0.953125 -3.5625 0.894531 -4.203125 0.78125 -4.796875 C 0.664062 -5.398438 0.503906 -5.910156 0.296875 -6.328125 L 0.796875 -6.5 C 1.066406 -6.03125 1.269531 -5.488281 1.40625 -4.875 C 1.539062 -4.257812 1.609375 -3.59375 1.609375 -2.875 C 1.609375 -2.1875 1.535156 -1.53125 1.390625 -0.90625 C 1.253906 -0.289062 1.054688 0.253906 0.796875 0.734375 L 0.28125 0.5625 C 0.5 0.144531 0.664062 -0.359375 0.78125 -0.953125 C 0.894531 -1.554688 0.953125 -2.195312 0.953125 -2.875 Z M 0.953125 -2.875 "/></g></g></g><g fill="rgb(100%, 100%, 100%)" fill-opacity="1"><g transform="translate(375.286932, 106.454347)"><g/></g></g><g fill="rgb(100%, 100%, 100%)" fill-opacity="1"><g transform="translate(376.856627, 106.454347)"><g/></g></g><g fill="rgb(100%, 100%, 100%)" fill-opacity="1"><g transform="translate(378.426321, 106.454347)"><g/></g></g><g fill="rgb(100%, 100%, 100%)" fill-opacity="1"><g transform="translate(379.996015, 106.454347)"><g/></g></g><g fill="rgb(100%, 100%, 100%)" fill-opacity="1"><g transform="translate(381.565709, 106.454347)"><g/></g></g><g fill="rgb(100%, 100%, 100%)" fill-opacity="1"><g transform="translate(383.135404, 106.454347)"><g/></g></g><g fill="rgb(100%, 100%, 100%)" fill-opacity="1"><g transform="translate(384.705098, 106.454347)"><g/></g></g><g fill="rgb(100%, 100%, 100%)" fill-opacity="1"><g transform="translate(386.274792, 106.454347)"><g/></g></g><g fill="rgb(100%, 100%, 100%)" fill-opacity="1"><g transform="translate(387.844486, 106.454347)"><g/></g></g><g fill="rgb(100%, 100%, 100%)" fill-opacity="1"><g transform="translate(389.41418, 106.454347)"><g/></g></g><g fill="rgb(100%, 100%, 100%)" fill-opacity="1"><g transform="translate(390.983875, 106.454347)"><g/></g></g><g fill="rgb(100%, 100%, 100%)" fill-opacity="1"><g transform="translate(392.553569, 106.454347)"><g/></g></g><g fill="rgb(100%, 100%, 100%)" fill-opacity="1"><g transform="translate(394.123263, 106.454347)"><g/></g></g><g fill="rgb(100%, 100%, 100%)" fill-opacity="1"><g transform="translate(395.692957, 106.454347)"><g/></g></g><g fill="rgb(100%, 100%, 100%)" fill-opacity="1"><g transform="translate(397.262652, 106.454347)"><g/></g></g><g fill="rgb(100%, 100%, 100%)" fill-opacity="1"><g transform="translate(398.832346, 106.454347)"><g/></g></g><g fill="rgb(100%, 100%, 100%)" fill-opacity="1"><g transform="translate(400.40204, 106.454347)"><g/></g></g><g fill="rgb(100%, 100%, 100%)" fill-opacity="1"><g transform="translate(401.971734, 106.454347)"><g/></g></g><g fill="rgb(100%, 100%, 100%)" fill-opacity="1"><g transform="translate(403.541429, 106.454347)"><g/></g></g><g fill="rgb(100%, 100%, 100%)" fill-opacity="1"><g transform="translate(405.111123, 106.454347)"><g/></g></g><g fill="rgb(100%, 100%, 100%)" fill-opacity="1"><g transform="translate(406.680817, 106.454347)"><g/></g></g><g fill="rgb(100%, 100%, 100%)" fill-opacity="1"><g transform="translate(408.250511, 106.454347)"><g/></g></g><g fill="rgb(100%, 100%, 100%)" fill-opacity="1"><g transform="translate(409.820205, 106.454347)"><g/></g></g><g fill="rgb(100%, 100%, 100%)" fill-opacity="1"><g transform="translate(411.3899, 106.454347)"><g/></g></g><g fill="rgb(100%, 100%, 100%)" fill-opacity="1"><g transform="translate(412.956339, 106.454347)"><g><path d="M 3.78125 -0.90625 L 3.78125 -0.265625 C 3.625 -0.171875 3.394531 -0.0859375 3.09375 -0.015625 C 2.789062 0.046875 2.472656 0.078125 2.140625 0.078125 C 1.492188 0.078125 1.039062 -0.09375 0.78125 -0.4375 C 0.519531 -0.789062 0.390625 -1.40625 0.390625 -2.28125 C 0.390625 -3.132812 0.554688 -3.738281 0.890625 -4.09375 C 1.234375 -4.445312 1.8125 -4.625 2.625 -4.625 C 2.800781 -4.625 2.957031 -4.617188 3.09375 -4.609375 C 3.238281 -4.609375 3.425781 -4.59375 3.65625 -4.5625 L 3.65625 -3.890625 C 3.425781 -3.921875 3.238281 -3.9375 3.09375 -3.9375 C 2.957031 -3.945312 2.800781 -3.953125 2.625 -3.953125 C 2.039062 -3.953125 1.644531 -3.832031 1.4375 -3.59375 C 1.238281 -3.363281 1.140625 -2.925781 1.140625 -2.28125 C 1.140625 -1.632812 1.21875 -1.195312 1.375 -0.96875 C 1.539062 -0.738281 1.851562 -0.625 2.3125 -0.625 C 2.5625 -0.625 2.816406 -0.648438 3.078125 -0.703125 C 3.347656 -0.753906 3.582031 -0.820312 3.78125 -0.90625 Z M 3.78125 -0.90625 "/></g></g></g><g fill="rgb(100%, 100%, 100%)" fill-opacity="1"><g transform="translate(416.986149, 106.454347)"><g><path d="M 4.59375 -2.28125 C 4.59375 -1.425781 4.429688 -0.816406 4.109375 -0.453125 C 3.796875 -0.0976562 3.257812 0.078125 2.5 0.078125 C 1.707031 0.078125 1.15625 -0.09375 0.84375 -0.4375 C 0.539062 -0.78125 0.390625 -1.394531 0.390625 -2.28125 C 0.390625 -3.144531 0.546875 -3.75 0.859375 -4.09375 C 1.179688 -4.445312 1.726562 -4.625 2.5 -4.625 C 3.289062 -4.625 3.835938 -4.453125 4.140625 -4.109375 C 4.441406 -3.765625 4.59375 -3.15625 4.59375 -2.28125 Z M 1.140625 -2.28125 C 1.140625 -1.613281 1.226562 -1.171875 1.40625 -0.953125 C 1.59375 -0.734375 1.957031 -0.625 2.5 -0.625 C 3.03125 -0.625 3.382812 -0.738281 3.5625 -0.96875 C 3.75 -1.195312 3.84375 -1.632812 3.84375 -2.28125 C 3.84375 -2.957031 3.753906 -3.40625 3.578125 -3.625 C 3.398438 -3.84375 3.039062 -3.953125 2.5 -3.953125 C 1.96875 -3.953125 1.609375 -3.835938 1.421875 -3.609375 C 1.234375 -3.378906 1.140625 -2.9375 1.140625 -2.28125 Z M 1.140625 -2.28125 "/></g></g></g><g fill="rgb(100%, 100%, 100%)" fill-opacity="1"><g transform="translate(421.970625, 106.454347)"><g><path d="M 3.609375 -6.109375 L 4.359375 -6.109375 L 4.359375 0 L 3.71875 0 L 3.65625 -0.421875 L 3.640625 -0.421875 C 3.460938 -0.253906 3.242188 -0.128906 2.984375 -0.046875 C 2.734375 0.0351562 2.441406 0.078125 2.109375 0.078125 C 1.492188 0.078125 1.050781 -0.101562 0.78125 -0.46875 C 0.519531 -0.84375 0.390625 -1.445312 0.390625 -2.28125 C 0.390625 -3.113281 0.550781 -3.710938 0.875 -4.078125 C 1.195312 -4.441406 1.738281 -4.625 2.5 -4.625 C 2.71875 -4.625 2.914062 -4.609375 3.09375 -4.578125 C 3.28125 -4.546875 3.453125 -4.5 3.609375 -4.4375 Z M 2.59375 -3.953125 C 2.019531 -3.953125 1.632812 -3.832031 1.4375 -3.59375 C 1.238281 -3.351562 1.140625 -2.914062 1.140625 -2.28125 C 1.140625 -1.65625 1.222656 -1.222656 1.390625 -0.984375 C 1.566406 -0.742188 1.894531 -0.625 2.375 -0.625 C 2.601562 -0.625 2.820312 -0.648438 3.03125 -0.703125 C 3.238281 -0.765625 3.429688 -0.851562 3.609375 -0.96875 L 3.609375 -3.765625 C 3.460938 -3.828125 3.304688 -3.875 3.140625 -3.90625 C 2.972656 -3.9375 2.789062 -3.953125 2.59375 -3.953125 Z M 2.59375 -3.953125 "/></g></g></g><g fill="rgb(100%, 100%, 100%)" fill-opacity="1"><g transform="translate(426.936743, 106.454347)"><g><path d="M 4.015625 -0.875 L 4.015625 -0.25 C 3.859375 -0.164062 3.625 -0.0859375 3.3125 -0.015625 C 3 0.046875 2.6875 0.078125 2.375 0.078125 C 1.65625 0.078125 1.144531 -0.101562 0.84375 -0.46875 C 0.539062 -0.84375 0.390625 -1.453125 0.390625 -2.296875 C 0.390625 -3.109375 0.546875 -3.695312 0.859375 -4.0625 C 1.179688 -4.4375 1.691406 -4.625 2.390625 -4.625 C 3.035156 -4.625 3.5 -4.476562 3.78125 -4.1875 C 4.0625 -3.894531 4.203125 -3.410156 4.203125 -2.734375 C 4.203125 -2.609375 4.195312 -2.492188 4.1875 -2.390625 C 4.1875 -2.285156 4.175781 -2.160156 4.15625 -2.015625 L 1.140625 -2.015625 C 1.148438 -1.515625 1.253906 -1.15625 1.453125 -0.9375 C 1.648438 -0.726562 1.992188 -0.625 2.484375 -0.625 C 2.753906 -0.625 3.03125 -0.644531 3.3125 -0.6875 C 3.601562 -0.738281 3.835938 -0.800781 4.015625 -0.875 Z M 3.515625 -2.84375 C 3.515625 -3.238281 3.425781 -3.519531 3.25 -3.6875 C 3.082031 -3.863281 2.796875 -3.953125 2.390625 -3.953125 C 1.929688 -3.953125 1.609375 -3.851562 1.421875 -3.65625 C 1.234375 -3.46875 1.140625 -3.128906 1.140625 -2.640625 L 3.515625 -2.640625 C 3.515625 -2.660156 3.515625 -2.691406 3.515625 -2.734375 C 3.515625 -2.773438 3.515625 -2.8125 3.515625 -2.84375 Z M 3.515625 -2.84375 "/></g></g></g><g fill="rgb(100%, 100%, 100%)" fill-opacity="1"><g transform="translate(431.508135, 106.454347)"><g><path d="M 1.078125 -2.875 C 1.078125 -2.195312 1.132812 -1.554688 1.25 -0.953125 C 1.363281 -0.359375 1.523438 0.144531 1.734375 0.5625 L 1.21875 0.734375 C 0.957031 0.253906 0.753906 -0.289062 0.609375 -0.90625 C 0.472656 -1.53125 0.40625 -2.1875 0.40625 -2.875 C 0.40625 -3.59375 0.472656 -4.257812 0.609375 -4.875 C 0.742188 -5.488281 0.945312 -6.03125 1.21875 -6.5 L 1.734375 -6.328125 C 1.515625 -5.910156 1.347656 -5.398438 1.234375 -4.796875 C 1.128906 -4.203125 1.078125 -3.5625 1.078125 -2.875 Z M 1.078125 -2.875 "/></g></g></g><g fill="rgb(100%, 100%, 100%)" fill-opacity="1"><g transform="translate(433.527627, 106.454347)"><g><path d="M 0.953125 -2.875 C 0.953125 -3.5625 0.894531 -4.203125 0.78125 -4.796875 C 0.664062 -5.398438 0.503906 -5.910156 0.296875 -6.328125 L 0.796875 -6.5 C 1.066406 -6.03125 1.269531 -5.488281 1.40625 -4.875 C 1.539062 -4.257812 1.609375 -3.59375 1.609375 -2.875 C 1.609375 -2.1875 1.535156 -1.53125 1.390625 -0.90625 C 1.253906 -0.289062 1.054688 0.253906 0.796875 0.734375 L 0.28125 0.5625 C 0.5 0.144531 0.664062 -0.359375 0.78125 -0.953125 C 0.894531 -1.554688 0.953125 -2.195312 0.953125 -2.875 Z M 0.953125 -2.875 "/></g></g></g><g fill="rgb(100%, 100%, 100%)" fill-opacity="1"><g transform="translate(435.547119, 106.454347)"><g><path d="M 1.171875 -0.796875 L 0.953125 0.640625 C 0.929688 0.722656 0.890625 0.789062 0.828125 0.84375 C 0.773438 0.894531 0.703125 0.921875 0.609375 0.921875 L 0.375 0.921875 L 0.421875 -0.796875 Z M 1.171875 -4 L 0.421875 -4 L 0.421875 -4.765625 L 1.171875 -4.765625 Z M 1.171875 -4 "/></g></g></g><g fill="rgb(100%, 100%, 100%)" fill-opacity="1"><g transform="translate(375.286932, 120.81681)"><g/></g></g><g fill="rgb(100%, 100%, 100%)" fill-opacity="1"><g transform="translate(376.856627, 120.81681)"><g/></g></g><g fill="rgb(100%, 100%, 100%)" fill-opacity="1"><g transform="translate(378.426321, 120.81681)"><g/></g></g><g fill="rgb(100%, 100%, 100%)" fill-opacity="1"><g transform="translate(379.996015, 120.81681)"><g/></g></g><g fill="rgb(100%, 100%, 100%)" fill-opacity="1"><g transform="translate(381.565709, 120.81681)"><g/></g></g><g fill="rgb(100%, 100%, 100%)" fill-opacity="1"><g transform="translate(383.135404, 120.81681)"><g/></g></g><g fill="rgb(100%, 100%, 100%)" fill-opacity="1"><g transform="translate(384.705098, 120.81681)"><g/></g></g><g fill="rgb(100%, 100%, 100%)" fill-opacity="1"><g transform="translate(386.274792, 120.81681)"><g/></g></g><g fill="rgb(100%, 100%, 100%)" fill-opacity="1"><g transform="translate(387.844486, 120.81681)"><g/></g></g><g fill="rgb(100%, 100%, 100%)" fill-opacity="1"><g transform="translate(389.41418, 120.81681)"><g/></g></g><g fill="rgb(100%, 100%, 100%)" fill-opacity="1"><g transform="translate(390.983875, 120.81681)"><g/></g></g><g fill="rgb(100%, 100%, 100%)" fill-opacity="1"><g transform="translate(392.553569, 120.81681)"><g/></g></g><g fill="rgb(100%, 100%, 100%)" fill-opacity="1"><g transform="translate(394.123263, 120.81681)"><g/></g></g><g fill="rgb(100%, 100%, 100%)" fill-opacity="1"><g transform="translate(395.692957, 120.81681)"><g/></g></g><g fill="rgb(100%, 100%, 100%)" fill-opacity="1"><g transform="translate(397.262652, 120.81681)"><g/></g></g><g fill="rgb(100%, 100%, 100%)" fill-opacity="1"><g transform="translate(398.832346, 120.81681)"><g/></g></g><g fill="rgb(100%, 100%, 100%)" fill-opacity="1"><g transform="translate(400.40204, 120.81681)"><g/></g></g><g fill="rgb(100%, 100%, 100%)" fill-opacity="1"><g transform="translate(401.971734, 120.81681)"><g/></g></g><g fill="rgb(100%, 100%, 100%)" fill-opacity="1"><g transform="translate(403.541429, 120.81681)"><g/></g></g><g fill="rgb(100%, 100%, 100%)" fill-opacity="1"><g transform="translate(405.111123, 120.81681)"><g/></g></g><g fill="rgb(100%, 100%, 100%)" fill-opacity="1"><g transform="translate(406.672761, 120.81681)"><g><path d="M 4.015625 -0.875 L 4.015625 -0.25 C 3.859375 -0.164062 3.625 -0.0859375 3.3125 -0.015625 C 3 0.046875 2.6875 0.078125 2.375 0.078125 C 1.65625 0.078125 1.144531 -0.101562 0.84375 -0.46875 C 0.539062 -0.84375 0.390625 -1.453125 0.390625 -2.296875 C 0.390625 -3.109375 0.546875 -3.695312 0.859375 -4.0625 C 1.179688 -4.4375 1.691406 -4.625 2.390625 -4.625 C 3.035156 -4.625 3.5 -4.476562 3.78125 -4.1875 C 4.0625 -3.894531 4.203125 -3.410156 4.203125 -2.734375 C 4.203125 -2.609375 4.195312 -2.492188 4.1875 -2.390625 C 4.1875 -2.285156 4.175781 -2.160156 4.15625 -2.015625 L 1.140625 -2.015625 C 1.148438 -1.515625 1.253906 -1.15625 1.453125 -0.9375 C 1.648438 -0.726562 1.992188 -0.625 2.484375 -0.625 C 2.753906 -0.625 3.03125 -0.644531 3.3125 -0.6875 C 3.601562 -0.738281 3.835938 -0.800781 4.015625 -0.875 Z M 3.515625 -2.84375 C 3.515625 -3.238281 3.425781 -3.519531 3.25 -3.6875 C 3.082031 -3.863281 2.796875 -3.953125 2.390625 -3.953125 C 1.929688 -3.953125 1.609375 -3.851562 1.421875 -3.65625 C 1.234375 -3.46875 1.140625 -3.128906 1.140625 -2.640625 L 3.515625 -2.640625 C 3.515625 -2.660156 3.515625 -2.691406 3.515625 -2.734375 C 3.515625 -2.773438 3.515625 -2.8125 3.515625 -2.84375 Z M 3.515625 -2.84375 "/></g></g></g><g fill="rgb(100%, 100%, 100%)" fill-opacity="1"><g transform="translate(411.244153, 120.81681)"><g><path d="M 1.359375 -6.109375 L 1.359375 0 L 0.609375 0 L 0.609375 -6.109375 Z M 1.359375 -6.109375 "/></g></g></g><g fill="rgb(100%, 100%, 100%)" fill-opacity="1"><g transform="translate(413.208564, 120.81681)"><g><path d="M 2.171875 -3.953125 C 1.773438 -3.953125 1.5 -3.90625 1.34375 -3.8125 C 1.195312 -3.71875 1.125 -3.53125 1.125 -3.25 C 1.125 -3.101562 1.160156 -2.988281 1.234375 -2.90625 C 1.304688 -2.832031 1.421875 -2.785156 1.578125 -2.765625 L 2.734375 -2.59375 C 3.109375 -2.539062 3.367188 -2.425781 3.515625 -2.25 C 3.660156 -2.070312 3.734375 -1.796875 3.734375 -1.421875 C 3.734375 -0.898438 3.609375 -0.519531 3.359375 -0.28125 C 3.109375 -0.0390625 2.691406 0.078125 2.109375 0.078125 C 1.753906 0.078125 1.425781 0.0546875 1.125 0.015625 C 0.832031 -0.015625 0.585938 -0.0625 0.390625 -0.125 L 0.390625 -0.84375 C 0.585938 -0.78125 0.828125 -0.726562 1.109375 -0.6875 C 1.390625 -0.644531 1.679688 -0.625 1.984375 -0.625 C 2.359375 -0.625 2.617188 -0.675781 2.765625 -0.78125 C 2.910156 -0.894531 2.984375 -1.09375 2.984375 -1.375 C 2.984375 -1.550781 2.941406 -1.679688 2.859375 -1.765625 C 2.773438 -1.847656 2.628906 -1.90625 2.421875 -1.9375 L 1.265625 -2.109375 C 0.960938 -2.148438 0.738281 -2.265625 0.59375 -2.453125 C 0.457031 -2.640625 0.382812 -2.90625 0.375 -3.25 C 0.375 -3.726562 0.515625 -4.078125 0.796875 -4.296875 C 1.085938 -4.515625 1.53125 -4.625 2.125 -4.625 C 2.363281 -4.625 2.582031 -4.617188 2.78125 -4.609375 C 2.988281 -4.597656 3.203125 -4.570312 3.421875 -4.53125 L 3.421875 -3.875 C 3.253906 -3.894531 3.0625 -3.910156 2.84375 -3.921875 C 2.632812 -3.941406 2.410156 -3.953125 2.171875 -3.953125 Z M 2.171875 -3.953125 "/></g></g></g><g fill="rgb(100%, 100%, 100%)" fill-opacity="1"><g transform="translate(417.238374, 120.81681)"><g><path d="M 4.015625 -0.875 L 4.015625 -0.25 C 3.859375 -0.164062 3.625 -0.0859375 3.3125 -0.015625 C 3 0.046875 2.6875 0.078125 2.375 0.078125 C 1.65625 0.078125 1.144531 -0.101562 0.84375 -0.46875 C 0.539062 -0.84375 0.390625 -1.453125 0.390625 -2.296875 C 0.390625 -3.109375 0.546875 -3.695312 0.859375 -4.0625 C 1.179688 -4.4375 1.691406 -4.625 2.390625 -4.625 C 3.035156 -4.625 3.5 -4.476562 3.78125 -4.1875 C 4.0625 -3.894531 4.203125 -3.410156 4.203125 -2.734375 C 4.203125 -2.609375 4.195312 -2.492188 4.1875 -2.390625 C 4.1875 -2.285156 4.175781 -2.160156 4.15625 -2.015625 L 1.140625 -2.015625 C 1.148438 -1.515625 1.253906 -1.15625 1.453125 -0.9375 C 1.648438 -0.726562 1.992188 -0.625 2.484375 -0.625 C 2.753906 -0.625 3.03125 -0.644531 3.3125 -0.6875 C 3.601562 -0.738281 3.835938 -0.800781 4.015625 -0.875 Z M 3.515625 -2.84375 C 3.515625 -3.238281 3.425781 -3.519531 3.25 -3.6875 C 3.082031 -3.863281 2.796875 -3.953125 2.390625 -3.953125 C 1.929688 -3.953125 1.609375 -3.851562 1.421875 -3.65625 C 1.234375 -3.46875 1.140625 -3.128906 1.140625 -2.640625 L 3.515625 -2.640625 C 3.515625 -2.660156 3.515625 -2.691406 3.515625 -2.734375 C 3.515625 -2.773438 3.515625 -2.8125 3.515625 -2.84375 Z M 3.515625 -2.84375 "/></g></g></g><g fill="rgb(100%, 100%, 100%)" fill-opacity="1"><g transform="translate(375.286932, 135.179273)"><g/></g></g><g fill="rgb(100%, 100%, 100%)" fill-opacity="1"><g transform="translate(376.856627, 135.179273)"><g/></g></g><g fill="rgb(100%, 100%, 100%)" fill-opacity="1"><g transform="translate(378.426321, 135.179273)"><g/></g></g><g fill="rgb(100%, 100%, 100%)" fill-opacity="1"><g transform="translate(379.996015, 135.179273)"><g/></g></g><g fill="rgb(100%, 100%, 100%)" fill-opacity="1"><g transform="translate(381.565709, 135.179273)"><g/></g></g><g fill="rgb(100%, 100%, 100%)" fill-opacity="1"><g transform="translate(383.135404, 135.179273)"><g/></g></g><g fill="rgb(100%, 100%, 100%)" fill-opacity="1"><g transform="translate(384.705098, 135.179273)"><g/></g></g><g fill="rgb(100%, 100%, 100%)" fill-opacity="1"><g transform="translate(386.274792, 135.179273)"><g/></g></g><g fill="rgb(100%, 100%, 100%)" fill-opacity="1"><g transform="translate(387.844486, 135.179273)"><g/></g></g><g fill="rgb(100%, 100%, 100%)" fill-opacity="1"><g transform="translate(389.41418, 135.179273)"><g/></g></g><g fill="rgb(100%, 100%, 100%)" fill-opacity="1"><g transform="translate(390.983875, 135.179273)"><g/></g></g><g fill="rgb(100%, 100%, 100%)" fill-opacity="1"><g transform="translate(392.553569, 135.179273)"><g/></g></g><g fill="rgb(100%, 100%, 100%)" fill-opacity="1"><g transform="translate(394.123263, 135.179273)"><g/></g></g><g fill="rgb(100%, 100%, 100%)" fill-opacity="1"><g transform="translate(395.692957, 135.179273)"><g/></g></g><g fill="rgb(100%, 100%, 100%)" fill-opacity="1"><g transform="translate(397.262652, 135.179273)"><g/></g></g><g fill="rgb(100%, 100%, 100%)" fill-opacity="1"><g transform="translate(398.832346, 135.179273)"><g/></g></g><g fill="rgb(100%, 100%, 100%)" fill-opacity="1"><g transform="translate(400.40204, 135.179273)"><g/></g></g><g fill="rgb(100%, 100%, 100%)" fill-opacity="1"><g transform="translate(401.971734, 135.179273)"><g/></g></g><g fill="rgb(100%, 100%, 100%)" fill-opacity="1"><g transform="translate(403.541429, 135.179273)"><g/></g></g><g fill="rgb(100%, 100%, 100%)" fill-opacity="1"><g transform="translate(405.111123, 135.179273)"><g/></g></g><g fill="rgb(100%, 100%, 100%)" fill-opacity="1"><g transform="translate(406.680817, 135.179273)"><g/></g></g><g fill="rgb(100%, 100%, 100%)" fill-opacity="1"><g transform="translate(408.250511, 135.179273)"><g/></g></g><g fill="rgb(100%, 100%, 100%)" fill-opacity="1"><g transform="translate(409.820205, 135.179273)"><g/></g></g><g fill="rgb(100%, 100%, 100%)" fill-opacity="1"><g transform="translate(411.3899, 135.179273)"><g/></g></g><g fill="rgb(100%, 100%, 100%)" fill-opacity="1"><g transform="translate(412.959594, 135.179273)"><g/></g></g><g fill="rgb(100%, 100%, 100%)" fill-opacity="1"><g transform="translate(414.527233, 135.179273)"><g><path d="M 2.453125 1.484375 C 2.148438 1.484375 1.863281 1.460938 1.59375 1.421875 C 1.320312 1.390625 1.101562 1.335938 0.9375 1.265625 L 0.9375 0.59375 C 1.070312 0.65625 1.273438 0.703125 1.546875 0.734375 C 1.828125 0.773438 2.101562 0.796875 2.375 0.796875 C 2.832031 0.796875 3.148438 0.703125 3.328125 0.515625 C 3.503906 0.335938 3.59375 0.0195312 3.59375 -0.4375 L 3.59375 -0.71875 C 3.363281 -0.59375 3.117188 -0.492188 2.859375 -0.421875 C 2.609375 -0.347656 2.347656 -0.3125 2.078125 -0.3125 C 1.472656 -0.3125 1.039062 -0.476562 0.78125 -0.8125 C 0.519531 -1.15625 0.390625 -1.707031 0.390625 -2.46875 C 0.390625 -3.25 0.554688 -3.800781 0.890625 -4.125 C 1.222656 -4.457031 1.789062 -4.625 2.59375 -4.625 C 2.882812 -4.625 3.195312 -4.609375 3.53125 -4.578125 C 3.863281 -4.546875 4.132812 -4.503906 4.34375 -4.453125 L 4.34375 -0.65625 C 4.34375 0.144531 4.203125 0.703125 3.921875 1.015625 C 3.640625 1.328125 3.148438 1.484375 2.453125 1.484375 Z M 2.59375 -3.953125 C 2.007812 -3.953125 1.617188 -3.847656 1.421875 -3.640625 C 1.234375 -3.441406 1.140625 -3.050781 1.140625 -2.46875 C 1.140625 -1.914062 1.222656 -1.535156 1.390625 -1.328125 C 1.554688 -1.117188 1.867188 -1.015625 2.328125 -1.015625 C 2.535156 -1.015625 2.75 -1.039062 2.96875 -1.09375 C 3.1875 -1.15625 3.394531 -1.238281 3.59375 -1.34375 L 3.59375 -3.84375 C 3.445312 -3.875 3.285156 -3.898438 3.109375 -3.921875 C 2.941406 -3.941406 2.769531 -3.953125 2.59375 -3.953125 Z M 2.59375 -3.953125 "/></g></g></g><g fill="rgb(100%, 100%, 100%)" fill-opacity="1"><g transform="translate(419.465812, 135.179273)"><g><path d="M 4.015625 -0.875 L 4.015625 -0.25 C 3.859375 -0.164062 3.625 -0.0859375 3.3125 -0.015625 C 3 0.046875 2.6875 0.078125 2.375 0.078125 C 1.65625 0.078125 1.144531 -0.101562 0.84375 -0.46875 C 0.539062 -0.84375 0.390625 -1.453125 0.390625 -2.296875 C 0.390625 -3.109375 0.546875 -3.695312 0.859375 -4.0625 C 1.179688 -4.4375 1.691406 -4.625 2.390625 -4.625 C 3.035156 -4.625 3.5 -4.476562 3.78125 -4.1875 C 4.0625 -3.894531 4.203125 -3.410156 4.203125 -2.734375 C 4.203125 -2.609375 4.195312 -2.492188 4.1875 -2.390625 C 4.1875 -2.285156 4.175781 -2.160156 4.15625 -2.015625 L 1.140625 -2.015625 C 1.148438 -1.515625 1.253906 -1.15625 1.453125 -0.9375 C 1.648438 -0.726562 1.992188 -0.625 2.484375 -0.625 C 2.753906 -0.625 3.03125 -0.644531 3.3125 -0.6875 C 3.601562 -0.738281 3.835938 -0.800781 4.015625 -0.875 Z M 3.515625 -2.84375 C 3.515625 -3.238281 3.425781 -3.519531 3.25 -3.6875 C 3.082031 -3.863281 2.796875 -3.953125 2.390625 -3.953125 C 1.929688 -3.953125 1.609375 -3.851562 1.421875 -3.65625 C 1.234375 -3.46875 1.140625 -3.128906 1.140625 -2.640625 L 3.515625 -2.640625 C 3.515625 -2.660156 3.515625 -2.691406 3.515625 -2.734375 C 3.515625 -2.773438 3.515625 -2.8125 3.515625 -2.84375 Z M 3.515625 -2.84375 "/></g></g></g><g fill="rgb(100%, 100%, 100%)" fill-opacity="1"><g transform="translate(424.037203, 135.179273)"><g><path d="M 3.265625 -0.703125 L 3.265625 -0.078125 C 3.171875 -0.0351562 3.039062 0 2.875 0.03125 C 2.707031 0.0625 2.546875 0.078125 2.390625 0.078125 C 1.835938 0.078125 1.441406 -0.0390625 1.203125 -0.28125 C 0.972656 -0.53125 0.859375 -0.957031 0.859375 -1.5625 L 0.859375 -3.890625 L 0.171875 -3.890625 L 0.171875 -4.53125 L 0.859375 -4.53125 L 0.984375 -5.640625 L 1.609375 -5.640625 L 1.609375 -4.53125 L 3.21875 -4.53125 L 3.21875 -3.890625 L 1.609375 -3.890625 L 1.609375 -1.59375 C 1.609375 -1.21875 1.675781 -0.960938 1.8125 -0.828125 C 1.945312 -0.691406 2.191406 -0.625 2.546875 -0.625 C 2.648438 -0.625 2.773438 -0.632812 2.921875 -0.65625 C 3.066406 -0.675781 3.179688 -0.691406 3.265625 -0.703125 Z M 3.265625 -0.703125 "/></g></g></g><g fill="rgb(100%, 100%, 100%)" fill-opacity="1"><g transform="translate(427.442801, 135.179273)"><g/></g></g><g fill="rgb(100%, 100%, 100%)" fill-opacity="1"><g transform="translate(429.012495, 135.179273)"><g><path d="M 2.953125 -0.65625 C 3.203125 -0.65625 3.460938 -0.6875 3.734375 -0.75 C 4.015625 -0.8125 4.273438 -0.890625 4.515625 -0.984375 L 4.515625 -0.28125 C 4.179688 -0.144531 3.882812 -0.0507812 3.625 0 C 3.363281 0.0507812 3.09375 0.078125 2.8125 0.078125 C 1.925781 0.078125 1.300781 -0.148438 0.9375 -0.609375 C 0.582031 -1.066406 0.40625 -1.828125 0.40625 -2.890625 C 0.40625 -3.910156 0.613281 -4.660156 1.03125 -5.140625 C 1.445312 -5.617188 2.117188 -5.859375 3.046875 -5.859375 C 3.328125 -5.859375 3.578125 -5.847656 3.796875 -5.828125 C 4.015625 -5.816406 4.210938 -5.796875 4.390625 -5.765625 L 4.390625 -5.078125 C 4.171875 -5.109375 3.953125 -5.125 3.734375 -5.125 C 3.523438 -5.132812 3.296875 -5.140625 3.046875 -5.140625 C 2.359375 -5.140625 1.878906 -4.96875 1.609375 -4.625 C 1.335938 -4.289062 1.203125 -3.710938 1.203125 -2.890625 C 1.203125 -2.054688 1.320312 -1.472656 1.5625 -1.140625 C 1.8125 -0.816406 2.273438 -0.65625 2.953125 -0.65625 Z M 2.953125 -0.65625 "/></g></g></g><g fill="rgb(100%, 100%, 100%)" fill-opacity="1"><g transform="translate(433.767485, 135.179273)"><g><path d="M 4.59375 -2.28125 C 4.59375 -1.425781 4.429688 -0.816406 4.109375 -0.453125 C 3.796875 -0.0976562 3.257812 0.078125 2.5 0.078125 C 1.707031 0.078125 1.15625 -0.09375 0.84375 -0.4375 C 0.539062 -0.78125 0.390625 -1.394531 0.390625 -2.28125 C 0.390625 -3.144531 0.546875 -3.75 0.859375 -4.09375 C 1.179688 -4.445312 1.726562 -4.625 2.5 -4.625 C 3.289062 -4.625 3.835938 -4.453125 4.140625 -4.109375 C 4.441406 -3.765625 4.59375 -3.15625 4.59375 -2.28125 Z M 1.140625 -2.28125 C 1.140625 -1.613281 1.226562 -1.171875 1.40625 -0.953125 C 1.59375 -0.734375 1.957031 -0.625 2.5 -0.625 C 3.03125 -0.625 3.382812 -0.738281 3.5625 -0.96875 C 3.75 -1.195312 3.84375 -1.632812 3.84375 -2.28125 C 3.84375 -2.957031 3.753906 -3.40625 3.578125 -3.625 C 3.398438 -3.84375 3.039062 -3.953125 2.5 -3.953125 C 1.96875 -3.953125 1.609375 -3.835938 1.421875 -3.609375 C 1.234375 -3.378906 1.140625 -2.9375 1.140625 -2.28125 Z M 1.140625 -2.28125 "/></g></g></g><g fill="rgb(100%, 100%, 100%)" fill-opacity="1"><g transform="translate(438.751961, 135.179273)"><g><path d="M 0.875 -3.890625 L 0.1875 -3.890625 L 0.1875 -4.53125 L 0.875 -4.53125 L 0.875 -4.65625 C 0.875 -5.175781 1 -5.5625 1.25 -5.8125 C 1.507812 -6.070312 1.90625 -6.203125 2.4375 -6.203125 C 2.570312 -6.203125 2.707031 -6.195312 2.84375 -6.1875 C 2.976562 -6.175781 3.101562 -6.15625 3.21875 -6.125 L 3.21875 -5.484375 C 3.144531 -5.503906 3.046875 -5.519531 2.921875 -5.53125 C 2.796875 -5.539062 2.671875 -5.546875 2.546875 -5.546875 C 2.203125 -5.546875 1.960938 -5.476562 1.828125 -5.34375 C 1.691406 -5.21875 1.625 -4.992188 1.625 -4.671875 L 1.625 -4.53125 L 3.09375 -4.53125 L 3.09375 -3.890625 L 1.625 -3.890625 L 1.625 0 L 0.875 0 Z M 0.875 -3.890625 "/></g></g></g><g fill="rgb(100%, 100%, 100%)" fill-opacity="1"><g transform="translate(441.97397, 135.179273)"><g><path d="M 0.875 -3.890625 L 0.1875 -3.890625 L 0.1875 -4.53125 L 0.875 -4.53125 L 0.875 -4.65625 C 0.875 -5.175781 1 -5.5625 1.25 -5.8125 C 1.507812 -6.070312 1.90625 -6.203125 2.4375 -6.203125 C 2.570312 -6.203125 2.707031 -6.195312 2.84375 -6.1875 C 2.976562 -6.175781 3.101562 -6.15625 3.21875 -6.125 L 3.21875 -5.484375 C 3.144531 -5.503906 3.046875 -5.519531 2.921875 -5.53125 C 2.796875 -5.539062 2.671875 -5.546875 2.546875 -5.546875 C 2.203125 -5.546875 1.960938 -5.476562 1.828125 -5.34375 C 1.691406 -5.21875 1.625 -4.992188 1.625 -4.671875 L 1.625 -4.53125 L 3.09375 -4.53125 L 3.09375 -3.890625 L 1.625 -3.890625 L 1.625 0 L 0.875 0 Z M 0.875 -3.890625 "/></g></g></g><g fill="rgb(100%, 100%, 100%)" fill-opacity="1"><g transform="translate(445.19598, 135.179273)"><g><path d="M 4.015625 -0.875 L 4.015625 -0.25 C 3.859375 -0.164062 3.625 -0.0859375 3.3125 -0.015625 C 3 0.046875 2.6875 0.078125 2.375 0.078125 C 1.65625 0.078125 1.144531 -0.101562 0.84375 -0.46875 C 0.539062 -0.84375 0.390625 -1.453125 0.390625 -2.296875 C 0.390625 -3.109375 0.546875 -3.695312 0.859375 -4.0625 C 1.179688 -4.4375 1.691406 -4.625 2.390625 -4.625 C 3.035156 -4.625 3.5 -4.476562 3.78125 -4.1875 C 4.0625 -3.894531 4.203125 -3.410156 4.203125 -2.734375 C 4.203125 -2.609375 4.195312 -2.492188 4.1875 -2.390625 C 4.1875 -2.285156 4.175781 -2.160156 4.15625 -2.015625 L 1.140625 -2.015625 C 1.148438 -1.515625 1.253906 -1.15625 1.453125 -0.9375 C 1.648438 -0.726562 1.992188 -0.625 2.484375 -0.625 C 2.753906 -0.625 3.03125 -0.644531 3.3125 -0.6875 C 3.601562 -0.738281 3.835938 -0.800781 4.015625 -0.875 Z M 3.515625 -2.84375 C 3.515625 -3.238281 3.425781 -3.519531 3.25 -3.6875 C 3.082031 -3.863281 2.796875 -3.953125 2.390625 -3.953125 C 1.929688 -3.953125 1.609375 -3.851562 1.421875 -3.65625 C 1.234375 -3.46875 1.140625 -3.128906 1.140625 -2.640625 L 3.515625 -2.640625 C 3.515625 -2.660156 3.515625 -2.691406 3.515625 -2.734375 C 3.515625 -2.773438 3.515625 -2.8125 3.515625 -2.84375 Z M 3.515625 -2.84375 "/></g></g></g><g fill="rgb(100%, 100%, 100%)" fill-opacity="1"><g transform="translate(449.767372, 135.179273)"><g><path d="M 4.015625 -0.875 L 4.015625 -0.25 C 3.859375 -0.164062 3.625 -0.0859375 3.3125 -0.015625 C 3 0.046875 2.6875 0.078125 2.375 0.078125 C 1.65625 0.078125 1.144531 -0.101562 0.84375 -0.46875 C 0.539062 -0.84375 0.390625 -1.453125 0.390625 -2.296875 C 0.390625 -3.109375 0.546875 -3.695312 0.859375 -4.0625 C 1.179688 -4.4375 1.691406 -4.625 2.390625 -4.625 C 3.035156 -4.625 3.5 -4.476562 3.78125 -4.1875 C 4.0625 -3.894531 4.203125 -3.410156 4.203125 -2.734375 C 4.203125 -2.609375 4.195312 -2.492188 4.1875 -2.390625 C 4.1875 -2.285156 4.175781 -2.160156 4.15625 -2.015625 L 1.140625 -2.015625 C 1.148438 -1.515625 1.253906 -1.15625 1.453125 -0.9375 C 1.648438 -0.726562 1.992188 -0.625 2.484375 -0.625 C 2.753906 -0.625 3.03125 -0.644531 3.3125 -0.6875 C 3.601562 -0.738281 3.835938 -0.800781 4.015625 -0.875 Z M 3.515625 -2.84375 C 3.515625 -3.238281 3.425781 -3.519531 3.25 -3.6875 C 3.082031 -3.863281 2.796875 -3.953125 2.390625 -3.953125 C 1.929688 -3.953125 1.609375 -3.851562 1.421875 -3.65625 C 1.234375 -3.46875 1.140625 -3.128906 1.140625 -2.640625 L 3.515625 -2.640625 C 3.515625 -2.660156 3.515625 -2.691406 3.515625 -2.734375 C 3.515625 -2.773438 3.515625 -2.8125 3.515625 -2.84375 Z M 3.515625 -2.84375 "/></g></g></g><g fill="rgb(100%, 100%, 100%)" fill-opacity="1"><g transform="translate(454.338763, 135.179273)"><g><path d="M 1.078125 -2.875 C 1.078125 -2.195312 1.132812 -1.554688 1.25 -0.953125 C 1.363281 -0.359375 1.523438 0.144531 1.734375 0.5625 L 1.21875 0.734375 C 0.957031 0.253906 0.753906 -0.289062 0.609375 -0.90625 C 0.472656 -1.53125 0.40625 -2.1875 0.40625 -2.875 C 0.40625 -3.59375 0.472656 -4.257812 0.609375 -4.875 C 0.742188 -5.488281 0.945312 -6.03125 1.21875 -6.5 L 1.734375 -6.328125 C 1.515625 -5.910156 1.347656 -5.398438 1.234375 -4.796875 C 1.128906 -4.203125 1.078125 -3.5625 1.078125 -2.875 Z M 1.078125 -2.875 "/></g></g></g><g fill="rgb(100%, 100%, 100%)" fill-opacity="1"><g transform="translate(456.358255, 135.179273)"><g><path d="M 0.953125 -2.875 C 0.953125 -3.5625 0.894531 -4.203125 0.78125 -4.796875 C 0.664062 -5.398438 0.503906 -5.910156 0.296875 -6.328125 L 0.796875 -6.5 C 1.066406 -6.03125 1.269531 -5.488281 1.40625 -4.875 C 1.539062 -4.257812 1.609375 -3.59375 1.609375 -2.875 C 1.609375 -2.1875 1.535156 -1.53125 1.390625 -0.90625 C 1.253906 -0.289062 1.054688 0.253906 0.796875 0.734375 L 0.28125 0.5625 C 0.5 0.144531 0.664062 -0.359375 0.78125 -0.953125 C 0.894531 -1.554688 0.953125 -2.195312 0.953125 -2.875 Z M 0.953125 -2.875 "/></g></g></g><g fill="rgb(100%, 100%, 100%)" fill-opacity="1"><g transform="translate(458.377747, 135.179273)"><g><path d="M 1.171875 -0.796875 L 0.953125 0.640625 C 0.929688 0.722656 0.890625 0.789062 0.828125 0.84375 C 0.773438 0.894531 0.703125 0.921875 0.609375 0.921875 L 0.375 0.921875 L 0.421875 -0.796875 Z M 1.171875 -4 L 0.421875 -4 L 0.421875 -4.765625 L 1.171875 -4.765625 Z M 1.171875 -4 "/></g></g></g><g fill="rgb(100%, 100%, 100%)" fill-opacity="1"><g transform="translate(375.286932, 149.541736)"><g/></g></g><g fill="rgb(100%, 100%, 100%)" fill-opacity="1"><g transform="translate(376.856627, 149.541736)"><g/></g></g><g fill="rgb(100%, 100%, 100%)" fill-opacity="1"><g transform="translate(378.426321, 149.541736)"><g/></g></g><g fill="rgb(100%, 100%, 100%)" fill-opacity="1"><g transform="translate(379.996015, 149.541736)"><g/></g></g><g fill="rgb(100%, 100%, 100%)" fill-opacity="1"><g transform="translate(381.565709, 149.541736)"><g/></g></g><g fill="rgb(100%, 100%, 100%)" fill-opacity="1"><g transform="translate(383.135404, 149.541736)"><g/></g></g><g fill="rgb(100%, 100%, 100%)" fill-opacity="1"><g transform="translate(384.705098, 149.541736)"><g/></g></g><g fill="rgb(100%, 100%, 100%)" fill-opacity="1"><g transform="translate(386.274792, 149.541736)"><g/></g></g><g fill="rgb(100%, 100%, 100%)" fill-opacity="1"><g transform="translate(387.844486, 149.541736)"><g/></g></g><g fill="rgb(100%, 100%, 100%)" fill-opacity="1"><g transform="translate(389.41418, 149.541736)"><g/></g></g><g fill="rgb(100%, 100%, 100%)" fill-opacity="1"><g transform="translate(390.983875, 149.541736)"><g/></g></g><g fill="rgb(100%, 100%, 100%)" fill-opacity="1"><g transform="translate(392.553569, 149.541736)"><g/></g></g><g fill="rgb(100%, 100%, 100%)" fill-opacity="1"><g transform="translate(394.123263, 149.541736)"><g/></g></g><g fill="rgb(100%, 100%, 100%)" fill-opacity="1"><g transform="translate(395.692957, 149.541736)"><g/></g></g><g fill="rgb(100%, 100%, 100%)" fill-opacity="1"><g transform="translate(397.262652, 149.541736)"><g/></g></g><g fill="rgb(100%, 100%, 100%)" fill-opacity="1"><g transform="translate(398.832346, 149.541736)"><g/></g></g><g fill="rgb(100%, 100%, 100%)" fill-opacity="1"><g transform="translate(400.40204, 149.541736)"><g/></g></g><g fill="rgb(100%, 100%, 100%)" fill-opacity="1"><g transform="translate(401.971734, 149.541736)"><g/></g></g><g fill="rgb(100%, 100%, 100%)" fill-opacity="1"><g transform="translate(403.541429, 149.541736)"><g/></g></g><g fill="rgb(100%, 100%, 100%)" fill-opacity="1"><g transform="translate(405.111123, 149.541736)"><g/></g></g><g fill="rgb(100%, 100%, 100%)" fill-opacity="1"><g transform="translate(406.680817, 149.541736)"><g/></g></g><g fill="rgb(100%, 100%, 100%)" fill-opacity="1"><g transform="translate(408.250511, 149.541736)"><g/></g></g><g fill="rgb(100%, 100%, 100%)" fill-opacity="1"><g transform="translate(409.820205, 149.541736)"><g/></g></g><g fill="rgb(100%, 100%, 100%)" fill-opacity="1"><g transform="translate(411.3899, 149.541736)"><g/></g></g><g fill="rgb(100%, 100%, 100%)" fill-opacity="1"><g transform="translate(412.956339, 149.541736)"><g><path d="M 1.828125 -2.890625 L 1.828125 -2.921875 C 1.585938 -2.960938 1.398438 -3.109375 1.265625 -3.359375 C 1.128906 -3.609375 1.0625 -3.9375 1.0625 -4.34375 L 1.0625 -5.296875 C 1.0625 -5.566406 0.992188 -5.753906 0.859375 -5.859375 C 0.722656 -5.972656 0.507812 -6.03125 0.21875 -6.03125 L 0.21875 -6.59375 C 0.6875 -6.59375 1.046875 -6.484375 1.296875 -6.265625 C 1.554688 -6.046875 1.6875 -5.722656 1.6875 -5.296875 L 1.6875 -4.34375 C 1.6875 -3.976562 1.757812 -3.6875 1.90625 -3.46875 C 2.050781 -3.257812 2.238281 -3.15625 2.46875 -3.15625 L 2.578125 -3.15625 L 2.578125 -2.640625 L 2.46875 -2.640625 C 2.238281 -2.640625 2.050781 -2.53125 1.90625 -2.3125 C 1.757812 -2.101562 1.6875 -1.8125 1.6875 -1.4375 L 1.6875 -0.453125 C 1.6875 -0.0234375 1.554688 0.296875 1.296875 0.515625 C 1.046875 0.734375 0.6875 0.84375 0.21875 0.84375 L 0.21875 0.28125 C 0.507812 0.28125 0.722656 0.222656 0.859375 0.109375 C 0.992188 -0.00390625 1.0625 -0.191406 1.0625 -0.453125 L 1.0625 -1.4375 C 1.0625 -1.84375 1.128906 -2.175781 1.265625 -2.4375 C 1.410156 -2.695312 1.597656 -2.847656 1.828125 -2.890625 Z M 1.828125 -2.890625 "/></g></g></g><g fill="rgb(100%, 100%, 100%)" fill-opacity="1"><g transform="translate(375.286932, 163.904199)"><g/></g></g><g fill="rgb(100%, 100%, 100%)" fill-opacity="1"><g transform="translate(376.856627, 163.904199)"><g/></g></g><g fill="rgb(100%, 100%, 100%)" fill-opacity="1"><g transform="translate(378.426321, 163.904199)"><g/></g></g><g fill="rgb(32.939148%, 73.329163%, 50.19989%)" fill-opacity="1"><g transform="translate(63.026254, 148.285413)"><g/></g></g><g fill="rgb(32.939148%, 73.329163%, 50.19989%)" fill-opacity="1"><g transform="translate(67.5949, 148.285413)"><g/></g></g><g fill="rgb(32.939148%, 73.329163%, 50.19989%)" fill-opacity="1"><g transform="translate(72.163547, 148.285413)"><g/></g></g><g fill="rgb(32.939148%, 73.329163%, 50.19989%)" fill-opacity="1"><g transform="translate(76.727001, 148.285413)"><g><path d="M 7.78125 -0.328125 C 8.445312 -0.328125 9.128906 -0.40625 9.828125 -0.5625 C 10.523438 -0.726562 11.195312 -0.960938 11.84375 -1.265625 L 11.84375 -0.78125 C 10.988281 -0.4375 10.226562 -0.195312 9.5625 -0.0625 C 8.894531 0.0703125 8.222656 0.140625 7.546875 0.140625 C 5.390625 0.140625 3.84375 -0.457031 2.90625 -1.65625 C 1.976562 -2.851562 1.515625 -4.804688 1.515625 -7.515625 C 1.515625 -10.148438 2.035156 -12.082031 3.078125 -13.3125 C 4.117188 -14.539062 5.765625 -15.15625 8.015625 -15.15625 C 8.742188 -15.15625 9.394531 -15.140625 9.96875 -15.109375 C 10.539062 -15.078125 11.054688 -15.019531 11.515625 -14.9375 L 11.515625 -14.4375 C 10.941406 -14.519531 10.375 -14.582031 9.8125 -14.625 C 9.25 -14.664062 8.648438 -14.6875 8.015625 -14.6875 C 5.890625 -14.6875 4.359375 -14.117188 3.421875 -12.984375 C 2.484375 -11.847656 2.015625 -10.023438 2.015625 -7.515625 C 2.015625 -4.867188 2.4375 -3.007812 3.28125 -1.9375 C 4.125 -0.863281 5.625 -0.328125 7.78125 -0.328125 Z M 7.78125 -0.328125 "/></g></g></g><g fill="rgb(32.939148%, 73.329163%, 50.19989%)" fill-opacity="1"><g transform="translate(89.457344, 148.285413)"><g><path d="M 14.203125 -7.515625 C 14.203125 -4.816406 13.707031 -2.863281 12.71875 -1.65625 C 11.738281 -0.457031 10.132812 0.140625 7.90625 0.140625 C 6.476562 0.140625 5.359375 -0.0078125 4.546875 -0.3125 C 3.734375 -0.625 3.097656 -1.125 2.640625 -1.8125 C 2.265625 -2.382812 1.988281 -3.132812 1.8125 -4.0625 C 1.632812 -4.988281 1.546875 -6.140625 1.546875 -7.515625 C 1.546875 -10.203125 2.039062 -12.144531 3.03125 -13.34375 C 4.019531 -14.550781 5.644531 -15.15625 7.90625 -15.15625 C 9.3125 -15.15625 10.421875 -15 11.234375 -14.6875 C 12.046875 -14.382812 12.671875 -13.890625 13.109375 -13.203125 C 13.492188 -12.617188 13.769531 -11.867188 13.9375 -10.953125 C 14.113281 -10.046875 14.203125 -8.898438 14.203125 -7.515625 Z M 3 -2.171875 C 3.394531 -1.515625 3.96875 -1.039062 4.71875 -0.75 C 5.476562 -0.46875 6.539062 -0.328125 7.90625 -0.328125 C 10 -0.328125 11.488281 -0.882812 12.375 -2 C 13.257812 -3.125 13.703125 -4.960938 13.703125 -7.515625 C 13.703125 -8.835938 13.625 -9.925781 13.46875 -10.78125 C 13.320312 -11.632812 13.09375 -12.332031 12.78125 -12.875 C 12.382812 -13.519531 11.816406 -13.984375 11.078125 -14.265625 C 10.335938 -14.546875 9.28125 -14.6875 7.90625 -14.6875 C 5.789062 -14.6875 4.285156 -14.128906 3.390625 -13.015625 C 2.492188 -11.898438 2.046875 -10.066406 2.046875 -7.515625 C 2.046875 -6.203125 2.117188 -5.113281 2.265625 -4.25 C 2.421875 -3.382812 2.664062 -2.691406 3 -2.171875 Z M 3 -2.171875 "/></g></g></g><g fill="rgb(32.939148%, 73.329163%, 50.19989%)" fill-opacity="1"><g transform="translate(105.209659, 148.285413)"><g><path d="M 5.765625 0 L 2.21875 0 L 2.21875 -14.921875 L 5.765625 -14.921875 C 7.316406 -14.921875 8.539062 -14.796875 9.4375 -14.546875 C 10.34375 -14.304688 11.0625 -13.90625 11.59375 -13.34375 C 12.113281 -12.8125 12.492188 -12.070312 12.734375 -11.125 C 12.972656 -10.175781 13.09375 -8.957031 13.09375 -7.46875 C 13.09375 -4.882812 12.507812 -2.992188 11.34375 -1.796875 C 10.1875 -0.597656 8.328125 0 5.765625 0 Z M 11.203125 -12.96875 C 10.710938 -13.488281 10.039062 -13.863281 9.1875 -14.09375 C 8.34375 -14.320312 7.203125 -14.4375 5.765625 -14.4375 L 2.71875 -14.4375 L 2.71875 -0.46875 L 5.765625 -0.46875 C 8.171875 -0.46875 9.910156 -1.019531 10.984375 -2.125 C 12.054688 -3.226562 12.59375 -5.007812 12.59375 -7.46875 C 12.59375 -8.882812 12.476562 -10.023438 12.25 -10.890625 C 12.03125 -11.765625 11.679688 -12.457031 11.203125 -12.96875 Z M 11.203125 -12.96875 "/></g></g></g><g fill="rgb(32.939148%, 73.329163%, 50.19989%)" fill-opacity="1"><g transform="translate(119.843604, 148.285413)"><g><path d="M 11.78125 -0.46875 L 11.78125 0 L 2.21875 0 L 2.21875 -14.921875 L 11.5625 -14.921875 L 11.5625 -14.4375 L 2.71875 -14.4375 L 2.71875 -7.921875 L 10.6875 -7.921875 L 10.6875 -7.453125 L 2.71875 -7.453125 L 2.71875 -0.46875 Z M 11.78125 -0.46875 "/></g></g></g><g fill="rgb(32.939148%, 73.329163%, 50.19989%)" fill-opacity="1"><g transform="translate(132.645329, 148.285413)"><g><path d="M 2.71875 -5.90625 L 2.71875 0 L 2.21875 0 L 2.21875 -14.921875 L 6.953125 -14.921875 C 8.890625 -14.921875 10.289062 -14.578125 11.15625 -13.890625 C 12.019531 -13.210938 12.453125 -12.113281 12.453125 -10.59375 C 12.453125 -9.238281 12.125 -8.179688 11.46875 -7.421875 C 10.820312 -6.660156 9.835938 -6.1875 8.515625 -6 L 12.734375 0 L 12.140625 0 L 7.96875 -5.953125 C 7.757812 -5.929688 7.578125 -5.914062 7.421875 -5.90625 C 7.273438 -5.90625 7.140625 -5.90625 7.015625 -5.90625 Z M 11.953125 -10.59375 C 11.953125 -11.957031 11.5625 -12.9375 10.78125 -13.53125 C 10 -14.132812 8.722656 -14.4375 6.953125 -14.4375 L 2.71875 -14.4375 L 2.71875 -6.359375 L 6.953125 -6.359375 C 8.660156 -6.359375 9.921875 -6.703125 10.734375 -7.390625 C 11.546875 -8.078125 11.953125 -9.144531 11.953125 -10.59375 Z M 11.953125 -10.59375 "/></g></g></g><g fill="rgb(32.939148%, 73.329163%, 50.19989%)" fill-opacity="1"><g transform="translate(146.43908, 148.285413)"><g/></g></g><g fill="rgb(32.939148%, 73.329163%, 50.19989%)" fill-opacity="1"><g transform="translate(151.007726, 148.285413)"><g/></g></g><g fill="rgb(32.939148%, 73.329163%, 50.19989%)" fill-opacity="1"><g transform="translate(155.576372, 148.285413)"><g/></g></g><g fill="rgb(32.939148%, 73.329163%, 50.19989%)" fill-opacity="1"><g transform="translate(160.139827, 148.285413)"><g><path d="M 2.671875 -16.828125 L 2.671875 1.90625 L 2.171875 1.90625 L 2.171875 -16.828125 Z M 2.671875 -16.828125 "/></g></g></g></svg>