<svg xmlns="http://www.w3.org/2000/svg" xmlns:xlink="http://www.w3.org/1999/xlink" width="1280" zoomAndPan="magnify" viewBox="0 0 960 479.999983" height="640" preserveAspectRatio="xMidYMid meet" version="1.0"><defs><g/><clipPath id="id1"><path d="M 109.25 110.453125 L 219 110.453125 L 219 323.453125 L 109.25 323.453125 Z M 109.25 110.453125 " clip-rule="nonzero"/></clipPath><clipPath id="id2"><path d="M 218 110.453125 L 328.25 110.453125 L 328.25 323.453125 L 218 323.453125 Z M 218 110.453125 " clip-rule="nonzero"/></clipPath><clipPath id="id3"><path d="M 290.507812 355.96875 L 316.007812 355.96875 L 316.007812 385.96875 L 290.507812 385.96875 Z M 290.507812 355.96875 " clip-rule="nonzero"/></clipPath></defs><rect x="-96" width="1152" fill="rgb(12.548828%, 14.898682%, 21.179199%)" y="-47.999998" height="575.99998" fill-opacity="1"/><rect x="-96" width="1152" fill="rgb(100%, 100%, 100%)" y="-47.999998" height="575.99998" fill-opacity="1"/><rect x="-96" width="1152" fill="rgb(12.548828%, 14.898682%, 21.179199%)" y="-47.999998" height="575.99998" fill-opacity="1"/><path fill="rgb(94.119263%, 94.509888%, 94.509888%)" d="M 254.542969 269.351562 L 218.75 207.503906 L 218.75 171.640625 L 282.417969 281.652344 L 218.75 295.460938 L 254.542969 269.351562 " fill-opacity="1" fill-rule="nonzero"/><path fill="rgb(32.939148%, 73.329163%, 50.19989%)" d="M 218.75 171.640625 L 218.75 207.503906 L 182.953125 269.351562 L 218.75 277.109375 L 155.078125 281.652344 L 218.75 171.640625 " fill-opacity="1" fill-rule="nonzero"/><g clip-path="url(#id1)"><path fill="rgb(32.939148%, 73.329163%, 50.19989%)" d="M 218.75 110.5 L 218.75 146.359375 L 137.128906 287.382812 L 218.75 305.082031 L 218.75 323.433594 L 109.253906 299.6875 L 218.75 110.5 " fill-opacity="1" fill-rule="nonzero"/></g><g clip-path="url(#id2)"><path fill="rgb(94.119263%, 94.509888%, 94.509888%)" d="M 218.75 305.082031 L 300.367188 287.382812 L 218.75 146.359375 L 218.75 110.5 L 328.242188 299.6875 L 218.75 323.433594 L 218.75 305.082031 " fill-opacity="1" fill-rule="nonzero"/></g><g fill="rgb(32.939148%, 73.329163%, 50.19989%)" fill-opacity="1"><g transform="translate(135.148673, 383.826971)"><g><path d="M 2.40625 -1.046875 L 20.484375 -27 L 2.875 -27 L 2.875 -27.953125 L 21.765625 -27.953125 L 21.765625 -26.921875 L 3.6875 -0.953125 L 22.203125 -0.953125 L 22.203125 0 L 2.40625 0 Z M 2.40625 -1.046875 "/></g></g></g><g fill="rgb(32.939148%, 73.329163%, 50.19989%)" fill-opacity="1"><g transform="translate(159.746225, 383.826971)"><g><path d="M 3.203125 -27.953125 L 20.28125 -27.953125 L 20.28125 -27 L 4.3125 -27 L 4.3125 -14.484375 L 16.4375 -14.484375 L 16.4375 -13.515625 L 4.3125 -13.515625 L 4.3125 -0.953125 L 20.28125 -0.953125 L 20.28125 0 L 3.203125 0 Z M 3.203125 -27.953125 "/></g></g></g><g fill="rgb(32.939148%, 73.329163%, 50.19989%)" fill-opacity="1"><g transform="translate(182.423973, 383.826971)"><g><path d="M 3.203125 -27.953125 L 20.28125 -27.953125 L 20.28125 -27 L 4.3125 -27 L 4.3125 -14.484375 L 16.4375 -14.484375 L 16.4375 -13.515625 L 4.3125 -13.515625 L 4.3125 -0.953125 L 20.28125 -0.953125 L 20.28125 0 L 3.203125 0 Z M 3.203125 -27.953125 "/></g></g></g><g fill="rgb(32.939148%, 73.329163%, 50.19989%)" fill-opacity="1"><g transform="translate(205.101721, 383.826971)"><g><path d="M 3.203125 -27.953125 L 4.203125 -27.953125 L 22.203125 -2.078125 L 22.203125 -27.953125 L 23.3125 -27.953125 L 23.3125 0 L 22.359375 0 L 4.3125 -25.953125 L 4.3125 0 L 3.203125 0 Z M 3.203125 -27.953125 "/></g></g></g><g fill="rgb(32.939148%, 73.329163%, 50.19989%)" fill-opacity="1"><g transform="translate(231.619088, 383.826971)"><g><path d="M 13.40625 0.59375 C 9.988281 0.59375 7.398438 -0.25 5.640625 -1.9375 C 3.878906 -3.632812 3 -6.039062 3 -9.15625 L 3 -27.953125 L 4.125 -27.953125 L 4.125 -8.765625 C 4.125 -5.910156 4.960938 -3.796875 6.640625 -2.421875 C 8.316406 -1.046875 10.570312 -0.359375 13.40625 -0.359375 C 16.226562 -0.359375 18.476562 -1.046875 20.15625 -2.421875 C 21.84375 -3.796875 22.6875 -5.910156 22.6875 -8.765625 L 22.6875 -27.953125 L 23.796875 -27.953125 L 23.796875 -9.15625 C 23.796875 -6.039062 22.914062 -3.632812 21.15625 -1.9375 C 19.394531 -0.25 16.8125 0.59375 13.40625 0.59375 Z M 13.40625 0.59375 "/></g></g></g><g fill="rgb(32.939148%, 73.329163%, 50.19989%)" fill-opacity="1"><g transform="translate(258.416422, 383.826971)"><g><path d="M 13.203125 -14.4375 L 3.125 -27.953125 L 4.359375 -27.953125 L 13.84375 -15.28125 L 23.3125 -27.953125 L 24.5625 -27.953125 L 14.4375 -14.4375 L 25.28125 0 L 24.046875 0 L 13.84375 -13.640625 L 3.640625 0 L 2.40625 0 Z M 13.203125 -14.4375 "/></g></g></g><g fill="rgb(32.939148%, 73.329163%, 50.19989%)" fill-opacity="1"><g transform="translate(286.086162, 383.826971)"><g/></g></g><g clip-path="url(#id3)"><path fill="rgb(94.119263%, 94.509888%, 94.509888%)" d="M 316.003906 360.34375 L 316.003906 356.59375 C 316.003906 356.25 315.71875 355.96875 315.367188 355.96875 L 291.148438 355.96875 C 290.796875 355.96875 290.511719 356.25 290.511719 356.59375 L 290.511719 360.34375 C 290.511719 360.691406 290.796875 360.96875 291.148438 360.96875 L 295.621094 360.96875 C 292.421875 363.304688 290.511719 366.96875 290.511719 370.96875 C 290.511719 374.972656 292.421875 378.636719 295.621094 380.96875 L 291.148438 380.96875 C 290.796875 380.96875 290.511719 381.25 290.511719 381.59375 L 290.511719 385.34375 C 290.511719 385.691406 290.796875 385.96875 291.148438 385.96875 L 315.367188 385.96875 C 315.71875 385.96875 316.003906 385.691406 316.003906 385.34375 L 316.003906 381.59375 C 316.003906 381.25 315.71875 380.96875 315.367188 380.96875 L 310.894531 380.96875 C 314.089844 378.636719 316.003906 374.972656 316.003906 370.96875 C 316.003906 366.96875 314.089844 363.304688 310.894531 360.96875 L 315.367188 360.96875 C 315.71875 360.96875 316.003906 360.691406 316.003906 360.34375 Z M 312.179688 370.96875 C 312.179688 375.792969 308.175781 379.71875 303.257812 379.71875 C 298.339844 379.71875 294.335938 375.792969 294.335938 370.96875 C 294.335938 366.144531 298.339844 362.21875 303.257812 362.21875 C 308.175781 362.21875 312.179688 366.144531 312.179688 370.96875 Z M 312.179688 370.96875 " fill-opacity="1" fill-rule="nonzero"/></g><path stroke-linecap="butt" transform="matrix(3.749357, 0.000000000000000312, -0.000000000000000312, 3.75, -4.996896, 458.111005)" fill="none" stroke-linejoin="miter" d="M 0.000214006 -0.000434583 L 273.648143 -0.000434583 " stroke="rgb(28.239441%, 81.568909%, 42.749023%)" stroke-width="1" stroke-opacity="1" stroke-miterlimit="4"/><g fill="rgb(28.239441%, 81.568909%, 42.749023%)" fill-opacity="1"><g transform="translate(372.760183, 170.20238)"><g><path d="M 2.078125 -17.6875 L 2.078125 -24.5625 L 32.765625 -39.578125 L 32.765625 -29.578125 L 14.625 -21.0625 L 32.765625 -12.609375 L 32.765625 -2.59375 Z M 2.078125 -17.6875 "/></g></g></g><g fill="rgb(28.239441%, 81.568909%, 42.749023%)" fill-opacity="1"><g transform="translate(407.596031, 170.20238)"><g/></g></g><g fill="rgb(28.239441%, 81.568909%, 42.749023%)" fill-opacity="1"><g transform="translate(430.343313, 170.20238)"><g><path d="M 3.375 -45.4375 L 13.265625 -45.4375 L 13.265625 -27.234375 L 33.078125 -27.234375 L 33.078125 -45.4375 L 42.96875 -45.4375 L 42.96875 0 L 33.078125 0 L 33.078125 -19.046875 L 13.265625 -19.046875 L 13.265625 0 L 3.375 0 Z M 3.375 -45.4375 "/></g></g></g><g fill="rgb(28.239441%, 81.568909%, 42.749023%)" fill-opacity="1"><g transform="translate(476.682783, 170.20238)"><g><path d="M 3.375 -45.4375 L 13.265625 -45.4375 L 13.265625 0 L 3.375 0 Z M 3.375 -45.4375 "/></g></g></g><g fill="rgb(28.239441%, 81.568909%, 42.749023%)" fill-opacity="1"><g transform="translate(493.385789, 170.20238)"><g/></g></g><g fill="rgb(28.239441%, 81.568909%, 42.749023%)" fill-opacity="1"><g transform="translate(516.133071, 170.20238)"><g><path d="M 3.375 -45.4375 L 13.265625 -45.4375 L 13.265625 0 L 3.375 0 Z M 3.375 -45.4375 "/></g></g></g><g fill="rgb(28.239441%, 81.568909%, 42.749023%)" fill-opacity="1"><g transform="translate(532.836077, 170.20238)"><g><path d="M 2.078125 -45.4375 L 9.359375 -45.4375 L 9.359375 -32.5 L 2.078125 -32.5 Z M 2.078125 -45.4375 "/></g></g></g><g fill="rgb(28.239441%, 81.568909%, 42.749023%)" fill-opacity="1"><g transform="translate(544.3397, 170.20238)"><g><path d="M 3.375 -45.4375 L 13.125 -45.4375 L 27.109375 -15.015625 L 41.140625 -45.4375 L 50.828125 -45.4375 L 50.828125 0 L 41.40625 0 L 41.40625 -25.8125 L 29.375 0 L 24.828125 0 L 12.875 -25.8125 L 12.875 0 L 3.375 0 Z M 3.375 -45.4375 "/></g></g></g><g fill="rgb(28.239441%, 81.568909%, 42.749023%)" fill-opacity="1"><g transform="translate(598.60822, 170.20238)"><g/></g></g><g fill="rgb(28.239441%, 81.568909%, 42.749023%)" fill-opacity="1"><g transform="translate(621.355502, 170.20238)"><g><path d="M 20.28125 -45.4375 L 29.96875 -45.4375 L 48.09375 0 L 38.03125 0 L 34.125 -9.875 L 16.125 -9.875 L 12.21875 0 L 2.078125 0 Z M 31.53125 -17.75 L 25.09375 -35.03125 L 18.65625 -17.75 Z M 31.53125 -17.75 "/></g></g></g><g fill="rgb(28.239441%, 81.568909%, 42.749023%)" fill-opacity="1"><g transform="translate(671.52951, 170.20238)"><g><path d="M 3.375 -45.4375 L 25.671875 -45.4375 C 29.960938 -45.4375 33.320312 -44.375 35.75 -42.25 C 38.175781 -40.125 39.390625 -37.046875 39.390625 -33.015625 C 39.390625 -30.984375 38.910156 -29.128906 37.953125 -27.453125 C 37.003906 -25.785156 35.707031 -24.5 34.0625 -23.59375 C 36.3125 -22.769531 38 -21.523438 39.125 -19.859375 C 40.25 -18.191406 40.8125 -16.015625 40.8125 -13.328125 C 40.8125 -10.597656 40.191406 -8.222656 38.953125 -6.203125 C 37.722656 -4.191406 36.035156 -2.65625 33.890625 -1.59375 C 31.753906 -0.53125 29.382812 0 26.78125 0 L 3.375 0 Z M 23.796875 -26.96875 C 25.523438 -26.96875 26.882812 -27.398438 27.875 -28.265625 C 28.875 -29.140625 29.375 -30.53125 29.375 -32.4375 C 29.375 -34.519531 28.882812 -35.945312 27.90625 -36.71875 C 26.9375 -37.5 25.457031 -37.890625 23.46875 -37.890625 L 13.265625 -37.890625 L 13.265625 -26.96875 Z M 24.375 -7.546875 C 26.5 -7.546875 28.113281 -7.96875 29.21875 -8.8125 C 30.320312 -9.65625 30.875 -11.140625 30.875 -13.265625 C 30.875 -15.429688 30.300781 -16.988281 29.15625 -17.9375 C 28.007812 -18.894531 26.304688 -19.375 24.046875 -19.375 L 13.265625 -19.375 L 13.265625 -7.546875 Z M 24.375 -7.546875 "/></g></g></g><g fill="rgb(28.239441%, 81.568909%, 42.749023%)" fill-opacity="1"><g transform="translate(714.489391, 170.20238)"><g><path d="M 3.375 -45.4375 L 13.265625 -45.4375 L 13.265625 -27.234375 L 33.078125 -27.234375 L 33.078125 -45.4375 L 42.96875 -45.4375 L 42.96875 0 L 33.078125 0 L 33.078125 -19.046875 L 13.265625 -19.046875 L 13.265625 0 L 3.375 0 Z M 3.375 -45.4375 "/></g></g></g><g fill="rgb(28.239441%, 81.568909%, 42.749023%)" fill-opacity="1"><g transform="translate(760.82885, 170.20238)"><g><path d="M 3.375 -45.4375 L 13.265625 -45.4375 L 13.265625 0 L 3.375 0 Z M 3.375 -45.4375 "/></g></g></g><g fill="rgb(28.239441%, 81.568909%, 42.749023%)" fill-opacity="1"><g transform="translate(777.531867, 170.20238)"><g/></g></g><g fill="rgb(28.239441%, 81.568909%, 42.749023%)" fill-opacity="1"><g transform="translate(800.279149, 170.20238)"><g><path d="M 20.609375 -46.40625 L 30.484375 -46.40625 L 11.953125 0 L 2.078125 0 Z M 20.609375 -46.40625 "/></g></g></g><g fill="rgb(28.239441%, 81.568909%, 42.749023%)" fill-opacity="1"><g transform="translate(832.840288, 170.20238)"><g><path d="M 2.078125 -12.609375 L 20.21875 -21.0625 L 2.078125 -29.578125 L 2.078125 -39.578125 L 32.765625 -24.5625 L 32.765625 -17.6875 L 2.078125 -2.59375 Z M 2.078125 -12.609375 "/></g></g></g><g fill="rgb(100%, 100%, 100%)" fill-opacity="1"><g transform="translate(508.09409, 253.232412)"><g><path d="M 16.890625 -11.421875 L 12.96875 0 L 12.640625 0 L 8.8125 -10.96875 L 4.96875 0 L 4.65625 0 L 0.734375 -11.421875 L 1.09375 -11.421875 L 4.828125 -0.515625 L 8.640625 -11.421875 L 8.96875 -11.421875 L 12.8125 -0.484375 L 16.546875 -11.421875 Z M 16.890625 -11.421875 "/></g></g></g><g fill="rgb(100%, 100%, 100%)" fill-opacity="1"><g transform="translate(525.71157, 253.232412)"><g><path d="M 5.734375 -8.484375 C 6.796875 -8.484375 7.625 -8.179688 8.21875 -7.578125 C 8.820312 -6.972656 9.125 -6.101562 9.125 -4.96875 L 9.125 0 L 8.796875 0 L 8.796875 -4.96875 C 8.796875 -6.007812 8.53125 -6.800781 8 -7.34375 C 7.46875 -7.894531 6.722656 -8.171875 5.765625 -8.171875 C 4.660156 -8.171875 3.789062 -7.84375 3.15625 -7.1875 C 2.519531 -6.53125 2.203125 -5.660156 2.203125 -4.578125 L 2.203125 0 L 1.875 0 L 1.875 -12.109375 L 2.203125 -12.109375 L 2.203125 -6.1875 C 2.460938 -6.90625 2.894531 -7.46875 3.5 -7.875 C 4.113281 -8.28125 4.859375 -8.484375 5.734375 -8.484375 Z M 5.734375 -8.484375 "/></g></g></g><g fill="rgb(100%, 100%, 100%)" fill-opacity="1"><g transform="translate(536.608301, 253.232412)"><g><path d="M 1.875 -8.4375 L 2.203125 -8.4375 L 2.203125 0 L 1.875 0 Z M 2.046875 -10.765625 C 1.921875 -10.765625 1.816406 -10.804688 1.734375 -10.890625 C 1.660156 -10.984375 1.625 -11.082031 1.625 -11.1875 C 1.625 -11.3125 1.660156 -11.410156 1.734375 -11.484375 C 1.816406 -11.566406 1.921875 -11.609375 2.046875 -11.609375 C 2.148438 -11.609375 2.242188 -11.566406 2.328125 -11.484375 C 2.421875 -11.410156 2.46875 -11.3125 2.46875 -11.1875 C 2.46875 -11.082031 2.421875 -10.984375 2.328125 -10.890625 C 2.242188 -10.804688 2.148438 -10.765625 2.046875 -10.765625 Z M 2.046875 -10.765625 "/></g></g></g><g fill="rgb(100%, 100%, 100%)" fill-opacity="1"><g transform="translate(540.686426, 253.232412)"><g><path d="M 1.875 -12.109375 L 2.203125 -12.109375 L 2.203125 0 L 1.875 0 Z M 1.875 -12.109375 "/></g></g></g><g fill="rgb(100%, 100%, 100%)" fill-opacity="1"><g transform="translate(544.764551, 253.232412)"><g><path d="M 8.6875 -4.21875 L 1.1875 -4.21875 C 1.1875 -3.457031 1.351562 -2.773438 1.6875 -2.171875 C 2.03125 -1.566406 2.5 -1.097656 3.09375 -0.765625 C 3.6875 -0.429688 4.351562 -0.265625 5.09375 -0.265625 C 5.664062 -0.265625 6.203125 -0.375 6.703125 -0.59375 C 7.210938 -0.820312 7.628906 -1.144531 7.953125 -1.5625 L 8.1875 -1.34375 C 7.820312 -0.894531 7.363281 -0.550781 6.8125 -0.3125 C 6.269531 -0.0703125 5.695312 0.046875 5.09375 0.046875 C 4.28125 0.046875 3.554688 -0.132812 2.921875 -0.5 C 2.285156 -0.863281 1.785156 -1.367188 1.421875 -2.015625 C 1.054688 -2.671875 0.875 -3.40625 0.875 -4.21875 C 0.875 -5.039062 1.039062 -5.773438 1.375 -6.421875 C 1.71875 -7.066406 2.1875 -7.570312 2.78125 -7.9375 C 3.375 -8.300781 4.039062 -8.484375 4.78125 -8.484375 C 5.507812 -8.484375 6.171875 -8.300781 6.765625 -7.9375 C 7.367188 -7.582031 7.835938 -7.085938 8.171875 -6.453125 C 8.515625 -5.828125 8.6875 -5.113281 8.6875 -4.3125 Z M 4.78125 -8.171875 C 4.125 -8.171875 3.53125 -8.007812 3 -7.6875 C 2.46875 -7.375 2.039062 -6.941406 1.71875 -6.390625 C 1.394531 -5.835938 1.21875 -5.21875 1.1875 -4.53125 L 8.390625 -4.53125 C 8.347656 -5.21875 8.164062 -5.835938 7.84375 -6.390625 C 7.519531 -6.941406 7.09375 -7.375 6.5625 -7.6875 C 6.03125 -8.007812 5.4375 -8.171875 4.78125 -8.171875 Z M 4.78125 -8.171875 "/></g></g></g><g fill="rgb(100%, 100%, 100%)" fill-opacity="1"><g transform="translate(554.33997, 253.232412)"><g/></g></g><g fill="rgb(100%, 100%, 100%)" fill-opacity="1"><g transform="translate(558.418095, 253.232412)"><g><path d="M 3.8125 3.171875 C 3.226562 2.160156 2.78125 1.007812 2.46875 -0.28125 C 2.15625 -1.570312 2 -2.96875 2 -4.46875 C 2 -5.96875 2.15625 -7.375 2.46875 -8.6875 C 2.78125 -10 3.226562 -11.140625 3.8125 -12.109375 L 4.125 -12.109375 C 2.925781 -10.097656 2.328125 -7.550781 2.328125 -4.46875 C 2.328125 -1.394531 2.925781 1.148438 4.125 3.171875 Z M 3.8125 3.171875 "/></g></g></g><g fill="rgb(100%, 100%, 100%)" fill-opacity="1"><g transform="translate(563.491272, 253.232412)"><g><path d="M 5.6875 -0.546875 C 5.507812 -0.359375 5.269531 -0.210938 4.96875 -0.109375 C 4.664062 -0.00390625 4.359375 0.046875 4.046875 0.046875 C 3.390625 0.046875 2.882812 -0.140625 2.53125 -0.515625 C 2.175781 -0.890625 2 -1.390625 2 -2.015625 L 2 -8.125 L 0.375 -8.125 L 0.375 -8.4375 L 2 -8.4375 L 2 -10.28125 L 2.328125 -10.28125 L 2.328125 -8.4375 L 5.1875 -8.4375 L 5.1875 -8.125 L 2.328125 -8.125 L 2.328125 -2.109375 C 2.328125 -1.503906 2.472656 -1.046875 2.765625 -0.734375 C 3.066406 -0.421875 3.5 -0.265625 4.0625 -0.265625 C 4.625 -0.265625 5.09375 -0.4375 5.46875 -0.78125 Z M 5.6875 -0.546875 "/></g></g></g><g fill="rgb(100%, 100%, 100%)" fill-opacity="1"><g transform="translate(569.820518, 253.232412)"><g><path d="M 2.203125 -6.25 C 2.441406 -6.96875 2.84375 -7.519531 3.40625 -7.90625 C 3.96875 -8.289062 4.671875 -8.484375 5.515625 -8.484375 L 5.515625 -8.15625 L 5.421875 -8.15625 C 4.410156 -8.15625 3.617188 -7.832031 3.046875 -7.1875 C 2.484375 -6.539062 2.203125 -5.65625 2.203125 -4.53125 L 2.203125 0 L 1.875 0 L 1.875 -8.4375 L 2.203125 -8.4375 Z M 2.203125 -6.25 "/></g></g></g><g fill="rgb(100%, 100%, 100%)" fill-opacity="1"><g transform="translate(576.068202, 253.232412)"><g><path d="M 8.953125 -8.4375 L 8.953125 0 L 8.625 0 L 8.625 -2.234375 C 8.375 -1.515625 7.957031 -0.953125 7.375 -0.546875 C 6.789062 -0.148438 6.078125 0.046875 5.234375 0.046875 C 4.148438 0.046875 3.300781 -0.253906 2.6875 -0.859375 C 2.082031 -1.460938 1.78125 -2.328125 1.78125 -3.453125 L 1.78125 -8.4375 L 2.109375 -8.4375 L 2.109375 -3.453125 C 2.109375 -2.421875 2.378906 -1.628906 2.921875 -1.078125 C 3.460938 -0.535156 4.226562 -0.265625 5.21875 -0.265625 C 6.269531 -0.265625 7.097656 -0.59375 7.703125 -1.25 C 8.316406 -1.90625 8.625 -2.769531 8.625 -3.84375 L 8.625 -8.4375 Z M 8.953125 -8.4375 "/></g></g></g><g fill="rgb(100%, 100%, 100%)" fill-opacity="1"><g transform="translate(586.899691, 253.232412)"><g><path d="M 8.6875 -4.21875 L 1.1875 -4.21875 C 1.1875 -3.457031 1.351562 -2.773438 1.6875 -2.171875 C 2.03125 -1.566406 2.5 -1.097656 3.09375 -0.765625 C 3.6875 -0.429688 4.351562 -0.265625 5.09375 -0.265625 C 5.664062 -0.265625 6.203125 -0.375 6.703125 -0.59375 C 7.210938 -0.820312 7.628906 -1.144531 7.953125 -1.5625 L 8.1875 -1.34375 C 7.820312 -0.894531 7.363281 -0.550781 6.8125 -0.3125 C 6.269531 -0.0703125 5.695312 0.046875 5.09375 0.046875 C 4.28125 0.046875 3.554688 -0.132812 2.921875 -0.5 C 2.285156 -0.863281 1.785156 -1.367188 1.421875 -2.015625 C 1.054688 -2.671875 0.875 -3.40625 0.875 -4.21875 C 0.875 -5.039062 1.039062 -5.773438 1.375 -6.421875 C 1.71875 -7.066406 2.1875 -7.570312 2.78125 -7.9375 C 3.375 -8.300781 4.039062 -8.484375 4.78125 -8.484375 C 5.507812 -8.484375 6.171875 -8.300781 6.765625 -7.9375 C 7.367188 -7.582031 7.835938 -7.085938 8.171875 -6.453125 C 8.515625 -5.828125 8.6875 -5.113281 8.6875 -4.3125 Z M 4.78125 -8.171875 C 4.125 -8.171875 3.53125 -8.007812 3 -7.6875 C 2.46875 -7.375 2.039062 -6.941406 1.71875 -6.390625 C 1.394531 -5.835938 1.21875 -5.21875 1.1875 -4.53125 L 8.390625 -4.53125 C 8.347656 -5.21875 8.164062 -5.835938 7.84375 -6.390625 C 7.519531 -6.941406 7.09375 -7.375 6.5625 -7.6875 C 6.03125 -8.007812 5.4375 -8.171875 4.78125 -8.171875 Z M 4.78125 -8.171875 "/></g></g></g><g fill="rgb(100%, 100%, 100%)" fill-opacity="1"><g transform="translate(596.47511, 253.232412)"><g><path d="M 0.953125 3.171875 C 2.140625 1.148438 2.734375 -1.394531 2.734375 -4.46875 C 2.734375 -7.550781 2.140625 -10.097656 0.953125 -12.109375 L 1.25 -12.109375 C 1.84375 -11.140625 2.289062 -10 2.59375 -8.6875 C 2.90625 -7.375 3.0625 -5.96875 3.0625 -4.46875 C 3.0625 -2.96875 2.90625 -1.570312 2.59375 -0.28125 C 2.289062 1.007812 1.84375 2.160156 1.25 3.171875 Z M 0.953125 3.171875 "/></g></g></g><g fill="rgb(100%, 100%, 100%)" fill-opacity="1"><g transform="translate(601.548287, 253.232412)"><g/></g></g><g fill="rgb(100%, 100%, 100%)" fill-opacity="1"><g transform="translate(605.626412, 253.232412)"><g><path d="M 2.6875 -5.484375 C 2.6875 -5.191406 2.644531 -4.96875 2.5625 -4.8125 C 2.488281 -4.65625 2.359375 -4.539062 2.171875 -4.46875 C 2.359375 -4.394531 2.488281 -4.28125 2.5625 -4.125 C 2.644531 -3.976562 2.6875 -3.753906 2.6875 -3.453125 L 2.6875 1.5 C 2.6875 2.40625 3.113281 2.859375 3.96875 2.859375 L 4.484375 2.859375 L 4.484375 3.171875 L 4.078125 3.171875 C 2.929688 3.171875 2.359375 2.613281 2.359375 1.5 L 2.359375 -3.453125 C 2.359375 -4.035156 2.113281 -4.328125 1.625 -4.328125 L 1.0625 -4.328125 L 1.0625 -4.625 L 1.625 -4.625 C 2.113281 -4.625 2.359375 -4.910156 2.359375 -5.484375 L 2.359375 -10.4375 C 2.359375 -11.550781 2.929688 -12.109375 4.078125 -12.109375 L 4.484375 -12.109375 L 4.484375 -11.796875 L 3.96875 -11.796875 C 3.113281 -11.796875 2.6875 -11.34375 2.6875 -10.4375 Z M 2.6875 -5.484375 "/></g></g></g><g fill="rgb(100%, 100%, 100%)" fill-opacity="1"><g transform="translate(508.09409, 278.73241)"><g/></g></g><g fill="rgb(100%, 100%, 100%)" fill-opacity="1"><g transform="translate(512.172215, 278.73241)"><g/></g></g><g fill="rgb(100%, 100%, 100%)" fill-opacity="1"><g transform="translate(516.250339, 278.73241)"><g/></g></g><g fill="rgb(100%, 100%, 100%)" fill-opacity="1"><g transform="translate(520.328464, 278.73241)"><g/></g></g><g fill="rgb(100%, 100%, 100%)" fill-opacity="1"><g transform="translate(524.406589, 278.73241)"><g/></g></g><g fill="rgb(100%, 100%, 100%)" fill-opacity="1"><g transform="translate(528.484713, 278.73241)"><g/></g></g><g fill="rgb(100%, 100%, 100%)" fill-opacity="1"><g transform="translate(532.562838, 278.73241)"><g/></g></g><g fill="rgb(100%, 100%, 100%)" fill-opacity="1"><g transform="translate(536.640963, 278.73241)"><g/></g></g><g fill="rgb(100%, 100%, 100%)" fill-opacity="1"><g transform="translate(540.719087, 278.73241)"><g/></g></g><g fill="rgb(100%, 100%, 100%)" fill-opacity="1"><g transform="translate(544.797212, 278.73241)"><g/></g></g><g fill="rgb(100%, 100%, 100%)" fill-opacity="1"><g transform="translate(548.875337, 278.73241)"><g/></g></g><g fill="rgb(100%, 100%, 100%)" fill-opacity="1"><g transform="translate(552.953461, 278.73241)"><g/></g></g><g fill="rgb(100%, 100%, 100%)" fill-opacity="1"><g transform="translate(557.031586, 278.73241)"><g/></g></g><g fill="rgb(100%, 100%, 100%)" fill-opacity="1"><g transform="translate(561.109711, 278.73241)"><g/></g></g><g fill="rgb(100%, 100%, 100%)" fill-opacity="1"><g transform="translate(565.187835, 278.73241)"><g/></g></g><g fill="rgb(100%, 100%, 100%)" fill-opacity="1"><g transform="translate(569.26596, 278.73241)"><g/></g></g><g fill="rgb(100%, 100%, 100%)" fill-opacity="1"><g transform="translate(573.344085, 278.73241)"><g/></g></g><g fill="rgb(100%, 100%, 100%)" fill-opacity="1"><g transform="translate(577.422209, 278.73241)"><g/></g></g><g fill="rgb(100%, 100%, 100%)" fill-opacity="1"><g transform="translate(581.500334, 278.73241)"><g/></g></g><g fill="rgb(100%, 100%, 100%)" fill-opacity="1"><g transform="translate(585.578459, 278.73241)"><g/></g></g><g fill="rgb(100%, 100%, 100%)" fill-opacity="1"><g transform="translate(589.656584, 278.73241)"><g><path d="M 1.875 -8.4375 L 2.203125 -8.4375 L 2.203125 0 L 1.875 0 Z M 2.046875 -10.765625 C 1.921875 -10.765625 1.816406 -10.804688 1.734375 -10.890625 C 1.660156 -10.984375 1.625 -11.082031 1.625 -11.1875 C 1.625 -11.3125 1.660156 -11.410156 1.734375 -11.484375 C 1.816406 -11.566406 1.921875 -11.609375 2.046875 -11.609375 C 2.148438 -11.609375 2.242188 -11.566406 2.328125 -11.484375 C 2.421875 -11.410156 2.46875 -11.3125 2.46875 -11.1875 C 2.46875 -11.082031 2.421875 -10.984375 2.328125 -10.890625 C 2.242188 -10.804688 2.148438 -10.765625 2.046875 -10.765625 Z M 2.046875 -10.765625 "/></g></g></g><g fill="rgb(100%, 100%, 100%)" fill-opacity="1"><g transform="translate(593.734708, 278.73241)"><g><path d="M 4.0625 -11.84375 C 3.5 -11.84375 3.066406 -11.679688 2.765625 -11.359375 C 2.472656 -11.046875 2.328125 -10.59375 2.328125 -10 L 2.328125 -8.4375 L 5.1875 -8.4375 L 5.1875 -8.125 L 2.328125 -8.125 L 2.328125 0 L 2 0 L 2 -8.125 L 0.375 -8.125 L 0.375 -8.4375 L 2 -8.4375 L 2 -10.078125 C 2 -10.710938 2.175781 -11.21875 2.53125 -11.59375 C 2.894531 -11.96875 3.398438 -12.15625 4.046875 -12.15625 C 4.359375 -12.15625 4.664062 -12.101562 4.96875 -12 C 5.269531 -11.894531 5.507812 -11.742188 5.6875 -11.546875 L 5.46875 -11.328125 C 5.09375 -11.671875 4.625 -11.84375 4.0625 -11.84375 Z M 4.0625 -11.84375 "/></g></g></g><g fill="rgb(100%, 100%, 100%)" fill-opacity="1"><g transform="translate(598.807885, 278.73241)"><g/></g></g><g fill="rgb(100%, 100%, 100%)" fill-opacity="1"><g transform="translate(602.88601, 278.73241)"><g><path d="M 3.8125 3.171875 C 3.226562 2.160156 2.78125 1.007812 2.46875 -0.28125 C 2.15625 -1.570312 2 -2.96875 2 -4.46875 C 2 -5.96875 2.15625 -7.375 2.46875 -8.6875 C 2.78125 -10 3.226562 -11.140625 3.8125 -12.109375 L 4.125 -12.109375 C 2.925781 -10.097656 2.328125 -7.550781 2.328125 -4.46875 C 2.328125 -1.394531 2.925781 1.148438 4.125 3.171875 Z M 3.8125 3.171875 "/></g></g></g><g fill="rgb(100%, 100%, 100%)" fill-opacity="1"><g transform="translate(607.959187, 278.73241)"><g><path d="M 5.03125 0.046875 C 4.226562 0.046875 3.507812 -0.132812 2.875 -0.5 C 2.25 -0.863281 1.757812 -1.367188 1.40625 -2.015625 C 1.050781 -2.660156 0.875 -3.394531 0.875 -4.21875 C 0.875 -5.050781 1.050781 -5.789062 1.40625 -6.4375 C 1.757812 -7.082031 2.25 -7.582031 2.875 -7.9375 C 3.507812 -8.300781 4.226562 -8.484375 5.03125 -8.484375 C 5.644531 -8.484375 6.210938 -8.363281 6.734375 -8.125 C 7.265625 -7.894531 7.707031 -7.554688 8.0625 -7.109375 L 7.828125 -6.875 C 7.515625 -7.300781 7.113281 -7.625 6.625 -7.84375 C 6.132812 -8.0625 5.601562 -8.171875 5.03125 -8.171875 C 4.300781 -8.171875 3.644531 -8.003906 3.0625 -7.671875 C 2.476562 -7.335938 2.019531 -6.867188 1.6875 -6.265625 C 1.363281 -5.660156 1.203125 -4.976562 1.203125 -4.21875 C 1.203125 -3.445312 1.363281 -2.757812 1.6875 -2.15625 C 2.019531 -1.5625 2.476562 -1.097656 3.0625 -0.765625 C 3.644531 -0.429688 4.300781 -0.265625 5.03125 -0.265625 C 5.601562 -0.265625 6.132812 -0.367188 6.625 -0.578125 C 7.113281 -0.796875 7.515625 -1.125 7.828125 -1.5625 L 8.0625 -1.328125 C 7.707031 -0.878906 7.265625 -0.535156 6.734375 -0.296875 C 6.210938 -0.0664062 5.644531 0.046875 5.03125 0.046875 Z M 5.03125 0.046875 "/></g></g></g><g fill="rgb(100%, 100%, 100%)" fill-opacity="1"><g transform="translate(616.849483, 278.73241)"><g><path d="M 4.96875 0.046875 C 4.195312 0.046875 3.5 -0.132812 2.875 -0.5 C 2.25 -0.863281 1.757812 -1.367188 1.40625 -2.015625 C 1.050781 -2.671875 0.875 -3.40625 0.875 -4.21875 C 0.875 -5.039062 1.050781 -5.773438 1.40625 -6.421875 C 1.757812 -7.066406 2.25 -7.570312 2.875 -7.9375 C 3.5 -8.300781 4.195312 -8.484375 4.96875 -8.484375 C 5.75 -8.484375 6.453125 -8.300781 7.078125 -7.9375 C 7.703125 -7.570312 8.1875 -7.066406 8.53125 -6.421875 C 8.882812 -5.773438 9.0625 -5.039062 9.0625 -4.21875 C 9.0625 -3.40625 8.882812 -2.671875 8.53125 -2.015625 C 8.1875 -1.367188 7.703125 -0.863281 7.078125 -0.5 C 6.453125 -0.132812 5.75 0.046875 4.96875 0.046875 Z M 4.96875 -0.265625 C 5.675781 -0.265625 6.316406 -0.429688 6.890625 -0.765625 C 7.472656 -1.097656 7.925781 -1.566406 8.25 -2.171875 C 8.582031 -2.773438 8.75 -3.457031 8.75 -4.21875 C 8.75 -4.976562 8.582031 -5.660156 8.25 -6.265625 C 7.925781 -6.867188 7.472656 -7.335938 6.890625 -7.671875 C 6.316406 -8.003906 5.675781 -8.171875 4.96875 -8.171875 C 4.269531 -8.171875 3.628906 -8.003906 3.046875 -7.671875 C 2.472656 -7.335938 2.019531 -6.867188 1.6875 -6.265625 C 1.363281 -5.660156 1.203125 -4.976562 1.203125 -4.21875 C 1.203125 -3.457031 1.363281 -2.773438 1.6875 -2.171875 C 2.019531 -1.566406 2.472656 -1.097656 3.046875 -0.765625 C 3.628906 -0.429688 4.269531 -0.265625 4.96875 -0.265625 Z M 4.96875 -0.265625 "/></g></g></g><g fill="rgb(100%, 100%, 100%)" fill-opacity="1"><g transform="translate(626.800097, 278.73241)"><g><path d="M 4.0625 -11.84375 C 3.5 -11.84375 3.066406 -11.679688 2.765625 -11.359375 C 2.472656 -11.046875 2.328125 -10.59375 2.328125 -10 L 2.328125 -8.4375 L 5.1875 -8.4375 L 5.1875 -8.125 L 2.328125 -8.125 L 2.328125 0 L 2 0 L 2 -8.125 L 0.375 -8.125 L 0.375 -8.4375 L 2 -8.4375 L 2 -10.078125 C 2 -10.710938 2.175781 -11.21875 2.53125 -11.59375 C 2.894531 -11.96875 3.398438 -12.15625 4.046875 -12.15625 C 4.359375 -12.15625 4.664062 -12.101562 4.96875 -12 C 5.269531 -11.894531 5.507812 -11.742188 5.6875 -11.546875 L 5.46875 -11.328125 C 5.09375 -11.671875 4.625 -11.84375 4.0625 -11.84375 Z M 4.0625 -11.84375 "/></g></g></g><g fill="rgb(100%, 100%, 100%)" fill-opacity="1"><g transform="translate(631.873274, 278.73241)"><g><path d="M 4.0625 -11.84375 C 3.5 -11.84375 3.066406 -11.679688 2.765625 -11.359375 C 2.472656 -11.046875 2.328125 -10.59375 2.328125 -10 L 2.328125 -8.4375 L 5.1875 -8.4375 L 5.1875 -8.125 L 2.328125 -8.125 L 2.328125 0 L 2 0 L 2 -8.125 L 0.375 -8.125 L 0.375 -8.4375 L 2 -8.4375 L 2 -10.078125 C 2 -10.710938 2.175781 -11.21875 2.53125 -11.59375 C 2.894531 -11.96875 3.398438 -12.15625 4.046875 -12.15625 C 4.359375 -12.15625 4.664062 -12.101562 4.96875 -12 C 5.269531 -11.894531 5.507812 -11.742188 5.6875 -11.546875 L 5.46875 -11.328125 C 5.09375 -11.671875 4.625 -11.84375 4.0625 -11.84375 Z M 4.0625 -11.84375 "/></g></g></g><g fill="rgb(100%, 100%, 100%)" fill-opacity="1"><g transform="translate(636.946451, 278.73241)"><g><path d="M 8.6875 -4.21875 L 1.1875 -4.21875 C 1.1875 -3.457031 1.351562 -2.773438 1.6875 -2.171875 C 2.03125 -1.566406 2.5 -1.097656 3.09375 -0.765625 C 3.6875 -0.429688 4.351562 -0.265625 5.09375 -0.265625 C 5.664062 -0.265625 6.203125 -0.375 6.703125 -0.59375 C 7.210938 -0.820312 7.628906 -1.144531 7.953125 -1.5625 L 8.1875 -1.34375 C 7.820312 -0.894531 7.363281 -0.550781 6.8125 -0.3125 C 6.269531 -0.0703125 5.695312 0.046875 5.09375 0.046875 C 4.28125 0.046875 3.554688 -0.132812 2.921875 -0.5 C 2.285156 -0.863281 1.785156 -1.367188 1.421875 -2.015625 C 1.054688 -2.671875 0.875 -3.40625 0.875 -4.21875 C 0.875 -5.039062 1.039062 -5.773438 1.375 -6.421875 C 1.71875 -7.066406 2.1875 -7.570312 2.78125 -7.9375 C 3.375 -8.300781 4.039062 -8.484375 4.78125 -8.484375 C 5.507812 -8.484375 6.171875 -8.300781 6.765625 -7.9375 C 7.367188 -7.582031 7.835938 -7.085938 8.171875 -6.453125 C 8.515625 -5.828125 8.6875 -5.113281 8.6875 -4.3125 Z M 4.78125 -8.171875 C 4.125 -8.171875 3.53125 -8.007812 3 -7.6875 C 2.46875 -7.375 2.039062 -6.941406 1.71875 -6.390625 C 1.394531 -5.835938 1.21875 -5.21875 1.1875 -4.53125 L 8.390625 -4.53125 C 8.347656 -5.21875 8.164062 -5.835938 7.84375 -6.390625 C 7.519531 -6.941406 7.09375 -7.375 6.5625 -7.6875 C 6.03125 -8.007812 5.4375 -8.171875 4.78125 -8.171875 Z M 4.78125 -8.171875 "/></g></g></g><g fill="rgb(100%, 100%, 100%)" fill-opacity="1"><g transform="translate(646.521871, 278.73241)"><g><path d="M 8.6875 -4.21875 L 1.1875 -4.21875 C 1.1875 -3.457031 1.351562 -2.773438 1.6875 -2.171875 C 2.03125 -1.566406 2.5 -1.097656 3.09375 -0.765625 C 3.6875 -0.429688 4.351562 -0.265625 5.09375 -0.265625 C 5.664062 -0.265625 6.203125 -0.375 6.703125 -0.59375 C 7.210938 -0.820312 7.628906 -1.144531 7.953125 -1.5625 L 8.1875 -1.34375 C 7.820312 -0.894531 7.363281 -0.550781 6.8125 -0.3125 C 6.269531 -0.0703125 5.695312 0.046875 5.09375 0.046875 C 4.28125 0.046875 3.554688 -0.132812 2.921875 -0.5 C 2.285156 -0.863281 1.785156 -1.367188 1.421875 -2.015625 C 1.054688 -2.671875 0.875 -3.40625 0.875 -4.21875 C 0.875 -5.039062 1.039062 -5.773438 1.375 -6.421875 C 1.71875 -7.066406 2.1875 -7.570312 2.78125 -7.9375 C 3.375 -8.300781 4.039062 -8.484375 4.78125 -8.484375 C 5.507812 -8.484375 6.171875 -8.300781 6.765625 -7.9375 C 7.367188 -7.582031 7.835938 -7.085938 8.171875 -6.453125 C 8.515625 -5.828125 8.6875 -5.113281 8.6875 -4.3125 Z M 4.78125 -8.171875 C 4.125 -8.171875 3.53125 -8.007812 3 -7.6875 C 2.46875 -7.375 2.039062 -6.941406 1.71875 -6.390625 C 1.394531 -5.835938 1.21875 -5.21875 1.1875 -4.53125 L 8.390625 -4.53125 C 8.347656 -5.21875 8.164062 -5.835938 7.84375 -6.390625 C 7.519531 -6.941406 7.09375 -7.375 6.5625 -7.6875 C 6.03125 -8.007812 5.4375 -8.171875 4.78125 -8.171875 Z M 4.78125 -8.171875 "/></g></g></g><g fill="rgb(100%, 100%, 100%)" fill-opacity="1"><g transform="translate(656.097291, 278.73241)"><g/></g></g><g fill="rgb(100%, 100%, 100%)" fill-opacity="1"><g transform="translate(660.175415, 278.73241)"><g><path d="M 7.90625 -5.890625 L 7.90625 -5.53125 L 1.21875 -2.734375 L 1.21875 -3.09375 L 7.53125 -5.703125 L 1.21875 -8.3125 L 1.21875 -8.671875 Z M 7.90625 -5.890625 "/></g></g></g><g fill="rgb(100%, 100%, 100%)" fill-opacity="1"><g transform="translate(669.310409, 278.73241)"><g/></g></g><g fill="rgb(100%, 100%, 100%)" fill-opacity="1"><g transform="translate(673.388534, 278.73241)"><g><path d="M 5.3125 0.046875 C 4.457031 0.046875 3.703125 -0.1875 3.046875 -0.65625 C 2.390625 -1.132812 1.878906 -1.804688 1.515625 -2.671875 C 1.148438 -3.546875 0.96875 -4.554688 0.96875 -5.703125 C 0.96875 -6.859375 1.148438 -7.867188 1.515625 -8.734375 C 1.878906 -9.609375 2.390625 -10.28125 3.046875 -10.75 C 3.703125 -11.226562 4.457031 -11.46875 5.3125 -11.46875 C 6.175781 -11.46875 6.9375 -11.226562 7.59375 -10.75 C 8.25 -10.28125 8.757812 -9.609375 9.125 -8.734375 C 9.488281 -7.867188 9.671875 -6.859375 9.671875 -5.703125 C 9.671875 -4.554688 9.488281 -3.546875 9.125 -2.671875 C 8.757812 -1.804688 8.25 -1.132812 7.59375 -0.65625 C 6.9375 -0.1875 6.175781 0.046875 5.3125 0.046875 Z M 5.3125 -0.265625 C 6.113281 -0.265625 6.816406 -0.484375 7.421875 -0.921875 C 8.023438 -1.367188 8.492188 -2.003906 8.828125 -2.828125 C 9.171875 -3.648438 9.34375 -4.609375 9.34375 -5.703125 C 9.34375 -6.804688 9.171875 -7.765625 8.828125 -8.578125 C 8.492188 -9.398438 8.023438 -10.035156 7.421875 -10.484375 C 6.816406 -10.929688 6.113281 -11.15625 5.3125 -11.15625 C 4.519531 -11.15625 3.816406 -10.929688 3.203125 -10.484375 C 2.597656 -10.035156 2.125 -9.398438 1.78125 -8.578125 C 1.445312 -7.765625 1.28125 -6.804688 1.28125 -5.703125 C 1.28125 -4.609375 1.445312 -3.648438 1.78125 -2.828125 C 2.125 -2.003906 2.597656 -1.367188 3.203125 -0.921875 C 3.816406 -0.484375 4.519531 -0.265625 5.3125 -0.265625 Z M 5.3125 -0.265625 "/></g></g></g><g fill="rgb(100%, 100%, 100%)" fill-opacity="1"><g transform="translate(684.024271, 278.73241)"><g><path d="M 0.953125 3.171875 C 2.140625 1.148438 2.734375 -1.394531 2.734375 -4.46875 C 2.734375 -7.550781 2.140625 -10.097656 0.953125 -12.109375 L 1.25 -12.109375 C 1.84375 -11.140625 2.289062 -10 2.59375 -8.6875 C 2.90625 -7.375 3.0625 -5.96875 3.0625 -4.46875 C 3.0625 -2.96875 2.90625 -1.570312 2.59375 -0.28125 C 2.289062 1.007812 1.84375 2.160156 1.25 3.171875 Z M 0.953125 3.171875 "/></g></g></g><g fill="rgb(100%, 100%, 100%)" fill-opacity="1"><g transform="translate(508.09409, 304.232408)"><g/></g></g><g fill="rgb(100%, 100%, 100%)" fill-opacity="1"><g transform="translate(512.172215, 304.232408)"><g/></g></g><g fill="rgb(100%, 100%, 100%)" fill-opacity="1"><g transform="translate(516.250339, 304.232408)"><g/></g></g><g fill="rgb(100%, 100%, 100%)" fill-opacity="1"><g transform="translate(520.328464, 304.232408)"><g/></g></g><g fill="rgb(100%, 100%, 100%)" fill-opacity="1"><g transform="translate(524.406589, 304.232408)"><g/></g></g><g fill="rgb(100%, 100%, 100%)" fill-opacity="1"><g transform="translate(528.484713, 304.232408)"><g/></g></g><g fill="rgb(100%, 100%, 100%)" fill-opacity="1"><g transform="translate(532.562838, 304.232408)"><g/></g></g><g fill="rgb(100%, 100%, 100%)" fill-opacity="1"><g transform="translate(536.640963, 304.232408)"><g/></g></g><g fill="rgb(100%, 100%, 100%)" fill-opacity="1"><g transform="translate(540.719087, 304.232408)"><g/></g></g><g fill="rgb(100%, 100%, 100%)" fill-opacity="1"><g transform="translate(544.797212, 304.232408)"><g/></g></g><g fill="rgb(100%, 100%, 100%)" fill-opacity="1"><g transform="translate(548.875337, 304.232408)"><g/></g></g><g fill="rgb(100%, 100%, 100%)" fill-opacity="1"><g transform="translate(552.953461, 304.232408)"><g/></g></g><g fill="rgb(100%, 100%, 100%)" fill-opacity="1"><g transform="translate(557.031586, 304.232408)"><g/></g></g><g fill="rgb(100%, 100%, 100%)" fill-opacity="1"><g transform="translate(561.109711, 304.232408)"><g/></g></g><g fill="rgb(100%, 100%, 100%)" fill-opacity="1"><g transform="translate(565.187835, 304.232408)"><g/></g></g><g fill="rgb(100%, 100%, 100%)" fill-opacity="1"><g transform="translate(569.26596, 304.232408)"><g/></g></g><g fill="rgb(100%, 100%, 100%)" fill-opacity="1"><g transform="translate(573.344085, 304.232408)"><g/></g></g><g fill="rgb(100%, 100%, 100%)" fill-opacity="1"><g transform="translate(577.422209, 304.232408)"><g/></g></g><g fill="rgb(100%, 100%, 100%)" fill-opacity="1"><g transform="translate(581.500334, 304.232408)"><g/></g></g><g fill="rgb(100%, 100%, 100%)" fill-opacity="1"><g transform="translate(585.578459, 304.232408)"><g/></g></g><g fill="rgb(100%, 100%, 100%)" fill-opacity="1"><g transform="translate(589.656584, 304.232408)"><g/></g></g><g fill="rgb(100%, 100%, 100%)" fill-opacity="1"><g transform="translate(593.734708, 304.232408)"><g/></g></g><g fill="rgb(100%, 100%, 100%)" fill-opacity="1"><g transform="translate(597.812833, 304.232408)"><g/></g></g><g fill="rgb(100%, 100%, 100%)" fill-opacity="1"><g transform="translate(601.890958, 304.232408)"><g/></g></g><g fill="rgb(100%, 100%, 100%)" fill-opacity="1"><g transform="translate(605.969082, 304.232408)"><g><path d="M 5.03125 0.046875 C 4.226562 0.046875 3.507812 -0.132812 2.875 -0.5 C 2.25 -0.863281 1.757812 -1.367188 1.40625 -2.015625 C 1.050781 -2.660156 0.875 -3.394531 0.875 -4.21875 C 0.875 -5.050781 1.050781 -5.789062 1.40625 -6.4375 C 1.757812 -7.082031 2.25 -7.582031 2.875 -7.9375 C 3.507812 -8.300781 4.226562 -8.484375 5.03125 -8.484375 C 5.644531 -8.484375 6.210938 -8.363281 6.734375 -8.125 C 7.265625 -7.894531 7.707031 -7.554688 8.0625 -7.109375 L 7.828125 -6.875 C 7.515625 -7.300781 7.113281 -7.625 6.625 -7.84375 C 6.132812 -8.0625 5.601562 -8.171875 5.03125 -8.171875 C 4.300781 -8.171875 3.644531 -8.003906 3.0625 -7.671875 C 2.476562 -7.335938 2.019531 -6.867188 1.6875 -6.265625 C 1.363281 -5.660156 1.203125 -4.976562 1.203125 -4.21875 C 1.203125 -3.445312 1.363281 -2.757812 1.6875 -2.15625 C 2.019531 -1.5625 2.476562 -1.097656 3.0625 -0.765625 C 3.644531 -0.429688 4.300781 -0.265625 5.03125 -0.265625 C 5.601562 -0.265625 6.132812 -0.367188 6.625 -0.578125 C 7.113281 -0.796875 7.515625 -1.125 7.828125 -1.5625 L 8.0625 -1.328125 C 7.707031 -0.878906 7.265625 -0.535156 6.734375 -0.296875 C 6.210938 -0.0664062 5.644531 0.046875 5.03125 0.046875 Z M 5.03125 0.046875 "/></g></g></g><g fill="rgb(100%, 100%, 100%)" fill-opacity="1"><g transform="translate(614.859379, 304.232408)"><g><path d="M 4.96875 0.046875 C 4.195312 0.046875 3.5 -0.132812 2.875 -0.5 C 2.25 -0.863281 1.757812 -1.367188 1.40625 -2.015625 C 1.050781 -2.671875 0.875 -3.40625 0.875 -4.21875 C 0.875 -5.039062 1.050781 -5.773438 1.40625 -6.421875 C 1.757812 -7.066406 2.25 -7.570312 2.875 -7.9375 C 3.5 -8.300781 4.195312 -8.484375 4.96875 -8.484375 C 5.75 -8.484375 6.453125 -8.300781 7.078125 -7.9375 C 7.703125 -7.570312 8.1875 -7.066406 8.53125 -6.421875 C 8.882812 -5.773438 9.0625 -5.039062 9.0625 -4.21875 C 9.0625 -3.40625 8.882812 -2.671875 8.53125 -2.015625 C 8.1875 -1.367188 7.703125 -0.863281 7.078125 -0.5 C 6.453125 -0.132812 5.75 0.046875 4.96875 0.046875 Z M 4.96875 -0.265625 C 5.675781 -0.265625 6.316406 -0.429688 6.890625 -0.765625 C 7.472656 -1.097656 7.925781 -1.566406 8.25 -2.171875 C 8.582031 -2.773438 8.75 -3.457031 8.75 -4.21875 C 8.75 -4.976562 8.582031 -5.660156 8.25 -6.265625 C 7.925781 -6.867188 7.472656 -7.335938 6.890625 -7.671875 C 6.316406 -8.003906 5.675781 -8.171875 4.96875 -8.171875 C 4.269531 -8.171875 3.628906 -8.003906 3.046875 -7.671875 C 2.472656 -7.335938 2.019531 -6.867188 1.6875 -6.265625 C 1.363281 -5.660156 1.203125 -4.976562 1.203125 -4.21875 C 1.203125 -3.457031 1.363281 -2.773438 1.6875 -2.171875 C 2.019531 -1.566406 2.472656 -1.097656 3.046875 -0.765625 C 3.628906 -0.429688 4.269531 -0.265625 4.96875 -0.265625 Z M 4.96875 -0.265625 "/></g></g></g><g fill="rgb(100%, 100%, 100%)" fill-opacity="1"><g transform="translate(624.809993, 304.232408)"><g><path d="M 9.0625 -12.109375 L 9.0625 0 L 8.75 0 L 8.75 -2.578125 C 8.457031 -1.773438 7.972656 -1.132812 7.296875 -0.65625 C 6.628906 -0.1875 5.851562 0.046875 4.96875 0.046875 C 4.207031 0.046875 3.515625 -0.132812 2.890625 -0.5 C 2.265625 -0.863281 1.769531 -1.367188 1.40625 -2.015625 C 1.050781 -2.671875 0.875 -3.40625 0.875 -4.21875 C 0.875 -5.039062 1.050781 -5.773438 1.40625 -6.421875 C 1.769531 -7.066406 2.265625 -7.570312 2.890625 -7.9375 C 3.515625 -8.300781 4.207031 -8.484375 4.96875 -8.484375 C 5.84375 -8.484375 6.617188 -8.242188 7.296875 -7.765625 C 7.972656 -7.296875 8.457031 -6.664062 8.75 -5.875 L 8.75 -12.109375 Z M 4.96875 -0.265625 C 5.675781 -0.265625 6.316406 -0.429688 6.890625 -0.765625 C 7.472656 -1.097656 7.925781 -1.566406 8.25 -2.171875 C 8.582031 -2.773438 8.75 -3.457031 8.75 -4.21875 C 8.75 -4.976562 8.582031 -5.660156 8.25 -6.265625 C 7.925781 -6.867188 7.472656 -7.335938 6.890625 -7.671875 C 6.316406 -8.003906 5.675781 -8.171875 4.96875 -8.171875 C 4.269531 -8.171875 3.628906 -8.003906 3.046875 -7.671875 C 2.472656 -7.335938 2.019531 -6.867188 1.6875 -6.265625 C 1.363281 -5.660156 1.203125 -4.976562 1.203125 -4.21875 C 1.203125 -3.457031 1.363281 -2.773438 1.6875 -2.171875 C 2.019531 -1.566406 2.472656 -1.097656 3.046875 -0.765625 C 3.628906 -0.429688 4.269531 -0.265625 4.96875 -0.265625 Z M 4.96875 -0.265625 "/></g></g></g><g fill="rgb(100%, 100%, 100%)" fill-opacity="1"><g transform="translate(635.755671, 304.232408)"><g><path d="M 8.6875 -4.21875 L 1.1875 -4.21875 C 1.1875 -3.457031 1.351562 -2.773438 1.6875 -2.171875 C 2.03125 -1.566406 2.5 -1.097656 3.09375 -0.765625 C 3.6875 -0.429688 4.351562 -0.265625 5.09375 -0.265625 C 5.664062 -0.265625 6.203125 -0.375 6.703125 -0.59375 C 7.210938 -0.820312 7.628906 -1.144531 7.953125 -1.5625 L 8.1875 -1.34375 C 7.820312 -0.894531 7.363281 -0.550781 6.8125 -0.3125 C 6.269531 -0.0703125 5.695312 0.046875 5.09375 0.046875 C 4.28125 0.046875 3.554688 -0.132812 2.921875 -0.5 C 2.285156 -0.863281 1.785156 -1.367188 1.421875 -2.015625 C 1.054688 -2.671875 0.875 -3.40625 0.875 -4.21875 C 0.875 -5.039062 1.039062 -5.773438 1.375 -6.421875 C 1.71875 -7.066406 2.1875 -7.570312 2.78125 -7.9375 C 3.375 -8.300781 4.039062 -8.484375 4.78125 -8.484375 C 5.507812 -8.484375 6.171875 -8.300781 6.765625 -7.9375 C 7.367188 -7.582031 7.835938 -7.085938 8.171875 -6.453125 C 8.515625 -5.828125 8.6875 -5.113281 8.6875 -4.3125 Z M 4.78125 -8.171875 C 4.125 -8.171875 3.53125 -8.007812 3 -7.6875 C 2.46875 -7.375 2.039062 -6.941406 1.71875 -6.390625 C 1.394531 -5.835938 1.21875 -5.21875 1.1875 -4.53125 L 8.390625 -4.53125 C 8.347656 -5.21875 8.164062 -5.835938 7.84375 -6.390625 C 7.519531 -6.941406 7.09375 -7.375 6.5625 -7.6875 C 6.03125 -8.007812 5.4375 -8.171875 4.78125 -8.171875 Z M 4.78125 -8.171875 "/></g></g></g><g fill="rgb(100%, 100%, 100%)" fill-opacity="1"><g transform="translate(645.33109, 304.232408)"><g><path d="M 3.8125 3.171875 C 3.226562 2.160156 2.78125 1.007812 2.46875 -0.28125 C 2.15625 -1.570312 2 -2.96875 2 -4.46875 C 2 -5.96875 2.15625 -7.375 2.46875 -8.6875 C 2.78125 -10 3.226562 -11.140625 3.8125 -12.109375 L 4.125 -12.109375 C 2.925781 -10.097656 2.328125 -7.550781 2.328125 -4.46875 C 2.328125 -1.394531 2.925781 1.148438 4.125 3.171875 Z M 3.8125 3.171875 "/></g></g></g><g fill="rgb(100%, 100%, 100%)" fill-opacity="1"><g transform="translate(650.404267, 304.232408)"><g><path d="M 0.953125 3.171875 C 2.140625 1.148438 2.734375 -1.394531 2.734375 -4.46875 C 2.734375 -7.550781 2.140625 -10.097656 0.953125 -12.109375 L 1.25 -12.109375 C 1.84375 -11.140625 2.289062 -10 2.59375 -8.6875 C 2.90625 -7.375 3.0625 -5.96875 3.0625 -4.46875 C 3.0625 -2.96875 2.90625 -1.570312 2.59375 -0.28125 C 2.289062 1.007812 1.84375 2.160156 1.25 3.171875 Z M 0.953125 3.171875 "/></g></g></g><g fill="rgb(100%, 100%, 100%)" fill-opacity="1"><g transform="translate(655.477444, 304.232408)"><g><path d="M 1.484375 -7.953125 C 1.378906 -7.953125 1.28125 -7.992188 1.1875 -8.078125 C 1.101562 -8.171875 1.0625 -8.269531 1.0625 -8.375 C 1.0625 -8.488281 1.101562 -8.585938 1.1875 -8.671875 C 1.28125 -8.753906 1.378906 -8.796875 1.484375 -8.796875 C 1.597656 -8.796875 1.695312 -8.753906 1.78125 -8.671875 C 1.863281 -8.585938 1.90625 -8.488281 1.90625 -8.375 C 1.90625 -8.269531 1.863281 -8.171875 1.78125 -8.078125 C 1.695312 -7.992188 1.597656 -7.953125 1.484375 -7.953125 Z M 1.484375 -0.796875 C 1.597656 -0.796875 1.695312 -0.75 1.78125 -0.65625 C 1.863281 -0.570312 1.90625 -0.476562 1.90625 -0.375 C 1.90625 -0.300781 1.882812 -0.144531 1.84375 0.09375 L 1.3125 2.28125 L 1.015625 2.28125 L 1.484375 0.046875 C 1.367188 0.0351562 1.269531 -0.0078125 1.1875 -0.09375 C 1.101562 -0.175781 1.0625 -0.269531 1.0625 -0.375 C 1.0625 -0.488281 1.101562 -0.585938 1.1875 -0.671875 C 1.269531 -0.753906 1.367188 -0.796875 1.484375 -0.796875 Z M 1.484375 -0.796875 "/></g></g></g><g fill="rgb(100%, 100%, 100%)" fill-opacity="1"><g transform="translate(508.09409, 329.732406)"><g/></g></g><g fill="rgb(100%, 100%, 100%)" fill-opacity="1"><g transform="translate(512.172215, 329.732406)"><g/></g></g><g fill="rgb(100%, 100%, 100%)" fill-opacity="1"><g transform="translate(516.250339, 329.732406)"><g/></g></g><g fill="rgb(100%, 100%, 100%)" fill-opacity="1"><g transform="translate(520.328464, 329.732406)"><g/></g></g><g fill="rgb(100%, 100%, 100%)" fill-opacity="1"><g transform="translate(524.406589, 329.732406)"><g/></g></g><g fill="rgb(100%, 100%, 100%)" fill-opacity="1"><g transform="translate(528.484713, 329.732406)"><g/></g></g><g fill="rgb(100%, 100%, 100%)" fill-opacity="1"><g transform="translate(532.562838, 329.732406)"><g/></g></g><g fill="rgb(100%, 100%, 100%)" fill-opacity="1"><g transform="translate(536.640963, 329.732406)"><g/></g></g><g fill="rgb(100%, 100%, 100%)" fill-opacity="1"><g transform="translate(540.719087, 329.732406)"><g/></g></g><g fill="rgb(100%, 100%, 100%)" fill-opacity="1"><g transform="translate(544.797212, 329.732406)"><g/></g></g><g fill="rgb(100%, 100%, 100%)" fill-opacity="1"><g transform="translate(548.875337, 329.732406)"><g/></g></g><g fill="rgb(100%, 100%, 100%)" fill-opacity="1"><g transform="translate(552.953461, 329.732406)"><g/></g></g><g fill="rgb(100%, 100%, 100%)" fill-opacity="1"><g transform="translate(557.031586, 329.732406)"><g/></g></g><g fill="rgb(100%, 100%, 100%)" fill-opacity="1"><g transform="translate(561.109711, 329.732406)"><g/></g></g><g fill="rgb(100%, 100%, 100%)" fill-opacity="1"><g transform="translate(565.187835, 329.732406)"><g/></g></g><g fill="rgb(100%, 100%, 100%)" fill-opacity="1"><g transform="translate(569.26596, 329.732406)"><g/></g></g><g fill="rgb(100%, 100%, 100%)" fill-opacity="1"><g transform="translate(573.344085, 329.732406)"><g/></g></g><g fill="rgb(100%, 100%, 100%)" fill-opacity="1"><g transform="translate(577.422209, 329.732406)"><g/></g></g><g fill="rgb(100%, 100%, 100%)" fill-opacity="1"><g transform="translate(581.500334, 329.732406)"><g/></g></g><g fill="rgb(100%, 100%, 100%)" fill-opacity="1"><g transform="translate(585.578459, 329.732406)"><g/></g></g><g fill="rgb(100%, 100%, 100%)" fill-opacity="1"><g transform="translate(589.656584, 329.732406)"><g><path d="M 8.6875 -4.21875 L 1.1875 -4.21875 C 1.1875 -3.457031 1.351562 -2.773438 1.6875 -2.171875 C 2.03125 -1.566406 2.5 -1.097656 3.09375 -0.765625 C 3.6875 -0.429688 4.351562 -0.265625 5.09375 -0.265625 C 5.664062 -0.265625 6.203125 -0.375 6.703125 -0.59375 C 7.210938 -0.820312 7.628906 -1.144531 7.953125 -1.5625 L 8.1875 -1.34375 C 7.820312 -0.894531 7.363281 -0.550781 6.8125 -0.3125 C 6.269531 -0.0703125 5.695312 0.046875 5.09375 0.046875 C 4.28125 0.046875 3.554688 -0.132812 2.921875 -0.5 C 2.285156 -0.863281 1.785156 -1.367188 1.421875 -2.015625 C 1.054688 -2.671875 0.875 -3.40625 0.875 -4.21875 C 0.875 -5.039062 1.039062 -5.773438 1.375 -6.421875 C 1.71875 -7.066406 2.1875 -7.570312 2.78125 -7.9375 C 3.375 -8.300781 4.039062 -8.484375 4.78125 -8.484375 C 5.507812 -8.484375 6.171875 -8.300781 6.765625 -7.9375 C 7.367188 -7.582031 7.835938 -7.085938 8.171875 -6.453125 C 8.515625 -5.828125 8.6875 -5.113281 8.6875 -4.3125 Z M 4.78125 -8.171875 C 4.125 -8.171875 3.53125 -8.007812 3 -7.6875 C 2.46875 -7.375 2.039062 -6.941406 1.71875 -6.390625 C 1.394531 -5.835938 1.21875 -5.21875 1.1875 -4.53125 L 8.390625 -4.53125 C 8.347656 -5.21875 8.164062 -5.835938 7.84375 -6.390625 C 7.519531 -6.941406 7.09375 -7.375 6.5625 -7.6875 C 6.03125 -8.007812 5.4375 -8.171875 4.78125 -8.171875 Z M 4.78125 -8.171875 "/></g></g></g><g fill="rgb(100%, 100%, 100%)" fill-opacity="1"><g transform="translate(599.232003, 329.732406)"><g><path d="M 1.875 -12.109375 L 2.203125 -12.109375 L 2.203125 0 L 1.875 0 Z M 1.875 -12.109375 "/></g></g></g><g fill="rgb(100%, 100%, 100%)" fill-opacity="1"><g transform="translate(603.310128, 329.732406)"><g><path d="M 3.8125 0.046875 C 3.144531 0.046875 2.507812 -0.0625 1.90625 -0.28125 C 1.3125 -0.5 0.847656 -0.773438 0.515625 -1.109375 L 0.71875 -1.375 C 1.039062 -1.050781 1.476562 -0.785156 2.03125 -0.578125 C 2.582031 -0.367188 3.175781 -0.265625 3.8125 -0.265625 C 4.769531 -0.265625 5.476562 -0.425781 5.9375 -0.75 C 6.394531 -1.082031 6.625 -1.546875 6.625 -2.140625 C 6.625 -2.554688 6.5 -2.882812 6.25 -3.125 C 6.007812 -3.375 5.710938 -3.554688 5.359375 -3.671875 C 5.003906 -3.785156 4.519531 -3.90625 3.90625 -4.03125 C 3.238281 -4.144531 2.703125 -4.269531 2.296875 -4.40625 C 1.890625 -4.539062 1.546875 -4.757812 1.265625 -5.0625 C 0.984375 -5.363281 0.84375 -5.78125 0.84375 -6.3125 C 0.84375 -6.914062 1.09375 -7.425781 1.59375 -7.84375 C 2.101562 -8.269531 2.847656 -8.484375 3.828125 -8.484375 C 4.347656 -8.484375 4.863281 -8.40625 5.375 -8.25 C 5.894531 -8.09375 6.3125 -7.882812 6.625 -7.625 L 6.421875 -7.359375 C 6.097656 -7.617188 5.707031 -7.816406 5.25 -7.953125 C 4.789062 -8.097656 4.316406 -8.171875 3.828125 -8.171875 C 2.953125 -8.171875 2.289062 -8 1.84375 -7.65625 C 1.40625 -7.3125 1.1875 -6.863281 1.1875 -6.3125 C 1.1875 -5.863281 1.3125 -5.507812 1.5625 -5.25 C 1.8125 -5 2.117188 -4.8125 2.484375 -4.6875 C 2.859375 -4.570312 3.351562 -4.460938 3.96875 -4.359375 C 4.625 -4.222656 5.148438 -4.085938 5.546875 -3.953125 C 5.941406 -3.828125 6.273438 -3.617188 6.546875 -3.328125 C 6.816406 -3.046875 6.953125 -2.648438 6.953125 -2.140625 C 6.953125 -1.472656 6.679688 -0.941406 6.140625 -0.546875 C 5.609375 -0.148438 4.832031 0.046875 3.8125 0.046875 Z M 3.8125 0.046875 "/></g></g></g><g fill="rgb(100%, 100%, 100%)" fill-opacity="1"><g transform="translate(610.862804, 329.732406)"><g><path d="M 8.6875 -4.21875 L 1.1875 -4.21875 C 1.1875 -3.457031 1.351562 -2.773438 1.6875 -2.171875 C 2.03125 -1.566406 2.5 -1.097656 3.09375 -0.765625 C 3.6875 -0.429688 4.351562 -0.265625 5.09375 -0.265625 C 5.664062 -0.265625 6.203125 -0.375 6.703125 -0.59375 C 7.210938 -0.820312 7.628906 -1.144531 7.953125 -1.5625 L 8.1875 -1.34375 C 7.820312 -0.894531 7.363281 -0.550781 6.8125 -0.3125 C 6.269531 -0.0703125 5.695312 0.046875 5.09375 0.046875 C 4.28125 0.046875 3.554688 -0.132812 2.921875 -0.5 C 2.285156 -0.863281 1.785156 -1.367188 1.421875 -2.015625 C 1.054688 -2.671875 0.875 -3.40625 0.875 -4.21875 C 0.875 -5.039062 1.039062 -5.773438 1.375 -6.421875 C 1.71875 -7.066406 2.1875 -7.570312 2.78125 -7.9375 C 3.375 -8.300781 4.039062 -8.484375 4.78125 -8.484375 C 5.507812 -8.484375 6.171875 -8.300781 6.765625 -7.9375 C 7.367188 -7.582031 7.835938 -7.085938 8.171875 -6.453125 C 8.515625 -5.828125 8.6875 -5.113281 8.6875 -4.3125 Z M 4.78125 -8.171875 C 4.125 -8.171875 3.53125 -8.007812 3 -7.6875 C 2.46875 -7.375 2.039062 -6.941406 1.71875 -6.390625 C 1.394531 -5.835938 1.21875 -5.21875 1.1875 -4.53125 L 8.390625 -4.53125 C 8.347656 -5.21875 8.164062 -5.835938 7.84375 -6.390625 C 7.519531 -6.941406 7.09375 -7.375 6.5625 -7.6875 C 6.03125 -8.007812 5.4375 -8.171875 4.78125 -8.171875 Z M 4.78125 -8.171875 "/></g></g></g><g fill="rgb(100%, 100%, 100%)" fill-opacity="1"><g transform="translate(508.09409, 355.232404)"><g/></g></g><g fill="rgb(100%, 100%, 100%)" fill-opacity="1"><g transform="translate(512.172215, 355.232404)"><g/></g></g><g fill="rgb(100%, 100%, 100%)" fill-opacity="1"><g transform="translate(516.250339, 355.232404)"><g/></g></g><g fill="rgb(100%, 100%, 100%)" fill-opacity="1"><g transform="translate(520.328464, 355.232404)"><g/></g></g><g fill="rgb(100%, 100%, 100%)" fill-opacity="1"><g transform="translate(524.406589, 355.232404)"><g/></g></g><g fill="rgb(100%, 100%, 100%)" fill-opacity="1"><g transform="translate(528.484713, 355.232404)"><g/></g></g><g fill="rgb(100%, 100%, 100%)" fill-opacity="1"><g transform="translate(532.562838, 355.232404)"><g/></g></g><g fill="rgb(100%, 100%, 100%)" fill-opacity="1"><g transform="translate(536.640963, 355.232404)"><g/></g></g><g fill="rgb(100%, 100%, 100%)" fill-opacity="1"><g transform="translate(540.719087, 355.232404)"><g/></g></g><g fill="rgb(100%, 100%, 100%)" fill-opacity="1"><g transform="translate(544.797212, 355.232404)"><g/></g></g><g fill="rgb(100%, 100%, 100%)" fill-opacity="1"><g transform="translate(548.875337, 355.232404)"><g/></g></g><g fill="rgb(100%, 100%, 100%)" fill-opacity="1"><g transform="translate(552.953461, 355.232404)"><g/></g></g><g fill="rgb(100%, 100%, 100%)" fill-opacity="1"><g transform="translate(557.031586, 355.232404)"><g/></g></g><g fill="rgb(100%, 100%, 100%)" fill-opacity="1"><g transform="translate(561.109711, 355.232404)"><g/></g></g><g fill="rgb(100%, 100%, 100%)" fill-opacity="1"><g transform="translate(565.187835, 355.232404)"><g/></g></g><g fill="rgb(100%, 100%, 100%)" fill-opacity="1"><g transform="translate(569.26596, 355.232404)"><g/></g></g><g fill="rgb(100%, 100%, 100%)" fill-opacity="1"><g transform="translate(573.344085, 355.232404)"><g/></g></g><g fill="rgb(100%, 100%, 100%)" fill-opacity="1"><g transform="translate(577.422209, 355.232404)"><g/></g></g><g fill="rgb(100%, 100%, 100%)" fill-opacity="1"><g transform="translate(581.500334, 355.232404)"><g/></g></g><g fill="rgb(100%, 100%, 100%)" fill-opacity="1"><g transform="translate(585.578459, 355.232404)"><g/></g></g><g fill="rgb(100%, 100%, 100%)" fill-opacity="1"><g transform="translate(589.656584, 355.232404)"><g/></g></g><g fill="rgb(100%, 100%, 100%)" fill-opacity="1"><g transform="translate(593.734708, 355.232404)"><g/></g></g><g fill="rgb(100%, 100%, 100%)" fill-opacity="1"><g transform="translate(597.812833, 355.232404)"><g/></g></g><g fill="rgb(100%, 100%, 100%)" fill-opacity="1"><g transform="translate(601.890958, 355.232404)"><g/></g></g><g fill="rgb(100%, 100%, 100%)" fill-opacity="1"><g transform="translate(605.969082, 355.232404)"><g/></g></g><g fill="rgb(100%, 100%, 100%)" fill-opacity="1"><g transform="translate(610.047207, 355.232404)"><g><path d="M 9.171875 -8.4375 L 9.171875 -0.75 C 9.171875 0.59375 8.847656 1.585938 8.203125 2.234375 C 7.566406 2.890625 6.585938 3.21875 5.265625 3.21875 C 4.492188 3.21875 3.78125 3.09375 3.125 2.84375 C 2.46875 2.59375 1.9375 2.25 1.53125 1.8125 L 1.765625 1.578125 C 2.203125 2.003906 2.71875 2.332031 3.3125 2.5625 C 3.90625 2.789062 4.554688 2.90625 5.265625 2.90625 C 6.484375 2.90625 7.382812 2.613281 7.96875 2.03125 C 8.550781 1.445312 8.84375 0.535156 8.84375 -0.703125 L 8.84375 -2.828125 C 8.550781 -2.046875 8.0625 -1.425781 7.375 -0.96875 C 6.695312 -0.507812 5.914062 -0.28125 5.03125 -0.28125 C 4.238281 -0.28125 3.523438 -0.457031 2.890625 -0.8125 C 2.265625 -1.164062 1.769531 -1.65625 1.40625 -2.28125 C 1.050781 -2.90625 0.875 -3.609375 0.875 -4.390625 C 0.875 -5.171875 1.050781 -5.875 1.40625 -6.5 C 1.769531 -7.125 2.265625 -7.609375 2.890625 -7.953125 C 3.523438 -8.304688 4.238281 -8.484375 5.03125 -8.484375 C 5.914062 -8.484375 6.695312 -8.253906 7.375 -7.796875 C 8.0625 -7.335938 8.550781 -6.726562 8.84375 -5.96875 L 8.84375 -8.4375 Z M 5.03125 -0.59375 C 5.757812 -0.59375 6.410156 -0.75 6.984375 -1.0625 C 7.566406 -1.382812 8.019531 -1.835938 8.34375 -2.421875 C 8.675781 -3.003906 8.84375 -3.660156 8.84375 -4.390625 C 8.84375 -5.117188 8.675781 -5.769531 8.34375 -6.34375 C 8.019531 -6.914062 7.566406 -7.363281 6.984375 -7.6875 C 6.410156 -8.007812 5.757812 -8.171875 5.03125 -8.171875 C 4.300781 -8.171875 3.644531 -8.007812 3.0625 -7.6875 C 2.476562 -7.363281 2.019531 -6.914062 1.6875 -6.34375 C 1.363281 -5.769531 1.203125 -5.117188 1.203125 -4.390625 C 1.203125 -3.660156 1.363281 -3.003906 1.6875 -2.421875 C 2.019531 -1.835938 2.476562 -1.382812 3.0625 -1.0625 C 3.644531 -0.75 4.300781 -0.59375 5.03125 -0.59375 Z M 5.03125 -0.59375 "/></g></g></g><g fill="rgb(100%, 100%, 100%)" fill-opacity="1"><g transform="translate(621.090755, 355.232404)"><g><path d="M 8.6875 -4.21875 L 1.1875 -4.21875 C 1.1875 -3.457031 1.351562 -2.773438 1.6875 -2.171875 C 2.03125 -1.566406 2.5 -1.097656 3.09375 -0.765625 C 3.6875 -0.429688 4.351562 -0.265625 5.09375 -0.265625 C 5.664062 -0.265625 6.203125 -0.375 6.703125 -0.59375 C 7.210938 -0.820312 7.628906 -1.144531 7.953125 -1.5625 L 8.1875 -1.34375 C 7.820312 -0.894531 7.363281 -0.550781 6.8125 -0.3125 C 6.269531 -0.0703125 5.695312 0.046875 5.09375 0.046875 C 4.28125 0.046875 3.554688 -0.132812 2.921875 -0.5 C 2.285156 -0.863281 1.785156 -1.367188 1.421875 -2.015625 C 1.054688 -2.671875 0.875 -3.40625 0.875 -4.21875 C 0.875 -5.039062 1.039062 -5.773438 1.375 -6.421875 C 1.71875 -7.066406 2.1875 -7.570312 2.78125 -7.9375 C 3.375 -8.300781 4.039062 -8.484375 4.78125 -8.484375 C 5.507812 -8.484375 6.171875 -8.300781 6.765625 -7.9375 C 7.367188 -7.582031 7.835938 -7.085938 8.171875 -6.453125 C 8.515625 -5.828125 8.6875 -5.113281 8.6875 -4.3125 Z M 4.78125 -8.171875 C 4.125 -8.171875 3.53125 -8.007812 3 -7.6875 C 2.46875 -7.375 2.039062 -6.941406 1.71875 -6.390625 C 1.394531 -5.835938 1.21875 -5.21875 1.1875 -4.53125 L 8.390625 -4.53125 C 8.347656 -5.21875 8.164062 -5.835938 7.84375 -6.390625 C 7.519531 -6.941406 7.09375 -7.375 6.5625 -7.6875 C 6.03125 -8.007812 5.4375 -8.171875 4.78125 -8.171875 Z M 4.78125 -8.171875 "/></g></g></g><g fill="rgb(100%, 100%, 100%)" fill-opacity="1"><g transform="translate(630.666174, 355.232404)"><g><path d="M 5.6875 -0.546875 C 5.507812 -0.359375 5.269531 -0.210938 4.96875 -0.109375 C 4.664062 -0.00390625 4.359375 0.046875 4.046875 0.046875 C 3.390625 0.046875 2.882812 -0.140625 2.53125 -0.515625 C 2.175781 -0.890625 2 -1.390625 2 -2.015625 L 2 -8.125 L 0.375 -8.125 L 0.375 -8.4375 L 2 -8.4375 L 2 -10.28125 L 2.328125 -10.28125 L 2.328125 -8.4375 L 5.1875 -8.4375 L 5.1875 -8.125 L 2.328125 -8.125 L 2.328125 -2.109375 C 2.328125 -1.503906 2.472656 -1.046875 2.765625 -0.734375 C 3.066406 -0.421875 3.5 -0.265625 4.0625 -0.265625 C 4.625 -0.265625 5.09375 -0.4375 5.46875 -0.78125 Z M 5.6875 -0.546875 "/></g></g></g><g fill="rgb(100%, 100%, 100%)" fill-opacity="1"><g transform="translate(636.99542, 355.232404)"><g/></g></g><g fill="rgb(100%, 100%, 100%)" fill-opacity="1"><g transform="translate(641.073545, 355.232404)"><g><path d="M 6.8125 0.046875 C 5.71875 0.046875 4.722656 -0.203125 3.828125 -0.703125 C 2.941406 -1.203125 2.242188 -1.890625 1.734375 -2.765625 C 1.222656 -3.640625 0.96875 -4.617188 0.96875 -5.703125 C 0.96875 -6.796875 1.222656 -7.78125 1.734375 -8.65625 C 2.242188 -9.53125 2.941406 -10.21875 3.828125 -10.71875 C 4.722656 -11.21875 5.71875 -11.46875 6.8125 -11.46875 C 7.59375 -11.46875 8.316406 -11.34375 8.984375 -11.09375 C 9.648438 -10.851562 10.222656 -10.492188 10.703125 -10.015625 L 10.5 -9.78125 C 9.539062 -10.695312 8.3125 -11.15625 6.8125 -11.15625 C 5.78125 -11.15625 4.84375 -10.914062 4 -10.4375 C 3.15625 -9.957031 2.488281 -9.300781 2 -8.46875 C 1.519531 -7.632812 1.28125 -6.710938 1.28125 -5.703125 C 1.28125 -4.691406 1.519531 -3.769531 2 -2.9375 C 2.488281 -2.113281 3.15625 -1.460938 4 -0.984375 C 4.84375 -0.503906 5.78125 -0.265625 6.8125 -0.265625 C 8.300781 -0.265625 9.53125 -0.722656 10.5 -1.640625 L 10.703125 -1.421875 C 10.222656 -0.941406 9.644531 -0.578125 8.96875 -0.328125 C 8.289062 -0.078125 7.570312 0.046875 6.8125 0.046875 Z M 6.8125 0.046875 "/></g></g></g><g fill="rgb(100%, 100%, 100%)" fill-opacity="1"><g transform="translate(652.671719, 355.232404)"><g><path d="M 4.96875 0.046875 C 4.195312 0.046875 3.5 -0.132812 2.875 -0.5 C 2.25 -0.863281 1.757812 -1.367188 1.40625 -2.015625 C 1.050781 -2.671875 0.875 -3.40625 0.875 -4.21875 C 0.875 -5.039062 1.050781 -5.773438 1.40625 -6.421875 C 1.757812 -7.066406 2.25 -7.570312 2.875 -7.9375 C 3.5 -8.300781 4.195312 -8.484375 4.96875 -8.484375 C 5.75 -8.484375 6.453125 -8.300781 7.078125 -7.9375 C 7.703125 -7.570312 8.1875 -7.066406 8.53125 -6.421875 C 8.882812 -5.773438 9.0625 -5.039062 9.0625 -4.21875 C 9.0625 -3.40625 8.882812 -2.671875 8.53125 -2.015625 C 8.1875 -1.367188 7.703125 -0.863281 7.078125 -0.5 C 6.453125 -0.132812 5.75 0.046875 4.96875 0.046875 Z M 4.96875 -0.265625 C 5.675781 -0.265625 6.316406 -0.429688 6.890625 -0.765625 C 7.472656 -1.097656 7.925781 -1.566406 8.25 -2.171875 C 8.582031 -2.773438 8.75 -3.457031 8.75 -4.21875 C 8.75 -4.976562 8.582031 -5.660156 8.25 -6.265625 C 7.925781 -6.867188 7.472656 -7.335938 6.890625 -7.671875 C 6.316406 -8.003906 5.675781 -8.171875 4.96875 -8.171875 C 4.269531 -8.171875 3.628906 -8.003906 3.046875 -7.671875 C 2.472656 -7.335938 2.019531 -6.867188 1.6875 -6.265625 C 1.363281 -5.660156 1.203125 -4.976562 1.203125 -4.21875 C 1.203125 -3.457031 1.363281 -2.773438 1.6875 -2.171875 C 2.019531 -1.566406 2.472656 -1.097656 3.046875 -0.765625 C 3.628906 -0.429688 4.269531 -0.265625 4.96875 -0.265625 Z M 4.96875 -0.265625 "/></g></g></g><g fill="rgb(100%, 100%, 100%)" fill-opacity="1"><g transform="translate(662.622333, 355.232404)"><g><path d="M 4.0625 -11.84375 C 3.5 -11.84375 3.066406 -11.679688 2.765625 -11.359375 C 2.472656 -11.046875 2.328125 -10.59375 2.328125 -10 L 2.328125 -8.4375 L 5.1875 -8.4375 L 5.1875 -8.125 L 2.328125 -8.125 L 2.328125 0 L 2 0 L 2 -8.125 L 0.375 -8.125 L 0.375 -8.4375 L 2 -8.4375 L 2 -10.078125 C 2 -10.710938 2.175781 -11.21875 2.53125 -11.59375 C 2.894531 -11.96875 3.398438 -12.15625 4.046875 -12.15625 C 4.359375 -12.15625 4.664062 -12.101562 4.96875 -12 C 5.269531 -11.894531 5.507812 -11.742188 5.6875 -11.546875 L 5.46875 -11.328125 C 5.09375 -11.671875 4.625 -11.84375 4.0625 -11.84375 Z M 4.0625 -11.84375 "/></g></g></g><g fill="rgb(100%, 100%, 100%)" fill-opacity="1"><g transform="translate(667.69551, 355.232404)"><g><path d="M 4.0625 -11.84375 C 3.5 -11.84375 3.066406 -11.679688 2.765625 -11.359375 C 2.472656 -11.046875 2.328125 -10.59375 2.328125 -10 L 2.328125 -8.4375 L 5.1875 -8.4375 L 5.1875 -8.125 L 2.328125 -8.125 L 2.328125 0 L 2 0 L 2 -8.125 L 0.375 -8.125 L 0.375 -8.4375 L 2 -8.4375 L 2 -10.078125 C 2 -10.710938 2.175781 -11.21875 2.53125 -11.59375 C 2.894531 -11.96875 3.398438 -12.15625 4.046875 -12.15625 C 4.359375 -12.15625 4.664062 -12.101562 4.96875 -12 C 5.269531 -11.894531 5.507812 -11.742188 5.6875 -11.546875 L 5.46875 -11.328125 C 5.09375 -11.671875 4.625 -11.84375 4.0625 -11.84375 Z M 4.0625 -11.84375 "/></g></g></g><g fill="rgb(100%, 100%, 100%)" fill-opacity="1"><g transform="translate(672.768687, 355.232404)"><g><path d="M 8.6875 -4.21875 L 1.1875 -4.21875 C 1.1875 -3.457031 1.351562 -2.773438 1.6875 -2.171875 C 2.03125 -1.566406 2.5 -1.097656 3.09375 -0.765625 C 3.6875 -0.429688 4.351562 -0.265625 5.09375 -0.265625 C 5.664062 -0.265625 6.203125 -0.375 6.703125 -0.59375 C 7.210938 -0.820312 7.628906 -1.144531 7.953125 -1.5625 L 8.1875 -1.34375 C 7.820312 -0.894531 7.363281 -0.550781 6.8125 -0.3125 C 6.269531 -0.0703125 5.695312 0.046875 5.09375 0.046875 C 4.28125 0.046875 3.554688 -0.132812 2.921875 -0.5 C 2.285156 -0.863281 1.785156 -1.367188 1.421875 -2.015625 C 1.054688 -2.671875 0.875 -3.40625 0.875 -4.21875 C 0.875 -5.039062 1.039062 -5.773438 1.375 -6.421875 C 1.71875 -7.066406 2.1875 -7.570312 2.78125 -7.9375 C 3.375 -8.300781 4.039062 -8.484375 4.78125 -8.484375 C 5.507812 -8.484375 6.171875 -8.300781 6.765625 -7.9375 C 7.367188 -7.582031 7.835938 -7.085938 8.171875 -6.453125 C 8.515625 -5.828125 8.6875 -5.113281 8.6875 -4.3125 Z M 4.78125 -8.171875 C 4.125 -8.171875 3.53125 -8.007812 3 -7.6875 C 2.46875 -7.375 2.039062 -6.941406 1.71875 -6.390625 C 1.394531 -5.835938 1.21875 -5.21875 1.1875 -4.53125 L 8.390625 -4.53125 C 8.347656 -5.21875 8.164062 -5.835938 7.84375 -6.390625 C 7.519531 -6.941406 7.09375 -7.375 6.5625 -7.6875 C 6.03125 -8.007812 5.4375 -8.171875 4.78125 -8.171875 Z M 4.78125 -8.171875 "/></g></g></g><g fill="rgb(100%, 100%, 100%)" fill-opacity="1"><g transform="translate(682.344107, 355.232404)"><g><path d="M 8.6875 -4.21875 L 1.1875 -4.21875 C 1.1875 -3.457031 1.351562 -2.773438 1.6875 -2.171875 C 2.03125 -1.566406 2.5 -1.097656 3.09375 -0.765625 C 3.6875 -0.429688 4.351562 -0.265625 5.09375 -0.265625 C 5.664062 -0.265625 6.203125 -0.375 6.703125 -0.59375 C 7.210938 -0.820312 7.628906 -1.144531 7.953125 -1.5625 L 8.1875 -1.34375 C 7.820312 -0.894531 7.363281 -0.550781 6.8125 -0.3125 C 6.269531 -0.0703125 5.695312 0.046875 5.09375 0.046875 C 4.28125 0.046875 3.554688 -0.132812 2.921875 -0.5 C 2.285156 -0.863281 1.785156 -1.367188 1.421875 -2.015625 C 1.054688 -2.671875 0.875 -3.40625 0.875 -4.21875 C 0.875 -5.039062 1.039062 -5.773438 1.375 -6.421875 C 1.71875 -7.066406 2.1875 -7.570312 2.78125 -7.9375 C 3.375 -8.300781 4.039062 -8.484375 4.78125 -8.484375 C 5.507812 -8.484375 6.171875 -8.300781 6.765625 -7.9375 C 7.367188 -7.582031 7.835938 -7.085938 8.171875 -6.453125 C 8.515625 -5.828125 8.6875 -5.113281 8.6875 -4.3125 Z M 4.78125 -8.171875 C 4.125 -8.171875 3.53125 -8.007812 3 -7.6875 C 2.46875 -7.375 2.039062 -6.941406 1.71875 -6.390625 C 1.394531 -5.835938 1.21875 -5.21875 1.1875 -4.53125 L 8.390625 -4.53125 C 8.347656 -5.21875 8.164062 -5.835938 7.84375 -6.390625 C 7.519531 -6.941406 7.09375 -7.375 6.5625 -7.6875 C 6.03125 -8.007812 5.4375 -8.171875 4.78125 -8.171875 Z M 4.78125 -8.171875 "/></g></g></g><g fill="rgb(100%, 100%, 100%)" fill-opacity="1"><g transform="translate(691.919527, 355.232404)"><g><path d="M 3.8125 3.171875 C 3.226562 2.160156 2.78125 1.007812 2.46875 -0.28125 C 2.15625 -1.570312 2 -2.96875 2 -4.46875 C 2 -5.96875 2.15625 -7.375 2.46875 -8.6875 C 2.78125 -10 3.226562 -11.140625 3.8125 -12.109375 L 4.125 -12.109375 C 2.925781 -10.097656 2.328125 -7.550781 2.328125 -4.46875 C 2.328125 -1.394531 2.925781 1.148438 4.125 3.171875 Z M 3.8125 3.171875 "/></g></g></g><g fill="rgb(100%, 100%, 100%)" fill-opacity="1"><g transform="translate(696.992704, 355.232404)"><g><path d="M 0.953125 3.171875 C 2.140625 1.148438 2.734375 -1.394531 2.734375 -4.46875 C 2.734375 -7.550781 2.140625 -10.097656 0.953125 -12.109375 L 1.25 -12.109375 C 1.84375 -11.140625 2.289062 -10 2.59375 -8.6875 C 2.90625 -7.375 3.0625 -5.96875 3.0625 -4.46875 C 3.0625 -2.96875 2.90625 -1.570312 2.59375 -0.28125 C 2.289062 1.007812 1.84375 2.160156 1.25 3.171875 Z M 0.953125 3.171875 "/></g></g></g><g fill="rgb(100%, 100%, 100%)" fill-opacity="1"><g transform="translate(702.065881, 355.232404)"><g><path d="M 1.484375 -7.953125 C 1.378906 -7.953125 1.28125 -7.992188 1.1875 -8.078125 C 1.101562 -8.171875 1.0625 -8.269531 1.0625 -8.375 C 1.0625 -8.488281 1.101562 -8.585938 1.1875 -8.671875 C 1.28125 -8.753906 1.378906 -8.796875 1.484375 -8.796875 C 1.597656 -8.796875 1.695312 -8.753906 1.78125 -8.671875 C 1.863281 -8.585938 1.90625 -8.488281 1.90625 -8.375 C 1.90625 -8.269531 1.863281 -8.171875 1.78125 -8.078125 C 1.695312 -7.992188 1.597656 -7.953125 1.484375 -7.953125 Z M 1.484375 -0.796875 C 1.597656 -0.796875 1.695312 -0.75 1.78125 -0.65625 C 1.863281 -0.570312 1.90625 -0.476562 1.90625 -0.375 C 1.90625 -0.300781 1.882812 -0.144531 1.84375 0.09375 L 1.3125 2.28125 L 1.015625 2.28125 L 1.484375 0.046875 C 1.367188 0.0351562 1.269531 -0.0078125 1.1875 -0.09375 C 1.101562 -0.175781 1.0625 -0.269531 1.0625 -0.375 C 1.0625 -0.488281 1.101562 -0.585938 1.1875 -0.671875 C 1.269531 -0.753906 1.367188 -0.796875 1.484375 -0.796875 Z M 1.484375 -0.796875 "/></g></g></g><g fill="rgb(100%, 100%, 100%)" fill-opacity="1"><g transform="translate(508.09409, 380.732402)"><g/></g></g><g fill="rgb(100%, 100%, 100%)" fill-opacity="1"><g transform="translate(512.172215, 380.732402)"><g/></g></g><g fill="rgb(100%, 100%, 100%)" fill-opacity="1"><g transform="translate(516.250339, 380.732402)"><g/></g></g><g fill="rgb(100%, 100%, 100%)" fill-opacity="1"><g transform="translate(520.328464, 380.732402)"><g/></g></g><g fill="rgb(100%, 100%, 100%)" fill-opacity="1"><g transform="translate(524.406589, 380.732402)"><g/></g></g><g fill="rgb(100%, 100%, 100%)" fill-opacity="1"><g transform="translate(528.484713, 380.732402)"><g/></g></g><g fill="rgb(100%, 100%, 100%)" fill-opacity="1"><g transform="translate(532.562838, 380.732402)"><g/></g></g><g fill="rgb(100%, 100%, 100%)" fill-opacity="1"><g transform="translate(536.640963, 380.732402)"><g/></g></g><g fill="rgb(100%, 100%, 100%)" fill-opacity="1"><g transform="translate(540.719087, 380.732402)"><g/></g></g><g fill="rgb(100%, 100%, 100%)" fill-opacity="1"><g transform="translate(544.797212, 380.732402)"><g/></g></g><g fill="rgb(100%, 100%, 100%)" fill-opacity="1"><g transform="translate(548.875337, 380.732402)"><g/></g></g><g fill="rgb(100%, 100%, 100%)" fill-opacity="1"><g transform="translate(552.953461, 380.732402)"><g/></g></g><g fill="rgb(100%, 100%, 100%)" fill-opacity="1"><g transform="translate(557.031586, 380.732402)"><g/></g></g><g fill="rgb(100%, 100%, 100%)" fill-opacity="1"><g transform="translate(561.109711, 380.732402)"><g/></g></g><g fill="rgb(100%, 100%, 100%)" fill-opacity="1"><g transform="translate(565.187835, 380.732402)"><g/></g></g><g fill="rgb(100%, 100%, 100%)" fill-opacity="1"><g transform="translate(569.26596, 380.732402)"><g/></g></g><g fill="rgb(100%, 100%, 100%)" fill-opacity="1"><g transform="translate(573.344085, 380.732402)"><g/></g></g><g fill="rgb(100%, 100%, 100%)" fill-opacity="1"><g transform="translate(577.422209, 380.732402)"><g/></g></g><g fill="rgb(100%, 100%, 100%)" fill-opacity="1"><g transform="translate(581.500334, 380.732402)"><g/></g></g><g fill="rgb(100%, 100%, 100%)" fill-opacity="1"><g transform="translate(585.578459, 380.732402)"><g/></g></g><g fill="rgb(100%, 100%, 100%)" fill-opacity="1"><g transform="translate(589.656584, 380.732402)"><g/></g></g><g fill="rgb(100%, 100%, 100%)" fill-opacity="1"><g transform="translate(593.734708, 380.732402)"><g/></g></g><g fill="rgb(100%, 100%, 100%)" fill-opacity="1"><g transform="translate(597.812833, 380.732402)"><g/></g></g><g fill="rgb(100%, 100%, 100%)" fill-opacity="1"><g transform="translate(601.890958, 380.732402)"><g/></g></g><g fill="rgb(100%, 100%, 100%)" fill-opacity="1"><g transform="translate(605.969082, 380.732402)"><g><path d="M 3.828125 -4.625 L 3.828125 -4.328125 L 3.265625 -4.328125 C 2.773438 -4.328125 2.53125 -4.035156 2.53125 -3.453125 L 2.53125 1.5 C 2.53125 2.613281 1.957031 3.171875 0.8125 3.171875 L 0.40625 3.171875 L 0.40625 2.859375 L 0.9375 2.859375 C 1.78125 2.859375 2.203125 2.40625 2.203125 1.5 L 2.203125 -3.453125 C 2.203125 -3.753906 2.242188 -3.976562 2.328125 -4.125 C 2.410156 -4.28125 2.539062 -4.394531 2.71875 -4.46875 C 2.539062 -4.539062 2.410156 -4.65625 2.328125 -4.8125 C 2.242188 -4.96875 2.203125 -5.191406 2.203125 -5.484375 L 2.203125 -10.4375 C 2.203125 -11.34375 1.78125 -11.796875 0.9375 -11.796875 L 0.40625 -11.796875 L 0.40625 -12.109375 L 0.8125 -12.109375 C 1.957031 -12.109375 2.53125 -11.550781 2.53125 -10.4375 L 2.53125 -5.484375 C 2.53125 -4.910156 2.773438 -4.625 3.265625 -4.625 Z M 3.828125 -4.625 "/></g></g></g><g fill="rgb(100%, 100%, 100%)" fill-opacity="1"><g transform="translate(508.09409, 406.2324)"><g/></g></g><g fill="rgb(100%, 100%, 100%)" fill-opacity="1"><g transform="translate(512.172215, 406.2324)"><g/></g></g><g fill="rgb(100%, 100%, 100%)" fill-opacity="1"><g transform="translate(516.250339, 406.2324)"><g/></g></g><path stroke-linecap="butt" transform="matrix(3.749357, 0.000000000000000312, -0.000000000000000312, 3.75, -24.086751, 22.532078)" fill="none" stroke-linejoin="miter" d="M 0.00021703 -0.000220892 L 273.648146 -0.000220892 " stroke="rgb(28.239441%, 81.568909%, 42.749023%)" stroke-width="1" stroke-opacity="1" stroke-miterlimit="4"/></svg>